<svg width="32" height="32" viewBox="0 0 32 32" fill="none" xmlns="http://www.w3.org/2000/svg">
<g clip-path="url(#clip0_60_3367)">
<path d="M5.32812 0.125025C5.31875 0.14065 5.19063 0.156275 5.04375 0.156275C4.89062 0.156275 4.78125 0.168776 4.78125 0.187525C4.78125 0.20315 4.71875 0.218775 4.64375 0.218775C4.56563 0.218775 4.49375 0.231276 4.48438 0.250025C4.475 0.26565 4.425 0.281275 4.37188 0.281275C4.32188 0.281275 4.28125 0.293776 4.28125 0.312525C4.28125 0.32815 4.24062 0.343775 4.1875 0.343775C4.1375 0.343775 4.09375 0.356276 4.09375 0.375025C4.09375 0.39065 4.05312 0.406275 4 0.406275C3.95 0.406275 3.90625 0.418776 3.90625 0.437525C3.90625 0.45315 3.87812 0.468775 3.84375 0.468775C3.80938 0.468775 3.78125 0.481276 3.78125 0.500025C3.78125 0.51565 3.75312 0.531275 3.71875 0.531275C3.68438 0.531275 3.65625 0.543776 3.65625 0.562525C3.65625 0.57815 3.63438 0.593775 3.60938 0.593775C3.58125 0.593775 3.53125 0.621901 3.49375 0.656275C3.45625 0.690649 3.40625 0.718775 3.38438 0.718775C3.3625 0.718775 3.34375 0.731276 3.34375 0.750025C3.34375 0.76565 3.32188 0.781275 3.29688 0.781275C3.27188 0.781275 3.20625 0.821899 3.15 0.875025C3.09687 0.925024 3.04063 0.968775 3.025 0.968775C2.99063 0.968775 2.28125 1.67815 2.28125 1.71252C2.28125 1.72815 2.24063 1.7844 2.1875 1.83752C2.1375 1.89377 2.09375 1.95315 2.09375 1.96877C2.09375 1.98752 2.06562 2.03127 2.03125 2.06878C1.99688 2.10628 1.96875 2.15627 1.96875 2.17815C1.96875 2.20003 1.95625 2.21877 1.9375 2.21877C1.92188 2.21877 1.90625 2.2469 1.90625 2.28127C1.90625 2.31565 1.89375 2.34377 1.875 2.34377C1.85938 2.34377 1.84375 2.3719 1.84375 2.40627C1.84375 2.44065 1.83125 2.46877 1.8125 2.46877C1.79688 2.46877 1.78125 2.4969 1.78125 2.53127C1.78125 2.56565 1.76875 2.59377 1.75 2.59377C1.73438 2.59377 1.71875 2.6344 1.71875 2.68752C1.71875 2.73752 1.70625 2.78127 1.6875 2.78127C1.67188 2.78127 1.65625 2.8219 1.65625 2.87502C1.65625 2.92502 1.64375 2.96877 1.625 2.96877C1.60938 2.96877 1.59375 3.0094 1.59375 3.06252C1.59375 3.11252 1.58125 3.15627 1.5625 3.15627C1.54688 3.15627 1.53125 3.21252 1.53125 3.27815C1.53125 3.3469 1.51875 3.41253 1.5 3.4219C1.48438 3.43127 1.46875 3.5469 1.46875 3.67502C1.46875 3.8094 1.45625 3.90627 1.4375 3.90627C1.41562 3.90627 1.40625 6.04065 1.40625 10.25V16.5938H0.703125H0V17.6875V18.7813H0.734375H1.46875V19.1063C1.46875 19.2907 1.48125 19.4438 1.5 19.4532C1.51875 19.4625 1.53125 19.5844 1.53125 19.7188C1.53125 19.8532 1.54688 19.975 1.5625 19.9844C1.58125 19.9938 1.59375 20.1 1.59375 20.2188C1.59375 20.3375 1.60625 20.4438 1.625 20.4532C1.64062 20.4625 1.65625 20.5407 1.65625 20.6282C1.65625 20.7125 1.67188 20.7813 1.6875 20.7813C1.70625 20.7813 1.71875 20.8563 1.71875 20.95C1.71875 21.0438 1.73438 21.1313 1.75 21.1407C1.76875 21.15 1.78125 21.2157 1.78125 21.2844C1.78125 21.35 1.79688 21.4063 1.8125 21.4063C1.83125 21.4063 1.84375 21.4625 1.84375 21.5313C1.84375 21.6 1.85938 21.6563 1.875 21.6563C1.89375 21.6563 1.90625 21.7125 1.90625 21.7813C1.90625 21.85 1.92188 21.9063 1.9375 21.9063C1.95625 21.9063 1.96875 21.9469 1.96875 22C1.96875 22.05 1.98438 22.0938 2 22.0938C2.01875 22.0938 2.03125 22.1407 2.03125 22.2C2.03125 22.2594 2.04688 22.3188 2.0625 22.3282C2.08125 22.3375 2.09375 22.3813 2.09375 22.4219C2.09375 22.4625 2.10938 22.5063 2.125 22.5157C2.14375 22.525 2.15625 22.5625 2.15625 22.5969C2.15625 22.6282 2.17188 22.6563 2.1875 22.6563C2.20625 22.6563 2.21875 22.6969 2.21875 22.75C2.21875 22.8 2.23438 22.8438 2.25 22.8438C2.26875 22.8438 2.28125 22.8844 2.28125 22.9375C2.28125 22.9875 2.29688 23.0313 2.3125 23.0313C2.33125 23.0313 2.34375 23.0594 2.34375 23.0938C2.34375 23.1282 2.35938 23.1563 2.375 23.1563C2.39375 23.1563 2.40625 23.1844 2.40625 23.2188C2.40625 23.2532 2.42188 23.2813 2.4375 23.2813C2.45625 23.2813 2.46875 23.3157 2.46875 23.3563C2.46875 23.4 2.48438 23.4438 2.5 23.4532C2.51875 23.4625 2.53125 23.5 2.53125 23.5344C2.53125 23.5657 2.54688 23.5938 2.5625 23.5938C2.58125 23.5938 2.59375 23.6219 2.59375 23.6563C2.59375 23.6907 2.60938 23.7188 2.625 23.7188C2.64375 23.7188 2.65625 23.7469 2.65625 23.7813C2.65625 23.8157 2.67188 23.8438 2.6875 23.8438C2.70625 23.8438 2.71875 23.8719 2.71875 23.9063C2.71875 23.9407 2.73438 23.9688 2.75 23.9688C2.76875 23.9688 2.78125 23.9875 2.78125 24.0094C2.78125 24.0313 2.80938 24.0813 2.84375 24.1188C2.87812 24.1563 2.90625 24.2063 2.90625 24.2344C2.90625 24.2594 2.92188 24.2813 2.9375 24.2813C2.95625 24.2813 2.96875 24.3063 2.96875 24.3375C2.96875 24.3688 2.99688 24.4125 3.03125 24.4375C3.06562 24.4625 3.09375 24.5063 3.09375 24.5375C3.09375 24.5688 3.10938 24.5938 3.125 24.5938C3.14375 24.5938 3.15625 24.6125 3.15625 24.6313C3.15625 24.6532 3.2 24.7219 3.25 24.7813C3.3 24.8407 3.34375 24.9063 3.34375 24.9219C3.34375 24.9407 3.37188 24.975 3.40625 25C3.44062 25.025 3.46875 25.0657 3.46875 25.0875C3.46875 25.1094 3.525 25.1844 3.59375 25.25C3.6625 25.3157 3.71875 25.3844 3.71875 25.4063C3.71875 25.4469 4.80312 26.5313 4.84375 26.5313C4.8625 26.5313 4.93438 26.5875 5.00313 26.6563C5.075 26.725 5.15 26.7813 5.16875 26.7813C5.1875 26.7813 5.225 26.8094 5.25 26.8438C5.275 26.8782 5.31563 26.9063 5.34375 26.9063C5.37188 26.9063 5.4125 26.9344 5.4375 26.9688C5.4625 27.0032 5.50313 27.0313 5.53125 27.0313C5.55938 27.0313 5.6 27.0594 5.625 27.0938C5.65 27.1282 5.69375 27.1563 5.725 27.1563C5.75625 27.1563 5.78125 27.1688 5.78125 27.1875C5.78125 27.2032 5.80625 27.2188 5.8375 27.2188C5.86875 27.2188 5.9125 27.2469 5.9375 27.2813C5.9625 27.3157 6.00625 27.3438 6.0375 27.3438C6.06875 27.3438 6.09375 27.3563 6.09375 27.375C6.09375 27.3907 6.12188 27.4063 6.15625 27.4063C6.19063 27.4063 6.21875 27.4188 6.21875 27.4375C6.21875 27.4532 6.24688 27.4688 6.28125 27.4688C6.31563 27.4688 6.34375 27.4813 6.34375 27.5C6.34375 27.5157 6.37188 27.5313 6.40625 27.5313C6.44063 27.5313 6.46875 27.5438 6.46875 27.5625C6.46875 27.5782 6.49062 27.5938 6.51562 27.5938C6.54063 27.5938 6.59063 27.6094 6.625 27.625C6.65938 27.6438 6.71563 27.6719 6.75 27.6875C6.78438 27.7063 6.83437 27.7188 6.85938 27.7188C6.88438 27.7188 6.90625 27.7313 6.90625 27.75C6.90625 27.7657 6.92812 27.7813 6.95312 27.7813C7.00938 27.7813 6.98125 27.8688 6.9 27.9407C6.86875 27.9688 6.84375 28.0125 6.84375 28.0344C6.84375 28.0594 6.81563 28.1 6.78125 28.125C6.74688 28.15 6.71875 28.1907 6.71875 28.2188C6.71875 28.2469 6.69063 28.2875 6.65625 28.3125C6.62188 28.3375 6.59375 28.3782 6.59375 28.4063C6.59375 28.4344 6.56563 28.475 6.53125 28.5C6.49688 28.525 6.46875 28.5657 6.46875 28.5938C6.46875 28.6219 6.44063 28.6625 6.40625 28.6875C6.37188 28.7125 6.34375 28.7532 6.34375 28.7813C6.34375 28.8094 6.31563 28.85 6.28125 28.875C6.24688 28.9 6.21875 28.9407 6.21875 28.9688C6.21875 28.9969 6.19063 29.0375 6.15625 29.0625C6.12188 29.0875 6.09375 29.1219 6.09375 29.1407C6.09375 29.1563 6.05 29.2219 6 29.2813C5.95 29.3407 5.90625 29.4094 5.90625 29.4282C5.90625 29.45 5.89375 29.4688 5.88125 29.4688C5.86562 29.4688 5.83437 29.5063 5.80938 29.5532C5.78438 29.6032 5.74062 29.6688 5.7125 29.7C5.68125 29.7344 5.65625 29.7782 5.65625 29.7969C5.65625 29.8157 5.62813 29.85 5.59375 29.875C5.55938 29.9 5.53125 29.9407 5.53125 29.9688C5.53125 29.9969 5.50313 30.0375 5.46875 30.0625C5.43438 30.0875 5.40625 30.1282 5.40625 30.1563C5.40625 30.1844 5.37813 30.225 5.34375 30.25C5.30938 30.275 5.28125 30.3157 5.28125 30.3438C5.28125 30.3719 5.25313 30.4125 5.21875 30.4375C5.18438 30.4625 5.15625 30.5063 5.15625 30.5375C5.15625 30.5688 5.14375 30.5938 5.125 30.5938C5.07812 30.5938 5.0875 30.6844 5.1375 30.7375C5.1625 30.7625 5.20312 30.7813 5.225 30.7813C5.25 30.7813 5.2875 30.8094 5.3125 30.8438C5.3375 30.8782 5.37813 30.9063 5.40313 30.9063C5.425 30.9063 5.46875 30.9313 5.49688 30.9625C5.525 30.9907 5.58437 31.0344 5.63438 31.0594C5.68125 31.0844 5.71875 31.1157 5.71875 31.1313C5.71875 31.1438 5.7375 31.1563 5.75938 31.1563C5.77813 31.1563 5.84688 31.2 5.90625 31.25C5.96563 31.3 6.03438 31.3438 6.05625 31.3438C6.075 31.3438 6.09375 31.3563 6.09375 31.3688C6.09375 31.3844 6.13125 31.4157 6.18125 31.4407C6.22813 31.4657 6.2875 31.5094 6.31563 31.5375C6.34375 31.5688 6.3875 31.5938 6.40938 31.5938C6.43438 31.5938 6.475 31.6219 6.5 31.6563C6.525 31.6907 6.56563 31.7188 6.59375 31.7188C6.62188 31.7188 6.6625 31.7469 6.6875 31.7813C6.7125 31.8157 6.75625 31.8438 6.7875 31.8438C6.81875 31.8438 6.84375 31.8563 6.84375 31.875C6.84375 31.9407 6.95937 31.9032 7.00313 31.8188C7.02813 31.7719 7.07188 31.7063 7.10313 31.675C7.13125 31.6407 7.15625 31.5969 7.15625 31.5782C7.15625 31.5594 7.18438 31.525 7.21875 31.5C7.25313 31.475 7.28125 31.4344 7.28125 31.4063C7.28125 31.3782 7.30938 31.3375 7.34375 31.3125C7.37813 31.2875 7.40625 31.2469 7.40625 31.2188C7.40625 31.1907 7.43438 31.15 7.46875 31.125C7.50313 31.1 7.53125 31.0594 7.53125 31.0313C7.53125 31.0032 7.55938 30.9625 7.59375 30.9375C7.62813 30.9125 7.65625 30.8719 7.65625 30.8438C7.65625 30.8157 7.68438 30.775 7.71875 30.75C7.75313 30.725 7.78125 30.6844 7.78125 30.6563C7.78125 30.6282 7.80938 30.5875 7.84375 30.5625C7.87813 30.5375 7.90625 30.4969 7.90625 30.4719C7.90625 30.45 7.93125 30.4063 7.9625 30.3782C7.99062 30.35 8.03438 30.2907 8.05937 30.2407C8.08438 30.1938 8.11563 30.1563 8.13125 30.1563C8.14375 30.1563 8.15625 30.1375 8.15625 30.1157C8.15625 30.0969 8.2 30.0282 8.25 29.9688C8.3 29.9094 8.34375 29.8407 8.34375 29.8188C8.34375 29.8 8.35625 29.7813 8.36875 29.7813C8.38438 29.7813 8.41563 29.7438 8.44063 29.6969C8.46562 29.6469 8.50938 29.5875 8.5375 29.5594C8.56875 29.5313 8.59375 29.4875 8.59375 29.4657C8.59375 29.4407 8.62187 29.4 8.65625 29.375C8.69063 29.35 8.71875 29.3094 8.71875 29.2813C8.71875 29.2532 8.74687 29.2125 8.78125 29.1875C8.81563 29.1625 8.84375 29.1219 8.84375 29.0938C8.84375 29.0657 8.87187 29.025 8.90625 29C8.94063 28.975 8.96875 28.9344 8.96875 28.9063C8.96875 28.8782 8.99687 28.8375 9.03125 28.8125C9.06563 28.7875 9.09375 28.7469 9.09375 28.7188C9.09375 28.6907 9.12187 28.65 9.15625 28.625C9.19063 28.6 9.21875 28.5563 9.21875 28.525C9.21875 28.475 9.25 28.4688 9.45 28.4688C9.57812 28.4688 9.69375 28.4844 9.70312 28.5C9.7125 28.5188 9.81875 28.5313 9.94063 28.5313C10.0625 28.5313 10.1562 28.5438 10.1562 28.5625C10.1562 28.5813 10.3281 28.5938 10.6062 28.5938C10.875 28.5938 11.0656 28.6063 11.0781 28.625C11.1062 28.6688 20.8938 28.6688 20.9219 28.625C20.9344 28.6063 21.125 28.5938 21.3938 28.5938C21.6719 28.5938 21.8438 28.5813 21.8438 28.5625C21.8438 28.5438 21.9375 28.5313 22.0594 28.5313C22.1812 28.5313 22.2875 28.5157 22.2969 28.5C22.3062 28.4813 22.4219 28.4688 22.55 28.4688C22.75 28.4688 22.7812 28.475 22.7812 28.525C22.7812 28.5563 22.8094 28.6 22.8438 28.625C22.8781 28.65 22.9062 28.6907 22.9062 28.7188C22.9062 28.7469 22.9344 28.7875 22.9688 28.8125C23.0031 28.8375 23.0312 28.8782 23.0312 28.9063C23.0312 28.9344 23.0594 28.975 23.0938 29C23.1281 29.025 23.1562 29.0657 23.1562 29.0938C23.1562 29.1219 23.1844 29.1625 23.2188 29.1875C23.2531 29.2125 23.2812 29.2532 23.2812 29.2813C23.2812 29.3094 23.3094 29.35 23.3438 29.375C23.3781 29.4 23.4062 29.4407 23.4062 29.4657C23.4062 29.4875 23.4312 29.5313 23.4625 29.5594C23.4906 29.5875 23.5344 29.6469 23.5594 29.6969C23.5844 29.7438 23.6156 29.7813 23.6313 29.7813C23.6438 29.7813 23.6562 29.8 23.6562 29.8188C23.6562 29.8407 23.7 29.9094 23.75 29.9688C23.8 30.0282 23.8438 30.0969 23.8438 30.1157C23.8438 30.1375 23.8563 30.1563 23.8687 30.1563C23.8844 30.1563 23.9156 30.1938 23.9406 30.2407C23.9656 30.2907 24.0094 30.35 24.0375 30.3782C24.0688 30.4063 24.0938 30.45 24.0938 30.4719C24.0938 30.4969 24.1219 30.5375 24.1562 30.5625C24.1906 30.5875 24.2188 30.6282 24.2188 30.6563C24.2188 30.6844 24.2469 30.725 24.2812 30.75C24.3156 30.775 24.3438 30.8157 24.3438 30.8438C24.3438 30.8719 24.3719 30.9125 24.4062 30.9375C24.4406 30.9625 24.4688 31.0032 24.4688 31.0313C24.4688 31.0594 24.4969 31.1 24.5312 31.125C24.5656 31.15 24.5938 31.1907 24.5938 31.2188C24.5938 31.2469 24.6219 31.2875 24.6562 31.3125C24.6906 31.3375 24.7188 31.3782 24.7188 31.4063C24.7188 31.4344 24.7469 31.475 24.7812 31.5C24.8156 31.525 24.8438 31.5594 24.8438 31.5782C24.8438 31.5969 24.8687 31.6407 24.9 31.675C24.9281 31.7063 24.9719 31.7719 24.9969 31.8188C25.0406 31.9032 25.1562 31.9407 25.1562 31.875C25.1562 31.8563 25.1812 31.8438 25.2125 31.8438C25.2437 31.8438 25.2875 31.8157 25.3125 31.7813C25.3375 31.7469 25.3781 31.7188 25.4062 31.7188C25.4344 31.7188 25.475 31.6907 25.5 31.6563C25.525 31.6219 25.5656 31.5938 25.5906 31.5938C25.6125 31.5938 25.6562 31.5688 25.6844 31.5375C25.7125 31.5094 25.7719 31.4657 25.8219 31.4407C25.8687 31.4157 25.9062 31.3844 25.9062 31.3688C25.9062 31.3563 25.925 31.3438 25.9469 31.3438C25.9656 31.3438 26.0344 31.3 26.0938 31.25C26.1531 31.2 26.2219 31.1563 26.2437 31.1563C26.2625 31.1563 26.2812 31.1438 26.2812 31.1313C26.2812 31.1157 26.3188 31.0844 26.3687 31.0594C26.4156 31.0344 26.475 30.9907 26.5031 30.9625C26.5312 30.9313 26.575 30.9063 26.5969 30.9063C26.6219 30.9063 26.6625 30.8782 26.6875 30.8438C26.7125 30.8094 26.75 30.7813 26.775 30.7813C26.7969 30.7813 26.8375 30.7625 26.8625 30.7375C26.9125 30.6844 26.9219 30.5938 26.875 30.5938C26.8594 30.5938 26.8438 30.5688 26.8438 30.5375C26.8438 30.5063 26.8156 30.4625 26.7812 30.4375C26.7469 30.4125 26.7188 30.3719 26.7188 30.3438C26.7188 30.3157 26.6906 30.275 26.6562 30.25C26.6219 30.225 26.5938 30.1844 26.5938 30.1563C26.5938 30.1282 26.5656 30.0875 26.5312 30.0625C26.4969 30.0375 26.4688 29.9969 26.4688 29.9688C26.4688 29.9407 26.4406 29.9 26.4062 29.875C26.3719 29.85 26.3438 29.8157 26.3438 29.7969C26.3438 29.7782 26.3188 29.7344 26.2906 29.7C26.2594 29.6688 26.2156 29.6032 26.1906 29.5532C26.1656 29.5063 26.1344 29.4688 26.1187 29.4688C26.1063 29.4688 26.0938 29.45 26.0938 29.4282C26.0938 29.4094 26.05 29.3407 26 29.2813C25.95 29.2219 25.9062 29.1563 25.9062 29.1407C25.9062 29.1219 25.8781 29.0875 25.8438 29.0625C25.8094 29.0375 25.7812 28.9969 25.7812 28.9688C25.7812 28.9407 25.7531 28.9 25.7188 28.875C25.6844 28.85 25.6562 28.8094 25.6562 28.7813C25.6562 28.7532 25.6281 28.7125 25.5938 28.6875C25.5594 28.6625 25.5312 28.6219 25.5312 28.5938C25.5312 28.5657 25.5031 28.525 25.4688 28.5C25.4344 28.475 25.4062 28.4344 25.4062 28.4063C25.4062 28.3782 25.3781 28.3375 25.3438 28.3125C25.3094 28.2875 25.2812 28.2469 25.2812 28.2188C25.2812 28.1907 25.2531 28.15 25.2188 28.125C25.1844 28.1 25.1562 28.0594 25.1562 28.0344C25.1562 28.0125 25.1313 27.9688 25.1 27.9407C25.0188 27.8688 24.9906 27.7813 25.0469 27.7813C25.0719 27.7813 25.0938 27.7657 25.0938 27.75C25.0938 27.7313 25.1156 27.7188 25.1406 27.7188C25.1656 27.7188 25.2156 27.7063 25.25 27.6875C25.2844 27.6719 25.3406 27.6407 25.375 27.625C25.4094 27.6063 25.4594 27.5938 25.4844 27.5938C25.5094 27.5938 25.5312 27.5782 25.5312 27.5625C25.5312 27.5438 25.5594 27.5313 25.5938 27.5313C25.6281 27.5313 25.6562 27.5157 25.6562 27.5C25.6562 27.4813 25.6844 27.4688 25.7188 27.4688C25.7531 27.4688 25.7812 27.4532 25.7812 27.4375C25.7812 27.4188 25.8094 27.4063 25.8438 27.4063C25.8781 27.4063 25.9062 27.3907 25.9062 27.375C25.9062 27.3563 25.9312 27.3438 25.9625 27.3438C25.9937 27.3438 26.0375 27.3157 26.0625 27.2813C26.0875 27.2469 26.1313 27.2188 26.1625 27.2188C26.1938 27.2188 26.2188 27.2032 26.2188 27.1875C26.2188 27.1688 26.2437 27.1563 26.275 27.1563C26.3062 27.1563 26.35 27.1282 26.375 27.0938C26.4 27.0594 26.4406 27.0313 26.4688 27.0313C26.4969 27.0313 26.5375 27.0032 26.5625 26.9688C26.5875 26.9344 26.6281 26.9063 26.6562 26.9063C26.6844 26.9063 26.725 26.8782 26.75 26.8438C26.775 26.8094 26.8125 26.7813 26.8313 26.7813C26.85 26.7813 26.925 26.725 26.9969 26.6563C27.0656 26.5875 27.1375 26.5313 27.1562 26.5313C27.1969 26.5313 28.2812 25.4469 28.2812 25.4063C28.2812 25.3844 28.3375 25.3157 28.4062 25.25C28.475 25.1844 28.5312 25.1094 28.5312 25.0875C28.5312 25.0657 28.5594 25.025 28.5938 25C28.6281 24.975 28.6562 24.9407 28.6562 24.9219C28.6562 24.9063 28.7 24.8407 28.75 24.7813C28.8 24.7219 28.8438 24.6532 28.8438 24.6313C28.8438 24.6125 28.8594 24.5938 28.875 24.5938C28.8938 24.5938 28.9062 24.5688 28.9062 24.5375C28.9062 24.5063 28.9344 24.4625 28.9688 24.4375C29.0031 24.4125 29.0312 24.3688 29.0312 24.3375C29.0312 24.3063 29.0469 24.2813 29.0625 24.2813C29.0813 24.2813 29.0938 24.2594 29.0938 24.2344C29.0938 24.2063 29.1219 24.1563 29.1562 24.1188C29.1906 24.0813 29.2188 24.0313 29.2188 24.0094C29.2188 23.9875 29.2344 23.9688 29.25 23.9688C29.2688 23.9688 29.2812 23.9407 29.2812 23.9063C29.2812 23.8719 29.2969 23.8438 29.3125 23.8438C29.3313 23.8438 29.3438 23.8157 29.3438 23.7813C29.3438 23.7469 29.3594 23.7188 29.375 23.7188C29.3938 23.7188 29.4062 23.6907 29.4062 23.6563C29.4062 23.6219 29.4219 23.5938 29.4375 23.5938C29.4563 23.5938 29.4688 23.5657 29.4688 23.5344C29.4688 23.5 29.4844 23.4625 29.5 23.4532C29.5156 23.4438 29.5312 23.4 29.5312 23.3563C29.5312 23.3157 29.5469 23.2813 29.5625 23.2813C29.5813 23.2813 29.5938 23.2532 29.5938 23.2188C29.5938 23.1844 29.6094 23.1563 29.625 23.1563C29.6438 23.1563 29.6562 23.1282 29.6562 23.0938C29.6562 23.0594 29.6719 23.0313 29.6875 23.0313C29.7063 23.0313 29.7188 22.9875 29.7188 22.9375C29.7188 22.8844 29.7344 22.8438 29.75 22.8438C29.7688 22.8438 29.7812 22.8 29.7812 22.75C29.7812 22.6969 29.7969 22.6563 29.8125 22.6563C29.8313 22.6563 29.8438 22.6282 29.8438 22.5969C29.8438 22.5625 29.8594 22.525 29.875 22.5157C29.8938 22.5063 29.9062 22.4625 29.9062 22.4219C29.9062 22.3813 29.9219 22.3375 29.9375 22.3282C29.9563 22.3188 29.9688 22.2594 29.9688 22.2C29.9688 22.1407 29.9844 22.0938 30 22.0938C30.0188 22.0938 30.0312 22.05 30.0312 22C30.0312 21.9469 30.0469 21.9063 30.0625 21.9063C30.0813 21.9063 30.0938 21.85 30.0938 21.7813C30.0938 21.7125 30.1094 21.6563 30.125 21.6563C30.1438 21.6563 30.1562 21.6 30.1562 21.5313C30.1562 21.4625 30.1719 21.4063 30.1875 21.4063C30.2063 21.4063 30.2188 21.35 30.2188 21.2844C30.2188 21.2157 30.2313 21.15 30.25 21.1407C30.2656 21.1313 30.2812 21.0438 30.2812 20.95C30.2812 20.8563 30.2969 20.7813 30.3125 20.7813C30.3313 20.7813 30.3438 20.7125 30.3438 20.6282C30.3438 20.5407 30.3594 20.4625 30.375 20.4532C30.3938 20.4438 30.4062 20.3375 30.4062 20.2188C30.4062 20.1 30.4219 19.9938 30.4375 19.9844C30.4531 19.975 30.4688 19.8532 30.4688 19.7188C30.4688 19.5844 30.4844 19.4625 30.5 19.4532C30.5188 19.4438 30.5312 19.2907 30.5312 19.1063V18.7813H31.2656H32V17.6875V16.5938H17.8281H3.65625V10.2188C3.65625 5.99065 3.66563 3.84377 3.6875 3.84377C3.70625 3.84377 3.71875 3.80002 3.71875 3.75002C3.71875 3.6969 3.73438 3.65627 3.75 3.65627C3.76875 3.65627 3.78125 3.6219 3.78125 3.57815C3.78125 3.5344 3.80938 3.46877 3.84375 3.43127C3.87812 3.39377 3.90625 3.34377 3.90625 3.3219C3.90625 3.30002 3.92188 3.28127 3.9375 3.28127C3.95625 3.28127 3.96875 3.2594 3.96875 3.23128C3.96875 3.20315 4.00625 3.14377 4.05625 3.0969C4.10313 3.05002 4.15625 2.98752 4.175 2.95315C4.19375 2.9219 4.23438 2.88128 4.26562 2.86252C4.3 2.84377 4.3625 2.79065 4.40938 2.74065C4.45625 2.69378 4.51562 2.65627 4.54375 2.65627C4.57188 2.65627 4.59375 2.64065 4.59375 2.62502C4.59375 2.60628 4.6125 2.59377 4.63438 2.59377C4.65625 2.59377 4.70625 2.56565 4.74375 2.53127C4.78125 2.4969 4.84688 2.46877 4.89062 2.46877C4.93438 2.46877 4.96875 2.45315 4.96875 2.43752C4.96875 2.41878 5.00938 2.40627 5.05938 2.40627C5.1125 2.40627 5.1625 2.39065 5.17188 2.37502C5.18438 2.35628 5.35 2.34377 5.5625 2.34377C5.775 2.34377 5.94063 2.35628 5.95312 2.37502C5.9625 2.39065 6.0125 2.40627 6.06563 2.40627C6.11562 2.40627 6.15625 2.41878 6.15625 2.43752C6.15625 2.45315 6.19063 2.46877 6.23125 2.46877C6.275 2.46877 6.31875 2.48128 6.32812 2.50002C6.3375 2.51565 6.37188 2.53127 6.4 2.53127C6.43125 2.53127 6.475 2.5594 6.5 2.59377C6.525 2.62815 6.5625 2.65627 6.5875 2.65627C6.60938 2.65627 6.6625 2.69065 6.70312 2.73128C6.74688 2.77502 6.82188 2.83127 6.87188 2.86252C6.92188 2.89377 6.98125 2.95315 7.00625 2.9969C7.02813 3.04065 7.08437 3.11565 7.13125 3.16253C7.18125 3.20627 7.21875 3.26565 7.21875 3.29378C7.21875 3.3219 7.23438 3.34377 7.25 3.34377C7.26875 3.34377 7.28125 3.3719 7.28125 3.40627C7.28125 3.44065 7.29688 3.46877 7.3125 3.46877C7.33125 3.46877 7.34375 3.5094 7.34375 3.56252C7.34375 3.61252 7.35938 3.65627 7.375 3.65627C7.39375 3.65627 7.40625 3.67815 7.40625 3.70627C7.40625 3.76253 7.33437 3.84377 7.28438 3.84377C7.26562 3.84377 7.20625 3.8844 7.15 3.93752C7.09688 3.98752 7.04063 4.03127 7.025 4.03127C6.9875 4.03127 6.28125 4.74377 6.28125 4.7844C6.28125 4.80315 6.24062 4.8594 6.1875 4.90627C6.1375 4.95315 6.09375 5.0094 6.09375 5.02815C6.09375 5.05003 6.06563 5.09377 6.03125 5.13128C5.99688 5.16878 5.96875 5.21877 5.96875 5.24065C5.96875 5.26253 5.95625 5.28127 5.9375 5.28127C5.92188 5.28127 5.90625 5.3094 5.90625 5.34377C5.90625 5.37815 5.89375 5.40627 5.875 5.40627C5.85938 5.40627 5.84375 5.4344 5.84375 5.46877C5.84375 5.50315 5.83125 5.53127 5.8125 5.53127C5.79688 5.53127 5.78125 5.5594 5.78125 5.59377C5.78125 5.62815 5.76875 5.65627 5.75 5.65627C5.73438 5.65627 5.71875 5.6844 5.71875 5.71877C5.71875 5.75315 5.70625 5.78127 5.6875 5.78127C5.67188 5.78127 5.65625 5.8094 5.65625 5.84065C5.65625 5.87502 5.64375 5.91253 5.625 5.9219C5.60938 5.93127 5.59375 5.97503 5.59375 6.01878C5.59375 6.0594 5.58125 6.09377 5.5625 6.09377C5.54688 6.09377 5.53125 6.1344 5.53125 6.1844C5.53125 6.23753 5.51875 6.28753 5.5 6.2969C5.48438 6.30627 5.46875 6.36565 5.46875 6.42503C5.46875 6.4844 5.45625 6.53127 5.4375 6.53127C5.42188 6.53127 5.40625 6.60003 5.40625 6.68752C5.40625 6.7719 5.39375 6.84377 5.37813 6.84377C5.3625 6.84377 5.34063 6.98753 5.33125 7.16253C5.32188 7.34065 5.30625 7.56565 5.29375 7.66878C5.28125 7.7844 5.2875 7.86253 5.30938 7.8844C5.32812 7.90315 5.34375 8.02815 5.34375 8.1594C5.34375 8.29378 5.35938 8.41253 5.375 8.4219C5.39375 8.43127 5.40625 8.5094 5.40625 8.59377C5.40625 8.67815 5.42188 8.75628 5.4375 8.76565C5.45625 8.77503 5.46875 8.82503 5.46875 8.87815C5.46875 8.92815 5.48438 8.96877 5.5 8.96877C5.51875 8.96877 5.53125 9.0094 5.53125 9.06252C5.53125 9.11253 5.54688 9.15627 5.5625 9.15627C5.58125 9.15627 5.59375 9.1969 5.59375 9.25002C5.59375 9.30003 5.60938 9.34377 5.625 9.34377C5.64375 9.34377 5.65625 9.3719 5.65625 9.40627C5.65625 9.44065 5.67188 9.46877 5.6875 9.46877C5.70625 9.46877 5.71875 9.5094 5.71875 9.56252C5.71875 9.61253 5.73438 9.65627 5.75 9.65627C5.76875 9.65627 5.78125 9.6844 5.78125 9.71877C5.78125 9.75315 5.79688 9.78127 5.8125 9.78127C5.83125 9.78127 5.84375 9.8094 5.84375 9.84377C5.84375 9.87815 5.85938 9.90627 5.875 9.90627C5.89375 9.90627 5.90625 9.9344 5.90625 9.96877C5.90625 10.0032 5.92188 10.0313 5.9375 10.0313C5.95625 10.0313 5.96875 10.0594 5.96875 10.0938C5.96875 10.1282 5.98438 10.1563 6 10.1563C6.01875 10.1563 6.03125 10.1844 6.03125 10.2188C6.03125 10.2532 6.04688 10.2813 6.0625 10.2813C6.08125 10.2813 6.09375 10.3125 6.09375 10.35C6.09688 10.4657 6.16875 10.5313 6.29375 10.5313C6.35625 10.5313 6.40625 10.5156 6.40625 10.5C6.40625 10.4813 6.43438 10.4688 6.46875 10.4688C6.50313 10.4688 6.53125 10.4531 6.53125 10.4375C6.53125 10.4188 6.55938 10.4063 6.59375 10.4063C6.62813 10.4063 6.65625 10.3906 6.65625 10.375C6.65625 10.3563 6.67812 10.3438 6.70312 10.3438C6.72813 10.3438 6.78125 10.3281 6.82188 10.3063C6.96875 10.2313 7 10.2188 7.04688 10.2188C7.07188 10.2188 7.09375 10.2031 7.09375 10.1875C7.09375 10.1688 7.12188 10.1563 7.15625 10.1563C7.19063 10.1563 7.21875 10.1406 7.21875 10.125C7.21875 10.1063 7.24688 10.0938 7.28125 10.0938C7.31563 10.0938 7.34375 10.0781 7.34375 10.0625C7.34375 10.0438 7.37188 10.0313 7.40625 10.0313C7.44063 10.0313 7.46875 10.0156 7.46875 10C7.46875 9.98128 7.49688 9.96877 7.53125 9.96877C7.56563 9.96877 7.59375 9.95315 7.59375 9.93752C7.59375 9.91878 7.62813 9.90627 7.66875 9.90627C7.7125 9.90627 7.75625 9.89065 7.76562 9.87502C7.775 9.85628 7.8125 9.84377 7.84688 9.84377C7.87813 9.84377 7.90625 9.82815 7.90625 9.81252C7.90625 9.79378 7.93438 9.78127 7.96875 9.78127C8.00313 9.78127 8.03125 9.76565 8.03125 9.75002C8.03125 9.73128 8.05937 9.71877 8.09375 9.71877C8.12813 9.71877 8.15625 9.70315 8.15625 9.68752C8.15625 9.66878 8.18437 9.65627 8.21875 9.65627C8.25313 9.65627 8.28125 9.64065 8.28125 9.62502C8.28125 9.60628 8.30937 9.59377 8.34375 9.59377C8.37813 9.59377 8.40625 9.57815 8.40625 9.56252C8.40625 9.54378 8.43437 9.53127 8.46875 9.53127C8.50313 9.53127 8.53125 9.51565 8.53125 9.50002C8.53125 9.48128 8.56563 9.46877 8.60625 9.46877C8.65 9.46877 8.69375 9.45315 8.70312 9.43752C8.7125 9.41878 8.75 9.40627 8.78438 9.40627C8.81563 9.40627 8.84375 9.39065 8.84375 9.37502C8.84375 9.35628 8.87187 9.34377 8.90625 9.34377C8.94063 9.34377 8.96875 9.32815 8.96875 9.31252C8.96875 9.29378 8.99687 9.28127 9.03125 9.28127C9.06563 9.28127 9.09375 9.26565 9.09375 9.25002C9.09375 9.23128 9.12187 9.21877 9.15625 9.21877C9.19063 9.21877 9.21875 9.20315 9.21875 9.18752C9.21875 9.16878 9.24687 9.15627 9.28125 9.15627C9.31563 9.15627 9.34375 9.14065 9.34375 9.12502C9.34375 9.10628 9.37187 9.09377 9.40625 9.09377C9.44063 9.09377 9.46875 9.07815 9.46875 9.06252C9.46875 9.04378 9.50313 9.03127 9.54375 9.03127C9.5875 9.03127 9.63125 9.01565 9.64062 9.00002C9.65 8.98128 9.6875 8.96877 9.72188 8.96877C9.75313 8.96877 9.78125 8.95315 9.78125 8.93752C9.78125 8.91878 9.80937 8.90627 9.84375 8.90627C9.87813 8.90627 9.90625 8.89065 9.90625 8.87502C9.90625 8.85628 9.93437 8.84377 9.96875 8.84377C10.0031 8.84377 10.0312 8.82815 10.0312 8.81252C10.0312 8.79378 10.0594 8.78127 10.0938 8.78127C10.1281 8.78127 10.1562 8.76565 10.1562 8.75002C10.1562 8.73128 10.1844 8.71877 10.2188 8.71877C10.2531 8.71877 10.2812 8.70315 10.2812 8.68752C10.2812 8.66878 10.3094 8.65627 10.3438 8.65627C10.3781 8.65627 10.4062 8.64065 10.4062 8.62502C10.4062 8.60628 10.4406 8.59377 10.4812 8.59377C10.525 8.59377 10.5688 8.57815 10.5781 8.56252C10.5875 8.54378 10.625 8.53127 10.6594 8.53127C10.6906 8.53127 10.7188 8.51565 10.7188 8.50002C10.7188 8.48128 10.7469 8.46877 10.7812 8.46877C10.8156 8.46877 10.8438 8.45315 10.8438 8.43752C10.8438 8.41878 10.8719 8.40627 10.9062 8.40627C10.9406 8.40627 10.9688 8.39065 10.9688 8.37502C10.9688 8.35628 10.9969 8.34377 11.0312 8.34377C11.0656 8.34377 11.0938 8.32815 11.0938 8.31252C11.0938 8.29378 11.1219 8.28127 11.1562 8.28127C11.1906 8.28127 11.2188 8.26565 11.2188 8.25002C11.2188 8.23128 11.2469 8.21877 11.2812 8.21877C11.3156 8.21877 11.3438 8.20315 11.3438 8.18752C11.3438 8.16878 11.3781 8.15627 11.4187 8.15627C11.4625 8.15627 11.5063 8.14065 11.5156 8.12502C11.525 8.10628 11.5625 8.09377 11.5969 8.09377C11.6281 8.09377 11.6562 8.07815 11.6562 8.06252C11.6562 8.04378 11.6844 8.03127 11.7188 8.03127C11.7531 8.03127 11.7812 8.01565 11.7812 8.00002C11.7812 7.98128 11.8094 7.96877 11.8438 7.96877C11.8781 7.96877 11.9062 7.95315 11.9062 7.93752C11.9062 7.91878 11.9344 7.90627 11.9688 7.90627C12.0031 7.90627 12.0312 7.89065 12.0312 7.87502C12.0312 7.85628 12.0594 7.84377 12.0938 7.84377C12.1281 7.84377 12.1562 7.82815 12.1562 7.81252C12.1562 7.79378 12.1844 7.78127 12.2188 7.78127C12.2531 7.78127 12.2812 7.76565 12.2812 7.75002C12.2812 7.73128 12.3156 7.71877 12.3562 7.71877C12.4 7.71877 12.4438 7.70315 12.4531 7.68752C12.4625 7.66878 12.5 7.65627 12.5344 7.65627C12.5656 7.65627 12.5938 7.64065 12.5938 7.62502C12.5938 7.60628 12.6219 7.59377 12.6562 7.59377C12.6906 7.59377 12.7188 7.57815 12.7188 7.56252C12.7188 7.54378 12.7469 7.53127 12.7812 7.53127C12.8156 7.53127 12.8438 7.51565 12.8438 7.50002C12.8438 7.48128 12.8719 7.46877 12.9062 7.46877C12.9406 7.46877 12.9688 7.45315 12.9688 7.43752C12.9688 7.41878 12.9969 7.40627 13.0312 7.40627C13.0656 7.40627 13.0938 7.39065 13.0938 7.37502C13.0938 7.35628 13.1219 7.34377 13.1562 7.34377C13.1906 7.34377 13.2188 7.32815 13.2188 7.31252C13.2188 7.29378 13.2531 7.28127 13.2937 7.28127C13.3375 7.28127 13.3813 7.26565 13.3906 7.25002C13.4 7.23128 13.4375 7.21877 13.4719 7.21877C13.5031 7.21877 13.5312 7.20315 13.5312 7.18752C13.5312 7.16878 13.5594 7.15627 13.5938 7.15627C13.6281 7.15627 13.6562 7.14065 13.6562 7.12502C13.6562 7.10628 13.6844 7.09377 13.7188 7.09377C13.7531 7.09377 13.7812 7.07815 13.7812 7.06252C13.7812 7.04378 13.8094 7.03127 13.8438 7.03127C13.8781 7.03127 13.9062 7.01565 13.9062 7.00002C13.9062 6.98128 13.9344 6.96877 13.9688 6.96877C14.0031 6.96877 14.0312 6.95315 14.0312 6.93752C14.0312 6.91878 14.0594 6.90627 14.0938 6.90627C14.1281 6.90627 14.1562 6.89065 14.1562 6.87502C14.1562 6.85628 14.1906 6.84377 14.2312 6.84377C14.275 6.84377 14.3188 6.82815 14.3281 6.81252C14.3375 6.79378 14.3688 6.78127 14.3938 6.78127C14.4219 6.78127 14.4625 6.76253 14.4875 6.73753C14.5375 6.6844 14.5469 6.59377 14.5 6.59377C14.4844 6.59377 14.4688 6.56565 14.4688 6.53127C14.4688 6.4969 14.4563 6.46877 14.4375 6.46877C14.4219 6.46877 14.4062 6.44065 14.4062 6.40627C14.4062 6.3719 14.3938 6.34377 14.375 6.34377C14.3594 6.34377 14.3438 6.3094 14.3438 6.26878C14.3438 6.22503 14.3313 6.18127 14.3125 6.1719C14.2969 6.16253 14.2812 6.12502 14.2812 6.09065C14.2812 6.0594 14.2688 6.03127 14.25 6.03127C14.2344 6.03127 14.2188 6.00315 14.2188 5.96877C14.2188 5.9344 14.2063 5.90627 14.1875 5.90627C14.1719 5.90627 14.1562 5.87815 14.1562 5.84377C14.1562 5.8094 14.1438 5.78127 14.125 5.78127C14.1094 5.78127 14.0938 5.75315 14.0938 5.71877C14.0938 5.6844 14.0813 5.65627 14.0625 5.65627C14.0469 5.65627 14.0312 5.62815 14.0312 5.59377C14.0312 5.5594 14.0188 5.53127 14 5.53127C13.9844 5.53127 13.9688 5.50315 13.9688 5.46877C13.9688 5.4344 13.9563 5.40627 13.9375 5.40627C13.9219 5.40627 13.9062 5.38128 13.9062 5.35003C13.9062 5.31878 13.8781 5.27502 13.8438 5.25002C13.8094 5.22503 13.7812 5.18127 13.7812 5.15002C13.7812 5.11877 13.7688 5.09377 13.7563 5.09377C13.7406 5.09377 13.7094 5.05627 13.6844 5.0094C13.6594 4.96252 13.6031 4.88128 13.5563 4.83128C13.5063 4.78127 13.4688 4.72815 13.4688 4.71252C13.4688 4.67503 12.8156 4.03127 12.775 4.03127C12.7594 4.03127 12.7031 3.98752 12.6562 3.93752C12.6094 3.8844 12.55 3.84377 12.525 3.84377C12.5031 3.84377 12.4625 3.81565 12.4375 3.78127C12.4125 3.7469 12.3688 3.71877 12.3375 3.71877C12.3063 3.71877 12.2812 3.70315 12.2812 3.68752C12.2812 3.66878 12.2531 3.65627 12.2188 3.65627C12.1844 3.65627 12.1562 3.64065 12.1562 3.62502C12.1562 3.60628 12.1344 3.59377 12.1094 3.59377C12.0813 3.59377 12.0312 3.56565 11.9938 3.53127C11.9563 3.4969 11.8938 3.46877 11.8531 3.46877C11.8125 3.46877 11.7812 3.45315 11.7812 3.43752C11.7812 3.41878 11.7531 3.40627 11.7188 3.40627C11.6844 3.40627 11.6562 3.39065 11.6562 3.37502C11.6562 3.35628 11.6219 3.34377 11.5813 3.34377C11.5375 3.34377 11.4938 3.32815 11.4844 3.31252C11.475 3.29378 11.425 3.28127 11.3719 3.28127C11.3219 3.28127 11.2812 3.26565 11.2812 3.25002C11.2812 3.23128 11.2406 3.21877 11.1875 3.21877C11.1375 3.21877 11.0938 3.20315 11.0938 3.18752C11.0938 3.16878 11.025 3.15627 10.9375 3.15627C10.8531 3.15627 10.7812 3.14065 10.7812 3.12502C10.7812 3.10628 10.6875 3.09377 10.5625 3.09377C10.4375 3.09377 10.3438 3.08127 10.3438 3.06252C10.3438 3.04378 10.1906 3.03127 9.95 3.03127C9.525 3.03127 9.46875 3.01253 9.46875 2.86252C9.46875 2.81878 9.45625 2.78127 9.4375 2.78127C9.42188 2.78127 9.40625 2.7469 9.40625 2.70627C9.40625 2.66253 9.39375 2.61877 9.375 2.6094C9.35938 2.60003 9.34375 2.56252 9.34375 2.52815C9.34375 2.4969 9.33125 2.46877 9.3125 2.46877C9.29688 2.46877 9.28125 2.44065 9.28125 2.40627C9.28125 2.3719 9.26875 2.34377 9.25 2.34377C9.23438 2.34377 9.21875 2.31878 9.21875 2.28753C9.21875 2.25628 9.19063 2.21252 9.15625 2.18752C9.12187 2.16253 9.09375 2.11877 9.09375 2.08752C9.09375 2.05627 9.08125 2.03127 9.0625 2.03127C9.04688 2.03127 9.03125 2.0094 9.03125 1.98128C9.03125 1.95315 8.99063 1.89065 8.9375 1.84377C8.8875 1.7969 8.84375 1.74065 8.84375 1.71877C8.84375 1.70003 8.7875 1.62815 8.71875 1.56252C8.65 1.4969 8.59375 1.42815 8.59375 1.40627C8.59375 1.38753 8.57188 1.36252 8.54063 1.35315C8.5125 1.34065 8.39375 1.23752 8.275 1.11877C8.15625 1.00315 8.0375 0.906275 8.0125 0.906275C7.9875 0.906275 7.96875 0.89065 7.96875 0.875025C7.96875 0.856276 7.95 0.843775 7.92812 0.843775C7.90625 0.843775 7.85625 0.815649 7.81875 0.781275C7.78125 0.746901 7.73438 0.718775 7.7125 0.718775C7.6875 0.718775 7.65 0.690649 7.625 0.656275C7.6 0.621901 7.55625 0.593775 7.525 0.593775C7.49375 0.593775 7.46875 0.57815 7.46875 0.562525C7.46875 0.543776 7.44063 0.531275 7.40938 0.531275C7.375 0.531275 7.3375 0.51565 7.32812 0.500025C7.31875 0.481276 7.275 0.468775 7.23125 0.468775C7.19063 0.468775 7.15625 0.45315 7.15625 0.437525C7.15625 0.418776 7.12813 0.406275 7.09375 0.406275C7.05938 0.406275 7.03125 0.39065 7.03125 0.375025C7.03125 0.356276 6.99062 0.343775 6.9375 0.343775C6.8875 0.343775 6.84375 0.32815 6.84375 0.312525C6.84375 0.293776 6.7875 0.281275 6.71875 0.281275C6.65 0.281275 6.59375 0.26565 6.59375 0.250025C6.59375 0.231276 6.5375 0.218775 6.46875 0.218775C6.4 0.218775 6.34375 0.20315 6.34375 0.187525C6.34375 0.168776 6.21875 0.156275 6.03125 0.156275C5.84375 0.156275 5.71875 0.143774 5.71875 0.125025C5.71875 0.106276 5.6375 0.0937748 5.53438 0.0937748C5.43125 0.0937748 5.3375 0.106276 5.32812 0.125025ZM10.3594 5.31252C10.3688 5.32815 10.4281 5.34377 10.4875 5.34377C10.5469 5.34377 10.5938 5.35628 10.5938 5.37502C10.5938 5.39065 10.6375 5.40627 10.6875 5.40627C10.7406 5.40627 10.7812 5.41878 10.7812 5.43752C10.7812 5.45315 10.8094 5.46877 10.8438 5.46877C10.8781 5.46877 10.9062 5.48128 10.9062 5.50002C10.9062 5.51565 10.9344 5.53127 10.9688 5.53127C11.0031 5.53127 11.0312 5.54378 11.0312 5.56252C11.0312 5.57815 11.0531 5.59377 11.0781 5.59377C11.125 5.59377 11.2812 5.72503 11.2812 5.76565C11.2812 5.77502 11.2531 5.78127 11.2188 5.78127C11.1844 5.78127 11.1562 5.79378 11.1562 5.81252C11.1562 5.82815 11.1281 5.84377 11.0938 5.84377C11.0594 5.84377 11.0312 5.85628 11.0312 5.87502C11.0312 5.89065 11.0031 5.90627 10.9688 5.90627C10.9344 5.90627 10.9062 5.91878 10.9062 5.93752C10.9062 5.95315 10.8781 5.96877 10.8438 5.96877C10.8094 5.96877 10.7812 5.98128 10.7812 6.00002C10.7812 6.01565 10.7469 6.03127 10.7063 6.03127C10.6625 6.03127 10.6188 6.04378 10.6094 6.06252C10.6 6.07815 10.5625 6.09377 10.5281 6.09377C10.4969 6.09377 10.4688 6.10628 10.4688 6.12502C10.4688 6.14065 10.4406 6.15627 10.4062 6.15627C10.3719 6.15627 10.3438 6.16878 10.3438 6.18752C10.3438 6.20315 10.3156 6.21877 10.2812 6.21877C10.2469 6.21877 10.2188 6.23128 10.2188 6.25002C10.2188 6.26565 10.1906 6.28127 10.1562 6.28127C10.1219 6.28127 10.0938 6.29378 10.0938 6.31252C10.0938 6.32815 10.0656 6.34377 10.0312 6.34377C9.99687 6.34377 9.96875 6.35628 9.96875 6.37502C9.96875 6.39065 9.94688 6.40627 9.92188 6.40627C9.89688 6.40627 9.84688 6.41878 9.8125 6.43752C9.77812 6.45315 9.72188 6.48128 9.6875 6.50002C9.65312 6.51565 9.60313 6.53127 9.57812 6.53127C9.55313 6.53127 9.53125 6.54378 9.53125 6.56252C9.53125 6.57815 9.50313 6.59377 9.46875 6.59377C9.43437 6.59377 9.40625 6.60628 9.40625 6.62502C9.40625 6.64065 9.37813 6.65627 9.34375 6.65627C9.30937 6.65627 9.28125 6.66878 9.28125 6.68752C9.28125 6.70315 9.25313 6.71877 9.21875 6.71877C9.18437 6.71877 9.15625 6.73128 9.15625 6.75002C9.15625 6.76565 9.12813 6.78127 9.09375 6.78127C9.05937 6.78127 9.03125 6.79378 9.03125 6.81252C9.03125 6.82815 9.00938 6.84377 8.98438 6.84377C8.9375 6.84377 8.90625 6.85628 8.75938 6.93127C8.71875 6.95315 8.66563 6.96877 8.64062 6.96877C8.61563 6.96877 8.59375 6.98128 8.59375 7.00002C8.59375 7.01565 8.56563 7.03127 8.53125 7.03127C8.49687 7.03127 8.46875 7.04378 8.46875 7.06252C8.46875 7.07815 8.44063 7.09377 8.40625 7.09377C8.37187 7.09377 8.34375 7.10628 8.34375 7.12502C8.34375 7.14065 8.31563 7.15627 8.28125 7.15627C8.24687 7.15627 8.21875 7.16878 8.21875 7.18752C8.21875 7.20315 8.19063 7.21877 8.15625 7.21877C8.12187 7.21877 8.09375 7.23128 8.09375 7.25002C8.09375 7.26565 8.07188 7.28127 8.04688 7.28127C8.02188 7.28127 7.96875 7.2969 7.92812 7.31878C7.78125 7.39378 7.75 7.40627 7.70312 7.40627C7.67812 7.40627 7.65625 7.41878 7.65625 7.43752C7.65625 7.45315 7.62813 7.46877 7.59375 7.46877C7.54063 7.46877 7.53125 7.4469 7.53125 7.34377C7.53125 7.27502 7.54688 7.21877 7.5625 7.21877C7.58125 7.21877 7.59375 7.17815 7.59375 7.12815C7.59375 7.07503 7.60938 7.02502 7.625 7.01565C7.64375 7.00628 7.65625 6.95628 7.65625 6.90627C7.65625 6.85628 7.67188 6.80627 7.6875 6.7969C7.70625 6.78753 7.71875 6.75002 7.71875 6.71565C7.71875 6.6844 7.73438 6.65627 7.75 6.65627C7.76875 6.65627 7.78125 6.62815 7.78125 6.59377C7.78125 6.5594 7.79688 6.53127 7.8125 6.53127C7.83125 6.53127 7.84375 6.5094 7.84375 6.4844C7.84375 6.4594 7.8875 6.39378 7.9375 6.33752C7.99062 6.2844 8.03125 6.22815 8.03125 6.21252C8.03125 6.1719 8.475 5.74065 8.57188 5.69065C8.61875 5.66565 8.65625 5.6344 8.65625 5.61877C8.65625 5.60628 8.68437 5.59377 8.71875 5.59377C8.75313 5.59377 8.78125 5.57815 8.78125 5.56252C8.78125 5.54378 8.80937 5.53127 8.84375 5.53127C8.87813 5.53127 8.90625 5.51565 8.90625 5.50002C8.90625 5.48128 8.93437 5.46877 8.96875 5.46877C9.00313 5.46877 9.03125 5.45315 9.03125 5.43752C9.03125 5.41878 9.075 5.40627 9.125 5.40627C9.17813 5.40627 9.21875 5.39065 9.21875 5.37502C9.21875 5.35628 9.2625 5.34377 9.3125 5.34377C9.36563 5.34377 9.40625 5.32815 9.40625 5.31252C9.40625 5.29378 9.58125 5.28127 9.87187 5.28127C10.15 5.28127 10.3469 5.29378 10.3594 5.31252ZM28.3438 18.8438C28.3438 18.8782 28.3313 18.9063 28.3125 18.9063C28.2938 18.9063 28.2812 19.0313 28.2812 19.2188C28.2812 19.4063 28.2688 19.5313 28.25 19.5313C28.2313 19.5313 28.2188 19.6344 28.2188 19.7782C28.2188 19.9157 28.2031 20.0375 28.1875 20.0469C28.1688 20.0563 28.1562 20.1438 28.1562 20.2375C28.1562 20.3313 28.1438 20.4063 28.125 20.4063C28.1094 20.4063 28.0938 20.475 28.0938 20.5625C28.0938 20.6469 28.0813 20.7188 28.0625 20.7188C28.0469 20.7188 28.0312 20.775 28.0312 20.8438C28.0312 20.9125 28.0188 20.9688 28 20.9688C27.9844 20.9688 27.9688 21.025 27.9688 21.0938C27.9688 21.1625 27.9563 21.2188 27.9375 21.2188C27.9219 21.2188 27.9062 21.2594 27.9062 21.3125C27.9062 21.3625 27.8938 21.4063 27.875 21.4063C27.8594 21.4063 27.8438 21.45 27.8438 21.5C27.8438 21.5532 27.8313 21.6219 27.8125 21.6563C27.7969 21.6907 27.7688 21.7469 27.75 21.7813C27.7344 21.8157 27.7188 21.8719 27.7188 21.9063C27.7188 21.9407 27.7063 21.9688 27.6875 21.9688C27.6719 21.9688 27.6562 22.0094 27.6562 22.0625C27.6562 22.1125 27.6438 22.1563 27.625 22.1563C27.6094 22.1563 27.5938 22.1844 27.5938 22.2188C27.5938 22.2532 27.5813 22.2813 27.5625 22.2813C27.5469 22.2813 27.5312 22.3094 27.5312 22.3438C27.5312 22.3782 27.5188 22.4063 27.5 22.4063C27.4844 22.4063 27.4688 22.4407 27.4688 22.4813C27.4688 22.525 27.4563 22.5688 27.4375 22.5782C27.4219 22.5875 27.4062 22.625 27.4062 22.6563C27.4062 22.6875 27.3969 22.7188 27.3844 22.725C27.3531 22.7375 27.2531 22.9032 27.2281 22.975C27.2188 23.0063 27.2 23.0313 27.1844 23.0313C27.1688 23.0313 27.1562 23.0594 27.1562 23.0938C27.1562 23.1282 27.1438 23.1563 27.125 23.1563C27.1094 23.1563 27.0938 23.1813 27.0938 23.2125C27.0938 23.2438 27.0656 23.2875 27.0312 23.3125C26.9969 23.3375 26.9688 23.3782 26.9688 23.4063C26.9688 23.4344 26.9406 23.475 26.9062 23.5C26.8719 23.525 26.8438 23.5657 26.8438 23.5875C26.8438 23.6125 26.8 23.6719 26.75 23.7188C26.7 23.7657 26.6562 23.8219 26.6562 23.8407C26.6562 23.8875 25.7 24.8438 25.6531 24.8438C25.6344 24.8438 25.5781 24.8844 25.5312 24.9375C25.4844 24.9907 25.425 25.0313 25.4 25.0313C25.3781 25.0313 25.3375 25.0594 25.3125 25.0938C25.2875 25.1282 25.2469 25.1563 25.2188 25.1563C25.1906 25.1563 25.15 25.1844 25.125 25.2188C25.1 25.2532 25.0562 25.2813 25.025 25.2813C24.9937 25.2813 24.9688 25.2938 24.9688 25.3094C24.9688 25.325 24.9438 25.3438 24.9156 25.3532C24.8406 25.3782 24.675 25.4782 24.6625 25.5063C24.6562 25.5219 24.625 25.5313 24.5906 25.5313C24.5594 25.5313 24.5312 25.5438 24.5312 25.5625C24.5312 25.5782 24.5031 25.5938 24.4688 25.5938C24.4344 25.5938 24.4062 25.6063 24.4062 25.625C24.4062 25.6407 24.3656 25.6563 24.3125 25.6563C24.2625 25.6563 24.2188 25.6688 24.2188 25.6875C24.2188 25.7032 24.1906 25.7188 24.1562 25.7188C24.1219 25.7188 24.0938 25.7313 24.0938 25.75C24.0938 25.7657 24.0656 25.7813 24.0312 25.7813C23.9969 25.7813 23.9688 25.7938 23.9688 25.8125C23.9688 25.8282 23.9281 25.8438 23.875 25.8438C23.825 25.8438 23.7812 25.8563 23.7812 25.875C23.7812 25.8907 23.7406 25.9063 23.6875 25.9063C23.6375 25.9063 23.5938 25.9188 23.5938 25.9375C23.5938 25.9532 23.5531 25.9688 23.5 25.9688C23.45 25.9688 23.4062 25.9813 23.4062 26C23.4062 26.0157 23.3594 26.0313 23.3 26.0313C23.2406 26.0313 23.1812 26.0438 23.1719 26.0625C23.1625 26.0782 23.1125 26.0938 23.0594 26.0938C23.0094 26.0938 22.9688 26.1063 22.9688 26.125C22.9688 26.1407 22.9062 26.1563 22.8313 26.1563C22.7531 26.1563 22.6812 26.1688 22.6719 26.1875C22.6625 26.2032 22.5906 26.2188 22.5156 26.2188C22.4406 26.2188 22.3687 26.2313 22.3594 26.25C22.35 26.2657 22.25 26.2813 22.1406 26.2813C22.0312 26.2813 21.9312 26.2969 21.9219 26.3125C21.9125 26.3313 21.8062 26.3438 21.6844 26.3438C21.5625 26.3438 21.4688 26.3563 21.4688 26.375C21.4688 26.3938 21.2563 26.4063 20.8938 26.4063C20.5406 26.4063 20.3094 26.4188 20.2969 26.4375C20.2688 26.4813 11.7312 26.4813 11.7031 26.4375C11.6906 26.4188 11.4594 26.4063 11.1062 26.4063C10.7438 26.4063 10.5312 26.3938 10.5312 26.375C10.5312 26.3563 10.4375 26.3438 10.3156 26.3438C10.1938 26.3438 10.0875 26.3282 10.0781 26.3125C10.0688 26.2938 9.96875 26.2813 9.85938 26.2813C9.75 26.2813 9.65 26.2688 9.64062 26.25C9.63125 26.2344 9.55937 26.2188 9.48438 26.2188C9.40938 26.2188 9.3375 26.2032 9.32812 26.1875C9.31875 26.1719 9.24687 26.1563 9.16875 26.1563C9.09375 26.1563 9.03125 26.1407 9.03125 26.125C9.03125 26.1063 8.99063 26.0938 8.94063 26.0938C8.8875 26.0938 8.8375 26.0782 8.82812 26.0625C8.81875 26.0438 8.75938 26.0313 8.7 26.0313C8.64062 26.0313 8.59375 26.0157 8.59375 26C8.59375 25.9813 8.55313 25.9688 8.5 25.9688C8.45 25.9688 8.40625 25.9532 8.40625 25.9375C8.40625 25.9188 8.36563 25.9063 8.3125 25.9063C8.2625 25.9063 8.21875 25.8907 8.21875 25.875C8.21875 25.8563 8.17813 25.8438 8.125 25.8438C8.075 25.8438 8.03125 25.8282 8.03125 25.8125C8.03125 25.7938 8.00313 25.7813 7.96875 25.7813C7.93438 25.7813 7.90625 25.7657 7.90625 25.75C7.90625 25.7313 7.87813 25.7188 7.84375 25.7188C7.80938 25.7188 7.78125 25.7032 7.78125 25.6875C7.78125 25.6688 7.74062 25.6563 7.6875 25.6563C7.6375 25.6563 7.59375 25.6407 7.59375 25.625C7.59375 25.6063 7.56563 25.5938 7.53125 25.5938C7.49688 25.5938 7.46875 25.5782 7.46875 25.5625C7.46875 25.5438 7.44063 25.5313 7.40625 25.5313C7.37188 25.5313 7.34375 25.5188 7.34375 25.5032C7.34375 25.4875 7.31875 25.4688 7.29063 25.4594C7.21563 25.4344 7.05 25.3344 7.0375 25.3032C7.03125 25.2907 7.00313 25.2813 6.97188 25.2813C6.94375 25.2813 6.9 25.2532 6.875 25.2188C6.85 25.1844 6.80938 25.1563 6.78125 25.1563C6.75313 25.1563 6.7125 25.1282 6.6875 25.0938C6.6625 25.0594 6.62188 25.0313 6.6 25.0313C6.575 25.0313 6.51562 24.9875 6.46875 24.9375C6.42188 24.8844 6.36562 24.8438 6.34688 24.8438C6.3 24.8438 5.34375 23.8875 5.34375 23.8407C5.34375 23.8219 5.3 23.7657 5.25 23.7188C5.19688 23.6719 5.15625 23.6125 5.15625 23.5875C5.15625 23.5657 5.12813 23.525 5.09375 23.5C5.05938 23.475 5.03125 23.4344 5.03125 23.4063C5.03125 23.3782 5.00313 23.3375 4.96875 23.3125C4.93438 23.2875 4.90625 23.2438 4.90625 23.2125C4.90625 23.1813 4.89375 23.1563 4.875 23.1563C4.85938 23.1563 4.84375 23.1282 4.84375 23.0938C4.84375 23.0594 4.83125 23.0313 4.81563 23.0313C4.8 23.0313 4.78125 23.0063 4.77187 22.975C4.74688 22.9032 4.64687 22.7375 4.61875 22.725C4.60313 22.7188 4.59375 22.6875 4.59375 22.6563C4.59375 22.625 4.58125 22.5875 4.5625 22.5782C4.54688 22.5688 4.53125 22.525 4.53125 22.4813C4.53125 22.4407 4.51875 22.4063 4.5 22.4063C4.48438 22.4063 4.46875 22.3782 4.46875 22.3438C4.46875 22.3094 4.45625 22.2813 4.4375 22.2813C4.42188 22.2813 4.40625 22.2532 4.40625 22.2188C4.40625 22.1844 4.39375 22.1563 4.375 22.1563C4.35938 22.1563 4.34375 22.1125 4.34375 22.0625C4.34375 22.0094 4.33125 21.9688 4.3125 21.9688C4.29688 21.9688 4.28125 21.9407 4.28125 21.9063C4.28125 21.8719 4.26875 21.8157 4.25 21.7813C4.23438 21.7469 4.20625 21.6907 4.1875 21.6563C4.17188 21.6219 4.15625 21.5532 4.15625 21.5C4.15625 21.45 4.14375 21.4063 4.125 21.4063C4.10938 21.4063 4.09375 21.3625 4.09375 21.3125C4.09375 21.2594 4.08125 21.2188 4.0625 21.2188C4.04688 21.2188 4.03125 21.1625 4.03125 21.0938C4.03125 21.025 4.01875 20.9688 4 20.9688C3.98438 20.9688 3.96875 20.9125 3.96875 20.8438C3.96875 20.775 3.95625 20.7188 3.9375 20.7188C3.92188 20.7188 3.90625 20.6469 3.90625 20.5625C3.90625 20.475 3.89375 20.4063 3.875 20.4063C3.85938 20.4063 3.84375 20.3313 3.84375 20.2375C3.84375 20.1438 3.83125 20.0563 3.8125 20.0469C3.79688 20.0375 3.78125 19.9157 3.78125 19.7782C3.78125 19.6344 3.76875 19.5313 3.75 19.5313C3.73125 19.5313 3.71875 19.4063 3.71875 19.2188C3.71875 19.0313 3.70625 18.9063 3.6875 18.9063C3.67188 18.9063 3.65625 18.8782 3.65625 18.8438C3.65625 18.7813 3.67813 18.7813 16 18.7813C28.3219 18.7813 28.3438 18.7813 28.3438 18.8438Z" fill="white"/>
</g>
<defs>
<clipPath id="clip0_60_3367">
<rect width="32" height="32" fill="white"/>
</clipPath>
</defs>
</svg>
