<svg width="32" height="32" viewBox="0 0 32 32" fill="none" xmlns="http://www.w3.org/2000/svg">
<g clip-path="url(#clip0_1041_279)">
<path d="M0 13.6875C1.87112 13.6875 3.18876 13.7335 4.875 14.25C7.27909 14.9791 9.49829 15.0519 11.9003 14.3007C12.1726 14.2156 12.4453 14.1322 12.7188 14.0508C12.766 14.0359 12.8133 14.0211 12.862 14.0058C13.8277 13.7207 14.8243 13.6562 15.8256 13.6631C15.9999 13.6641 16.1742 13.6631 16.3486 13.6619C17.3363 13.6607 18.3194 13.7483 19.2656 14.0469C19.3184 14.0626 19.3711 14.0783 19.4254 14.0946C19.5964 14.1456 19.7669 14.1978 19.9375 14.25C22.3416 14.9791 24.5608 15.0519 26.9628 14.3007C28.7111 13.7541 30.0579 13.6875 32 13.6875C32 19.7306 32 25.7738 32 32C21.44 32 10.88 32 0 32C0 25.9569 0 19.9138 0 13.6875ZM15.332 15.5781C15.2899 15.5798 15.2478 15.5814 15.2044 15.5831C14.3292 15.6349 13.4942 15.833 12.6647 16.1063C9.82782 17.0315 6.96326 16.9926 4.13487 16.0608C3.40159 15.8218 2.65118 15.625 1.875 15.625C1.875 16.2438 1.875 16.8625 1.875 17.5C2.1225 17.5322 2.37 17.5645 2.625 17.5977C3.40347 17.7075 4.13553 17.8948 4.88388 18.1314C7.26332 18.879 9.52125 18.9197 11.9003 18.1757C12.1726 18.0906 12.4453 18.0072 12.7188 17.9258C12.7897 17.9035 12.7897 17.9035 12.862 17.8808C13.8277 17.5957 14.8243 17.5312 15.8256 17.5381C15.9999 17.5391 16.1742 17.5381 16.3486 17.5369C17.3363 17.5357 18.3194 17.6233 19.2656 17.9219C19.3184 17.9376 19.3711 17.9533 19.4254 17.9696C19.5964 18.0206 19.7669 18.0728 19.9375 18.125C22.4894 18.8989 24.751 18.8808 27.2812 18.0753C28.221 17.7784 29.147 17.6304 30.125 17.5C30.125 16.8813 30.125 16.2625 30.125 15.625C29.4701 15.6689 29.4701 15.6689 28.8438 15.7813C28.8011 15.7915 28.7584 15.8016 28.7145 15.8121C28.3394 15.906 27.973 16.0247 27.6052 16.1436C24.8082 17.0417 21.9774 16.9767 19.1974 16.0608C18.3504 15.7846 17.4906 15.6081 16.5977 15.5781C16.5162 15.575 16.5162 15.575 16.433 15.5717C16.0655 15.5601 15.6994 15.562 15.332 15.5781ZM15.332 19.3906C15.2899 19.3923 15.2478 19.3939 15.2044 19.3956C14.3292 19.4474 13.4942 19.6455 12.6647 19.9188C9.82782 20.844 6.96326 20.8051 4.13487 19.8733C3.40159 19.6343 2.65118 19.4375 1.875 19.4375C1.875 20.0563 1.875 20.675 1.875 21.3125C2.1225 21.3447 2.37 21.377 2.625 21.4102C3.40347 21.52 4.13553 21.7073 4.88388 21.9439C7.26332 22.6915 9.52125 22.7322 11.9003 21.9882C12.1726 21.9031 12.4453 21.8197 12.7188 21.7383C12.7897 21.716 12.7897 21.716 12.862 21.6933C13.8277 21.4082 14.8243 21.3437 15.8256 21.3506C15.9999 21.3516 16.1742 21.3506 16.3486 21.3494C17.3363 21.3482 18.3194 21.4358 19.2656 21.7344C19.3184 21.7501 19.3711 21.7658 19.4254 21.7821C19.5964 21.8331 19.7669 21.8853 19.9375 21.9375C22.4894 22.7114 24.751 22.6933 27.2812 21.8878C28.221 21.5909 29.147 21.4429 30.125 21.3125C30.125 20.6938 30.125 20.075 30.125 19.4375C29.4701 19.4814 29.4701 19.4814 28.8438 19.5938C28.8011 19.604 28.7584 19.6141 28.7145 19.6246C28.3394 19.7185 27.973 19.8372 27.6052 19.9561C24.8082 20.8542 21.9774 20.7892 19.1974 19.8733C18.3504 19.5971 17.4906 19.4206 16.5977 19.3906C16.5162 19.3875 16.5162 19.3875 16.433 19.3842C16.0655 19.3726 15.6994 19.3745 15.332 19.3906ZM15.332 23.2031C15.2899 23.2048 15.2478 23.2064 15.2044 23.2081C14.3292 23.2599 13.4942 23.458 12.6647 23.7313C9.82782 24.6565 6.96326 24.6176 4.13487 23.6858C3.40159 23.4468 2.65118 23.25 1.875 23.25C1.875 23.8688 1.875 24.4875 1.875 25.125C2.1225 25.1572 2.37 25.1895 2.625 25.2227C3.40347 25.3325 4.13553 25.5198 4.88388 25.7564C7.26332 26.504 9.52125 26.5447 11.9003 25.8007C12.1726 25.7156 12.4453 25.6322 12.7188 25.5508C12.7897 25.5285 12.7897 25.5285 12.862 25.5058C13.8277 25.2207 14.8243 25.1562 15.8256 25.1631C15.9999 25.1641 16.1742 25.1631 16.3486 25.1619C17.3363 25.1607 18.3194 25.2483 19.2656 25.5469C19.3184 25.5626 19.3711 25.5783 19.4254 25.5946C19.5964 25.6456 19.7669 25.6978 19.9375 25.75C22.4894 26.5239 24.751 26.5058 27.2812 25.7003C28.221 25.4034 29.147 25.2554 30.125 25.125C30.125 24.5063 30.125 23.8875 30.125 23.25C29.4701 23.2939 29.4701 23.2939 28.8438 23.4063C28.8011 23.4165 28.7584 23.4266 28.7145 23.4371C28.3394 23.531 27.973 23.6497 27.6052 23.7686C24.8082 24.6667 21.9774 24.6017 19.1974 23.6858C18.3504 23.4096 17.4906 23.2331 16.5977 23.2031C16.5162 23.2 16.5162 23.2 16.433 23.1967C16.0655 23.1851 15.6994 23.187 15.332 23.2031ZM15.332 27.0156C15.2899 27.0173 15.2478 27.0189 15.2044 27.0206C14.3292 27.0724 13.4942 27.2705 12.6647 27.5438C9.82782 28.469 6.96326 28.4301 4.13487 27.4983C3.40159 27.2593 2.65118 27.0625 1.875 27.0625C1.875 28.0731 1.875 29.0838 1.875 30.125C11.1975 30.125 20.52 30.125 30.125 30.125C30.125 29.1144 30.125 28.1038 30.125 27.0625C29.4701 27.1064 29.4701 27.1064 28.8438 27.2188C28.8011 27.229 28.7584 27.2391 28.7145 27.2496C28.3394 27.3435 27.973 27.4622 27.6052 27.5811C24.8082 28.4792 21.9774 28.4142 19.1974 27.4983C18.3504 27.2221 17.4906 27.0456 16.5977 27.0156C16.5162 27.0125 16.5162 27.0125 16.433 27.0092C16.0655 26.9976 15.6994 26.9995 15.332 27.0156Z" fill="white"/>
<path d="M30.7862 0.415392C31.3783 0.849712 31.8456 1.45564 32 2.18761C32.0811 3.06307 32.0102 3.83112 31.4766 4.5587C31.0235 5.0904 30.4023 5.57052 29.6823 5.63716C28.7732 5.67008 28.0295 5.60281 27.3076 4.98766C26.7995 4.51151 26.3838 3.88332 26.3579 3.16832C26.3319 2.24018 26.4691 1.51259 27.125 0.812609C28.0637 -0.179327 29.6555 -0.305843 30.7862 0.415392ZM28.3828 2.32042C28.2772 2.59033 28.2713 2.83928 28.3125 3.12511C28.4477 3.40049 28.5873 3.57503 28.875 3.68761C29.1902 3.73038 29.427 3.72348 29.7149 3.58214C29.9248 3.39268 30.0434 3.26627 30.0823 2.97936C30.0989 2.62201 30.0606 2.39995 29.8125 2.12511C29.5727 1.9135 29.3354 1.90555 29.0274 1.91564C28.736 1.95767 28.5718 2.10629 28.3828 2.32042Z" fill="white"/>
<path d="M0 5.625C0.873768 5.625 0.873768 5.625 1.25781 5.75781C1.32145 5.77899 1.32145 5.77899 1.38638 5.8006C1.98078 6.00736 2.41399 6.32411 2.86084 6.76514C3.00315 6.90082 3.00315 6.90082 3.25 6.875C3.34676 6.79676 3.34676 6.79676 3.43359 6.6875C3.98282 6.11268 4.72697 5.77402 5.5 5.625C5.7475 5.625 5.995 5.625 6.25 5.625C6.25 6.26437 6.25 6.90375 6.25 7.5625C5.90969 7.62438 5.90969 7.62438 5.5625 7.6875C4.99103 7.92281 4.59656 8.25997 4.3125 8.8125C4.18565 9.11693 4.16808 9.34289 4.125 9.6875C3.465 9.6875 2.805 9.6875 2.125 9.6875C2.08375 9.46062 2.0425 9.23375 2 9C1.76922 8.42733 1.431 8.028 0.875977 7.75049C0.592735 7.65583 0.293823 7.61592 0 7.5625C0 6.92313 0 6.28375 0 5.625Z" fill="white"/>
<path d="M8.5 0C9.37377 0 9.37377 0 9.75781 0.132812C9.82145 0.153991 9.82145 0.153991 9.88638 0.175598C10.4808 0.382358 10.914 0.699106 11.3608 1.14014C11.5032 1.27582 11.5032 1.27582 11.75 1.25C11.8468 1.17176 11.8468 1.17176 11.9336 1.0625C12.4828 0.487678 13.227 0.149018 14 0C14.2475 0 14.495 0 14.75 0C14.75 0.639375 14.75 1.27875 14.75 1.9375C14.4097 1.99938 14.4097 1.99938 14.0625 2.0625C13.491 2.29781 13.0966 2.63497 12.8125 3.1875C12.6857 3.49193 12.6681 3.71789 12.625 4.0625C11.965 4.0625 11.305 4.0625 10.625 4.0625C10.5837 3.83562 10.5425 3.60875 10.5 3.375C10.2692 2.80233 9.931 2.403 9.37598 2.12549C9.09273 2.03083 8.79382 1.99092 8.5 1.9375C8.5 1.29813 8.5 0.65875 8.5 0Z" fill="white"/>
</g>
<defs>
<clipPath id="clip0_1041_279">
<rect width="32" height="32" fill="white"/>
</clipPath>
</defs>
</svg>
