<svg width="32" height="32" viewBox="0 0 32 32" fill="none" xmlns="http://www.w3.org/2000/svg">
<path d="M7.68735 3.80421C7.76123 3.80407 7.83511 3.80393 7.91122 3.80378C8.11492 3.80345 8.31861 3.80341 8.5223 3.80348C8.74253 3.80349 8.96276 3.80315 9.18299 3.80285C9.61397 3.80233 10.0449 3.80216 10.4759 3.80212C10.8265 3.8021 11.177 3.80197 11.5276 3.80177C12.5228 3.80122 13.5181 3.80093 14.5133 3.80098C14.5669 3.80098 14.6205 3.80098 14.6757 3.80098C14.7294 3.80099 14.783 3.80099 14.8383 3.80099C15.7074 3.80102 16.5765 3.80042 17.4457 3.79954C18.3394 3.79864 19.2331 3.79821 20.1268 3.79826C20.6281 3.79828 21.1293 3.79811 21.6305 3.79744C22.0573 3.79687 22.4842 3.79674 22.911 3.79716C23.1284 3.79736 23.3459 3.79737 23.5633 3.79682C25.2804 3.7933 26.7538 3.91691 28.125 5.06257C28.1667 5.09511 28.2083 5.12766 28.2512 5.1612C28.7764 5.58797 29.1472 6.13946 29.457 6.73444C29.4766 6.77081 29.4962 6.80718 29.5164 6.84465C30.0152 7.8521 29.9717 8.92256 29.9628 10.0174C29.9613 10.2459 29.9611 10.4745 29.9608 10.703C29.9601 11.1342 29.958 11.5653 29.9555 11.9965C29.9527 12.488 29.9513 12.9796 29.9501 13.4711C29.9475 14.4808 29.9429 15.4904 29.9375 16.5001C30.6181 16.5001 31.2987 16.5001 32 16.5001C32 19.5526 32 22.6051 32 25.7501C31.2162 25.7501 30.4325 25.7501 29.625 25.7501C29.625 26.5544 29.625 27.3588 29.625 28.1876C28.9856 28.1876 28.3463 28.1876 27.6875 28.1876C27.6875 27.3832 27.6875 26.5788 27.6875 25.7501C19.9738 25.7501 12.26 25.7501 4.3125 25.7501C4.3125 26.5544 4.3125 27.3588 4.3125 28.1876C3.67313 28.1876 3.03375 28.1876 2.375 28.1876C2.375 27.3832 2.375 26.5788 2.375 25.7501C1.59125 25.7501 0.8075 25.7501 0 25.7501C0 22.6976 0 19.6451 0 16.5001C0.680625 16.5001 1.36125 16.5001 2.0625 16.5001C2.06054 16.133 2.06054 16.133 2.05853 15.7586C2.05438 14.9474 2.05161 14.1361 2.04955 13.3249C2.04826 12.8333 2.04651 12.3418 2.04364 11.8503C2.04113 11.4214 2.03953 10.9926 2.03898 10.5637C2.03865 10.337 2.03791 10.1103 2.03607 9.88366C2.0191 7.70626 2.0191 7.70626 2.55078 6.72272C2.5831 6.66067 2.5831 6.66067 2.61607 6.59736C2.79401 6.26473 3.00149 5.97157 3.25 5.68757C3.28239 5.64632 3.31478 5.60507 3.34814 5.56257C4.17213 4.54353 5.49266 3.96262 6.77413 3.82551C7.07828 3.80141 7.38241 3.80378 7.68735 3.80421ZM4.6875 7.00983C3.87139 7.98071 3.91797 9.20602 3.92969 10.4024C3.93032 10.5156 3.93089 10.6287 3.9314 10.7419C3.93275 11.0155 3.9349 11.289 3.9375 11.5626C3.96961 11.5378 4.00171 11.513 4.03479 11.4874C5.21775 10.5848 6.41514 10.524 7.84961 10.5294C8.00973 10.5292 8.16986 10.529 8.32998 10.5286C8.66407 10.5283 8.99815 10.5288 9.33224 10.53C9.71568 10.5313 10.0991 10.5309 10.4825 10.5295C10.855 10.5282 11.2275 10.5284 11.6 10.5291C11.7569 10.5293 11.9137 10.5291 12.0706 10.5285C13.4687 10.5244 14.5728 10.6418 15.6755 11.5792C15.8009 11.6784 15.9171 11.7477 16.0625 11.8126C16.1104 11.766 16.1104 11.766 16.1592 11.7186C17.0403 10.8952 18.0085 10.5546 19.198 10.5515C19.2677 10.5511 19.3375 10.5507 19.4094 10.5503C19.64 10.549 19.8705 10.5483 20.1011 10.5477C20.1802 10.5474 20.2592 10.5472 20.3407 10.5469C20.7165 10.5457 21.0924 10.5448 21.4682 10.5443C21.8994 10.5437 22.3305 10.5421 22.7617 10.5395C23.1372 10.5374 23.5126 10.5367 23.8881 10.5364C24.0468 10.5361 24.2054 10.5354 24.364 10.5342C25.788 10.5244 26.9045 10.6679 28.0625 11.5626C28.0656 11.2326 28.0679 10.9026 28.0694 10.5727C28.07 10.4608 28.0708 10.349 28.0719 10.2372C28.0838 8.99559 28.058 7.85132 27.1875 6.87507C27.1549 6.83664 27.1222 6.79821 27.0886 6.75861C26.5317 6.14747 25.7485 5.82956 24.9375 5.75007C24.6957 5.7409 24.4541 5.74109 24.2122 5.74129C24.1394 5.7411 24.0667 5.74092 23.9917 5.74073C23.7906 5.74028 23.5895 5.74011 23.3883 5.74006C23.1711 5.73995 22.9538 5.73947 22.7366 5.73905C22.2619 5.73821 21.7872 5.73783 21.3125 5.73755C21.0158 5.73738 20.719 5.73712 20.4223 5.73683C19.5999 5.73607 18.7775 5.73543 17.9551 5.73522C17.9025 5.7352 17.8499 5.73519 17.7957 5.73518C17.743 5.73516 17.6903 5.73515 17.636 5.73513C17.5292 5.73511 17.4223 5.73508 17.3155 5.73505C17.2361 5.73503 17.2361 5.73503 17.155 5.73501C16.2972 5.73476 15.4394 5.73367 14.5816 5.73222C13.6997 5.73073 12.8179 5.72995 11.936 5.72988C11.4413 5.72983 10.9467 5.72947 10.452 5.72833C10.0307 5.72736 9.60934 5.72705 9.18799 5.72756C8.97332 5.72781 8.75867 5.72776 8.544 5.72687C6.99724 5.72159 5.7964 5.8143 4.6875 7.00983ZM5 13.2501C4.34601 14.2769 4.625 15.1409 4.625 16.5001C8.06938 16.5001 11.5138 16.5001 15.0625 16.5001C15.1926 14.6395 15.1926 14.6395 14.4375 13.0001C13.8683 12.5502 13.3346 12.4091 12.617 12.4123C12.5497 12.4119 12.4825 12.4115 12.4132 12.411C12.1923 12.4099 11.9714 12.4101 11.7505 12.4105C11.596 12.4102 11.4415 12.4098 11.287 12.4095C10.9637 12.4089 10.6404 12.4091 10.3171 12.4097C9.90402 12.4104 9.49096 12.4091 9.07788 12.4073C8.75895 12.4062 8.44003 12.4062 8.1211 12.4065C7.96886 12.4066 7.81661 12.4062 7.66437 12.4054C7.45096 12.4045 7.23761 12.4051 7.0242 12.4062C6.9621 12.4056 6.9 12.405 6.83602 12.4044C6.07975 12.4123 5.49522 12.6763 5 13.2501ZM17.3904 13.1986C16.7028 14.1843 16.9375 15.3108 16.9375 16.5001C20.3819 16.5001 23.8263 16.5001 27.375 16.5001C27.5311 14.5187 27.5311 14.5187 26.7195 12.9481C26.3385 12.6193 25.8994 12.431 25.3963 12.4284C25.3381 12.4279 25.2798 12.4275 25.2198 12.427C25.1563 12.4268 25.0928 12.4267 25.0275 12.4265C24.9602 12.4261 24.893 12.4257 24.8238 12.4253C24.6012 12.424 24.3786 12.4233 24.156 12.4227C24.0799 12.4224 24.0037 12.4222 23.9253 12.4219C23.5221 12.4206 23.1189 12.4197 22.7157 12.4191C22.3001 12.4185 21.8846 12.4163 21.4691 12.4138C21.1488 12.4122 20.8285 12.4116 20.5083 12.4114C20.3551 12.4111 20.202 12.4104 20.0489 12.4092C19.834 12.4077 19.6191 12.4078 19.4042 12.4082C19.3416 12.4074 19.279 12.4066 19.2145 12.4058C18.5145 12.4109 17.8398 12.641 17.3904 13.1986ZM1.875 18.4376C1.875 20.2113 1.875 21.9851 1.875 23.8126C11.1975 23.8126 20.52 23.8126 30.125 23.8126C30.125 22.0388 30.125 20.2651 30.125 18.4376C20.8025 18.4376 11.48 18.4376 1.875 18.4376Z" fill="white"/>
</svg>
