<svg width="32" height="32" viewBox="0 0 32 32" fill="none" xmlns="http://www.w3.org/2000/svg">
<g clip-path="url(#clip0_1041_285)">
<path d="M12.4262 9.35686C12.5122 9.35649 12.5982 9.35606 12.6842 9.35559C12.9164 9.35449 13.1486 9.3542 13.3808 9.35412C13.5264 9.35403 13.6719 9.35376 13.8175 9.35343C14.3268 9.35227 14.836 9.35176 15.3453 9.35186C15.8176 9.35194 16.29 9.35062 16.7623 9.34864C17.1697 9.347 17.5771 9.34634 17.9845 9.34642C18.227 9.34645 18.4695 9.34611 18.712 9.34477C18.9405 9.34355 19.169 9.34356 19.3975 9.34446C19.5196 9.34465 19.6418 9.34362 19.7639 9.34253C20.9394 9.35073 22.0018 9.77248 22.875 10.5625C22.9224 10.6041 22.9698 10.6457 23.0186 10.6885C23.7936 11.4101 24.364 12.4563 24.4493 13.5216C24.4538 13.6784 24.4548 13.8347 24.4542 13.9916C24.4545 14.0511 24.4548 14.1107 24.4551 14.172C24.4559 14.3702 24.4558 14.5684 24.4557 14.7665C24.456 14.9092 24.4565 15.0518 24.4569 15.1945C24.458 15.5811 24.4583 15.9678 24.4584 16.3544C24.4585 16.5963 24.4588 16.8382 24.4591 17.08C24.4602 17.8813 24.4608 18.6825 24.4607 19.4838C24.4607 19.5269 24.4607 19.57 24.4607 19.6144C24.4607 19.6576 24.4607 19.7008 24.4607 19.7453C24.4606 20.4442 24.4618 21.1431 24.4636 21.842C24.4654 22.5614 24.4662 23.2807 24.4661 24.0001C24.4661 24.4033 24.4664 24.8064 24.4678 25.2096C24.469 25.5891 24.469 25.9686 24.4681 26.3482C24.468 26.4868 24.4682 26.6255 24.469 26.7642C24.4762 28.1747 24.2282 29.3563 23.25 30.4375C23.2084 30.4849 23.1669 30.5323 23.124 30.5811C22.3931 31.3662 21.3274 31.9439 20.2473 32.012C20.0227 32.0171 19.7985 32.0183 19.5738 32.0182C19.4878 32.0186 19.4018 32.019 19.3158 32.0195C19.0836 32.0206 18.8514 32.0208 18.6192 32.0209C18.4737 32.021 18.3281 32.0213 18.1825 32.0216C17.6733 32.0228 17.164 32.0233 16.6548 32.0232C16.1824 32.0231 15.7101 32.0244 15.2377 32.0264C14.8303 32.028 14.4229 32.0287 14.0155 32.0286C13.773 32.0286 13.5305 32.0289 13.2881 32.0303C13.0596 32.0315 12.8311 32.0315 12.6026 32.0306C12.4804 32.0304 12.3583 32.0314 12.2361 32.0325C11.0607 32.0243 9.99823 31.6026 9.12502 30.8125C9.07765 30.771 9.03027 30.7294 8.98146 30.6865C8.2064 29.9649 7.63605 28.9187 7.55079 27.8534C7.54619 27.6967 7.54525 27.5403 7.54581 27.3835C7.54538 27.2942 7.54538 27.2942 7.54495 27.203C7.54416 27.0049 7.54426 26.8067 7.54436 26.6085C7.54399 26.4659 7.54356 26.3232 7.54309 26.1806C7.54199 25.7939 7.54169 25.4073 7.54161 25.0206C7.54152 24.7788 7.54126 24.5369 7.54093 24.295C7.53983 23.4938 7.53925 22.6925 7.53934 21.8913C7.53935 21.8482 7.53935 21.805 7.53936 21.7606C7.53936 21.7174 7.53937 21.6743 7.53937 21.6298C7.53942 20.9309 7.53823 20.2319 7.53646 19.533C7.53466 18.8137 7.53383 18.0943 7.53391 17.375C7.53395 16.9718 7.53359 16.5686 7.53227 16.1654C7.53105 15.7859 7.53105 15.4064 7.53196 15.0269C7.53209 14.8882 7.5318 14.7495 7.53104 14.6108C7.52382 13.2003 7.77179 12.0187 8.75002 10.9375C8.79159 10.8901 8.83316 10.8428 8.876 10.794C9.81949 9.78059 11.0644 9.35589 12.4262 9.35686ZM10.1406 12.3008C9.54689 13.0117 9.42737 13.8484 9.42916 14.7432C9.42902 14.7962 9.42888 14.8492 9.42873 14.9038C9.42834 15.0798 9.42839 15.2558 9.42844 15.4318C9.42825 15.5587 9.42804 15.6855 9.4278 15.8124C9.42725 16.1559 9.42711 16.4994 9.42707 16.8429C9.42702 17.0578 9.42689 17.2727 9.42672 17.4876C9.42614 18.2383 9.42589 18.9889 9.42594 19.7395C9.42598 20.4378 9.42532 21.1361 9.42433 21.8344C9.42351 22.4351 9.42318 23.0358 9.42322 23.6365C9.42323 23.9948 9.42306 24.353 9.42239 24.7113C9.42178 25.0484 9.42178 25.3855 9.42224 25.7227C9.4223 25.8459 9.42216 25.9691 9.42178 26.0924C9.41823 27.3235 9.47044 28.382 10.3675 29.3089C11.1445 30.0357 12.0751 30.1345 13.0915 30.1341C13.161 30.1343 13.2305 30.1345 13.3021 30.1347C13.5305 30.1353 13.7589 30.1355 13.9873 30.1355C14.1471 30.1357 14.3069 30.1359 14.4667 30.1362C14.8013 30.1365 15.1358 30.1366 15.4704 30.1366C15.8551 30.1366 16.2398 30.1372 16.6246 30.1382C16.9969 30.1391 17.3692 30.1394 17.7415 30.1393C17.8989 30.1394 18.0563 30.1397 18.2136 30.1402C18.4345 30.1408 18.6553 30.1406 18.8762 30.1402C18.9402 30.1406 19.0042 30.1409 19.0701 30.1413C20.1256 30.1368 20.9764 29.9402 21.7464 29.1951C22.4248 28.4698 22.5728 27.5892 22.5709 26.6318C22.5711 26.5523 22.5711 26.5523 22.5713 26.4712C22.5717 26.2952 22.5716 26.1192 22.5716 25.9432C22.5718 25.8164 22.572 25.6895 22.5722 25.5627C22.5728 25.2192 22.5729 24.8757 22.573 24.5322C22.573 24.3173 22.5731 24.1023 22.5733 23.8874C22.5739 23.1368 22.5741 22.3862 22.5741 21.6355C22.5741 20.9372 22.5747 20.2389 22.5757 19.5406C22.5765 18.9399 22.5769 18.3392 22.5768 17.7385C22.5768 17.3803 22.577 17.022 22.5776 16.6638C22.5783 16.3266 22.5783 15.9895 22.5778 15.6524C22.5777 15.5291 22.5779 15.4059 22.5783 15.2827C22.5818 14.0515 22.5296 12.993 21.6326 12.0662C20.8465 11.3309 19.9291 11.2405 18.9014 11.2409C18.8319 11.2407 18.7624 11.2405 18.6908 11.2403C18.4628 11.2397 18.2347 11.2396 18.0066 11.2395C17.8469 11.2393 17.6872 11.2391 17.5275 11.2389C17.1933 11.2385 16.8591 11.2384 16.525 11.2384C16.1407 11.2385 15.7564 11.2378 15.3721 11.2368C15.0001 11.2359 14.6281 11.2357 14.2561 11.2357C14.0989 11.2357 13.9417 11.2354 13.7845 11.2349C11.7723 11.2205 11.7723 11.2205 10.1406 12.3008Z" fill="white"/>
<path d="M15.9609 -0.0157413C16.0085 -0.0157835 16.0561 -0.0158257 16.1052 -0.0158691C16.816 -0.0148681 17.4956 0.014239 18.1875 0.187384C18.2304 0.197777 18.2734 0.20817 18.3176 0.218878C19.995 0.633535 21.4285 1.52271 22.6875 2.68738C22.4044 3.02722 22.1036 3.34142 21.7891 3.65223C21.7201 3.72081 21.7201 3.72081 21.6497 3.79078C21.5374 3.90229 21.425 4.01366 21.3125 4.12488C21.285 4.10099 21.2574 4.07709 21.229 4.05247C19.5768 2.62655 17.6502 1.81953 15.4356 1.95472C13.616 2.11083 12.0594 2.87581 10.75 4.12488C10.4102 3.84176 10.096 3.54095 9.78516 3.22645C9.71657 3.15744 9.71657 3.15744 9.64661 3.08704C9.53509 2.9748 9.42373 2.86241 9.3125 2.74988C11.1242 0.928641 13.3905 -0.0137014 15.9609 -0.0157413Z" fill="white"/>
<path d="M19.1905 4.64822C19.3166 4.73698 19.44 4.82821 19.5625 4.92184C19.6004 4.95057 19.6383 4.9793 19.6773 5.00891C19.7812 5.09274 19.7812 5.09274 19.9375 5.24996C19.9375 5.49996 19.9375 5.49996 19.8228 5.64309C19.7442 5.71968 19.7442 5.71968 19.6641 5.79782C19.6077 5.85341 19.5513 5.909 19.4932 5.96627C19.433 6.02439 19.3727 6.0825 19.3125 6.14059C19.2522 6.19961 19.192 6.2587 19.1318 6.31784C18.9843 6.46245 18.8361 6.60646 18.6875 6.74996C18.5103 6.66394 18.3643 6.57289 18.2109 6.44918C17.5592 5.95437 16.8349 5.71299 16.0195 5.71871C15.9298 5.71925 15.9298 5.71925 15.8382 5.7198C14.9235 5.74258 14.0755 6.07973 13.4375 6.74996C13.2145 6.65535 13.0727 6.52464 12.9033 6.35299C12.8505 6.29982 12.7978 6.24664 12.7434 6.19186C12.6889 6.13627 12.6343 6.08068 12.5781 6.0234C12.4949 5.93929 12.4949 5.93929 12.4099 5.85348C12.273 5.71509 12.1364 5.57641 12 5.43746C12.308 4.76091 13.276 4.32981 13.9375 4.06246C15.6747 3.4427 17.6499 3.61627 19.1905 4.64822Z" fill="white"/>
<path d="M18.8125 19.75C19.4312 19.75 20.05 19.75 20.6875 19.75C20.6875 20.3687 20.6875 20.9875 20.6875 21.625C20.0688 21.625 19.45 21.625 18.8125 21.625C18.8125 21.0063 18.8125 20.3875 18.8125 19.75Z" fill="white"/>
<path d="M15.0625 19.75C15.6812 19.75 16.3 19.75 16.9375 19.75C16.9375 20.3687 16.9375 20.9875 16.9375 21.625C16.3188 21.625 15.7 21.625 15.0625 21.625C15.0625 21.0063 15.0625 20.3875 15.0625 19.75Z" fill="white"/>
<path d="M11.3125 19.75C11.9312 19.75 12.55 19.75 13.1875 19.75C13.1875 20.3687 13.1875 20.9875 13.1875 21.625C12.5688 21.625 11.95 21.625 11.3125 21.625C11.3125 21.0063 11.3125 20.3875 11.3125 19.75Z" fill="white"/>
</g>
<defs>
<clipPath id="clip0_1041_285">
<rect width="32" height="32" fill="white"/>
</clipPath>
</defs>
</svg>
