<svg width="32" height="32" viewBox="0 0 32 32" fill="none" xmlns="http://www.w3.org/2000/svg">
<path d="M15.7281 0.0187498C15.6875 0.0281248 15.6562 0.0499998 15.6562 0.0656248C15.6562 0.0812498 15.6281 0.0937498 15.5938 0.0937498C15.5594 0.0937498 15.5312 0.10625 15.5312 0.125C15.5312 0.140625 15.5031 0.15625 15.4688 0.15625C15.4344 0.15625 15.4062 0.16875 15.4062 0.1875C15.4062 0.203125 15.3781 0.21875 15.3438 0.21875C15.3094 0.21875 15.2812 0.23125 15.2812 0.25C15.2812 0.265625 15.2531 0.28125 15.2219 0.28125C15.1875 0.28125 15.15 0.29375 15.1406 0.3125C15.1313 0.328125 15.0875 0.34375 15.0437 0.34375C15.0031 0.34375 14.9688 0.35625 14.9688 0.375C14.9688 0.390625 14.9406 0.40625 14.9062 0.40625C14.8719 0.40625 14.8438 0.41875 14.8438 0.4375C14.8438 0.453125 14.8156 0.46875 14.7812 0.46875C14.7469 0.46875 14.7188 0.48125 14.7188 0.5C14.7188 0.515625 14.6906 0.53125 14.6562 0.53125C14.6219 0.53125 14.5938 0.54375 14.5938 0.5625C14.5938 0.578125 14.5656 0.59375 14.5344 0.59375C14.5 0.59375 14.4625 0.60625 14.4531 0.625C14.4438 0.640625 14.4 0.65625 14.3562 0.65625C14.3156 0.65625 14.2812 0.66875 14.2812 0.6875C14.2812 0.703125 14.2531 0.71875 14.2188 0.71875C14.1844 0.71875 14.1562 0.73125 14.1562 0.75C14.1562 0.765625 14.1281 0.78125 14.0938 0.78125C14.0594 0.78125 14.0312 0.79375 14.0312 0.8125C14.0312 0.828125 14.0031 0.84375 13.9688 0.84375C13.9344 0.84375 13.9062 0.85625 13.9062 0.875C13.9062 0.890625 13.8781 0.90625 13.8469 0.90625C13.8125 0.90625 13.775 0.91875 13.7656 0.9375C13.7563 0.953125 13.7125 0.96875 13.6687 0.96875C13.6281 0.96875 13.5938 0.98125 13.5938 1C13.5938 1.01562 13.5656 1.03125 13.5312 1.03125C13.4969 1.03125 13.4688 1.04375 13.4688 1.0625C13.4688 1.07812 13.4406 1.09375 13.4062 1.09375C13.3719 1.09375 13.3438 1.10625 13.3438 1.125C13.3438 1.14062 13.3156 1.15625 13.2812 1.15625C13.2469 1.15625 13.2188 1.16875 13.2188 1.1875C13.2188 1.20312 13.1969 1.21875 13.1719 1.21875C13.1469 1.21875 13.0969 1.23125 13.0625 1.25C13.0281 1.26562 12.9719 1.29375 12.9375 1.3125C12.9031 1.32812 12.8531 1.34375 12.8281 1.34375C12.8031 1.34375 12.7812 1.35625 12.7812 1.375C12.7812 1.39062 12.7531 1.40625 12.7188 1.40625C12.6844 1.40625 12.6562 1.41875 12.6562 1.4375C12.6562 1.45312 12.6281 1.46875 12.5938 1.46875C12.5594 1.46875 12.5312 1.48125 12.5312 1.5C12.5312 1.51562 12.5094 1.53125 12.4844 1.53125C12.4594 1.53125 12.4094 1.54375 12.375 1.5625C12.3406 1.57812 12.2844 1.60625 12.25 1.625C12.2156 1.64062 12.1656 1.65625 12.1406 1.65625C12.1156 1.65625 12.0938 1.66875 12.0938 1.6875C12.0938 1.70312 12.0656 1.71875 12.0312 1.71875C11.9969 1.71875 11.9688 1.73125 11.9688 1.75C11.9688 1.76562 11.9406 1.78125 11.9062 1.78125C11.8719 1.78125 11.8438 1.79375 11.8438 1.8125C11.8438 1.82812 11.8219 1.84375 11.7969 1.84375C11.7719 1.84375 11.7219 1.85625 11.6875 1.875C11.6531 1.89062 11.5969 1.91875 11.5625 1.9375C11.5281 1.95312 11.4781 1.96875 11.4531 1.96875C11.4281 1.96875 11.4062 1.98125 11.4062 2C11.4062 2.01562 11.3781 2.03125 11.3438 2.03125C11.3094 2.03125 11.2812 2.04375 11.2812 2.0625C11.2812 2.07812 11.2531 2.09375 11.2188 2.09375C11.1844 2.09375 11.1562 2.10625 11.1562 2.125C11.1562 2.14062 11.1344 2.15625 11.1094 2.15625C11.0625 2.15625 11.0313 2.16875 10.8844 2.24375C10.8438 2.26562 10.7906 2.28125 10.7656 2.28125C10.7406 2.28125 10.7188 2.29375 10.7188 2.3125C10.7188 2.32812 10.6906 2.34375 10.6562 2.34375C10.6219 2.34375 10.5938 2.35625 10.5938 2.375C10.5938 2.39062 10.5656 2.40625 10.5312 2.40625C10.4969 2.40625 10.4688 2.41875 10.4688 2.4375C10.4688 2.45312 10.4469 2.46875 10.4219 2.46875C10.3969 2.46875 10.3469 2.48125 10.3125 2.5C10.2781 2.51562 10.2219 2.54375 10.1875 2.5625C10.1531 2.57812 10.1031 2.59375 10.0781 2.59375C10.0531 2.59375 10.0312 2.60625 10.0312 2.625C10.0312 2.64062 10.0031 2.65625 9.96875 2.65625C9.93437 2.65625 9.90625 2.66875 9.90625 2.6875C9.90625 2.70312 9.87813 2.71875 9.84375 2.71875C9.80937 2.71875 9.78125 2.73125 9.78125 2.75C9.78125 2.76562 9.75937 2.78125 9.73438 2.78125C9.70938 2.78125 9.65938 2.79375 9.625 2.8125C9.59062 2.82812 9.53438 2.85625 9.5 2.875C9.46562 2.89062 9.41562 2.90625 9.39062 2.90625C9.36563 2.90625 9.34375 2.91875 9.34375 2.9375C9.34375 2.95312 9.31563 2.96875 9.28125 2.96875C9.24687 2.96875 9.21875 2.98125 9.21875 3C9.21875 3.01562 9.19063 3.03125 9.15625 3.03125C9.12187 3.03125 9.09375 3.04375 9.09375 3.0625C9.09375 3.07812 9.06563 3.09375 9.03125 3.09375C8.99687 3.09375 8.96875 3.10625 8.96875 3.125C8.96875 3.14062 8.93437 3.15625 8.89375 3.15625C8.85 3.15625 8.80625 3.16875 8.79688 3.1875C8.7875 3.20312 8.75 3.21875 8.71562 3.21875C8.68437 3.21875 8.65625 3.23125 8.65625 3.25C8.65625 3.26562 8.62813 3.28125 8.59375 3.28125C8.55937 3.28125 8.53125 3.29375 8.53125 3.3125C8.53125 3.32812 8.50313 3.34375 8.46875 3.34375C8.43437 3.34375 8.40625 3.35625 8.40625 3.375C8.40625 3.39062 8.37813 3.40625 8.34375 3.40625C8.30937 3.40625 8.28125 3.41875 8.28125 3.4375C8.28125 3.45312 8.24687 3.46875 8.20625 3.46875C8.1625 3.46875 8.11875 3.48125 8.10938 3.5C8.1 3.51562 8.0625 3.53125 8.02812 3.53125C7.99687 3.53125 7.96875 3.54375 7.96875 3.5625C7.96875 3.57812 7.94063 3.59375 7.90625 3.59375C7.87187 3.59375 7.84375 3.60625 7.84375 3.625C7.84375 3.64062 7.81563 3.65625 7.78125 3.65625C7.74687 3.65625 7.71875 3.66875 7.71875 3.6875C7.71875 3.70312 7.69063 3.71875 7.65625 3.71875C7.62187 3.71875 7.59375 3.73125 7.59375 3.75C7.59375 3.76562 7.55938 3.78125 7.51875 3.78125C7.475 3.78125 7.43125 3.79375 7.42188 3.8125C7.4125 3.82812 7.375 3.84375 7.34063 3.84375C7.30938 3.84375 7.28125 3.85625 7.28125 3.875C7.28125 3.89062 7.25313 3.90625 7.21875 3.90625C7.18437 3.90625 7.15625 3.91875 7.15625 3.9375C7.15625 3.95312 7.12813 3.96875 7.09375 3.96875C7.05937 3.96875 7.03125 3.98125 7.03125 4C7.03125 4.01562 7.00313 4.03125 6.96875 4.03125C6.93437 4.03125 6.90625 4.04375 6.90625 4.0625C6.90625 4.07812 6.87188 4.09375 6.83125 4.09375C6.7875 4.09375 6.74375 4.10625 6.73438 4.125C6.725 4.14062 6.6875 4.15625 6.65313 4.15625C6.62188 4.15625 6.59375 4.16875 6.59375 4.1875C6.59375 4.20312 6.56563 4.21875 6.53125 4.21875C6.49687 4.21875 6.46875 4.23125 6.46875 4.25C6.46875 4.26562 6.44063 4.28125 6.40625 4.28125C6.37187 4.28125 6.34375 4.29375 6.34375 4.3125C6.34375 4.32812 6.31563 4.34375 6.28125 4.34375C6.24687 4.34375 6.21875 4.35625 6.21875 4.375C6.21875 4.39062 6.18438 4.40625 6.14375 4.40625C6.1 4.40625 6.05625 4.41875 6.04688 4.4375C6.0375 4.45312 6 4.46875 5.96563 4.46875C5.93438 4.46875 5.90625 4.48125 5.90625 4.5C5.90625 4.51562 5.87813 4.53125 5.84375 4.53125C5.80937 4.53125 5.78125 4.54375 5.78125 4.5625C5.78125 4.57812 5.75313 4.59375 5.71875 4.59375C5.68437 4.59375 5.65625 4.60625 5.65625 4.625C5.65625 4.64062 5.62813 4.65625 5.59375 4.65625C5.55937 4.65625 5.53125 4.66875 5.53125 4.6875C5.53125 4.70312 5.49688 4.71875 5.45625 4.71875C5.4125 4.71875 5.36875 4.73125 5.35938 4.75C5.35 4.76562 5.3125 4.78125 5.27813 4.78125C5.24688 4.78125 5.21875 4.79375 5.21875 4.8125C5.21875 4.82812 5.19063 4.84375 5.15625 4.84375C5.12187 4.84375 5.09375 4.85625 5.09375 4.875C5.09375 4.89062 5.06563 4.90625 5.03125 4.90625C4.99687 4.90625 4.96875 4.91875 4.96875 4.9375C4.96875 4.95312 4.94063 4.96875 4.90625 4.96875C4.87187 4.96875 4.84375 4.98125 4.84375 5C4.84375 5.01562 4.80938 5.03125 4.76875 5.03125C4.725 5.03125 4.68125 5.04375 4.67188 5.0625C4.6625 5.07812 4.625 5.09375 4.59063 5.09375C4.55938 5.09375 4.53125 5.10625 4.53125 5.125C4.53125 5.14062 4.50313 5.15625 4.46875 5.15625C4.43437 5.15625 4.40625 5.16875 4.40625 5.1875C4.40625 5.20312 4.37813 5.21875 4.34375 5.21875C4.30937 5.21875 4.28125 5.23125 4.28125 5.25C4.28125 5.26562 4.25313 5.28125 4.21875 5.28125C4.18437 5.28125 4.15625 5.29375 4.15625 5.3125C4.15625 5.32812 4.12188 5.34375 4.08125 5.34375C4.0375 5.34375 3.99375 5.35625 3.98438 5.375C3.975 5.39062 3.9375 5.40625 3.90313 5.40625C3.87188 5.40625 3.84375 5.41875 3.84375 5.4375C3.84375 5.45312 3.81562 5.46875 3.78125 5.46875C3.74688 5.46875 3.71875 5.48125 3.71875 5.5C3.71875 5.51562 3.69062 5.53125 3.65625 5.53125C3.62188 5.53125 3.59375 5.54375 3.59375 5.5625C3.59375 5.57812 3.56562 5.59375 3.53125 5.59375C3.49688 5.59375 3.46875 5.60625 3.46875 5.625C3.46875 5.64062 3.43438 5.65625 3.39375 5.65625C3.35 5.65625 3.30625 5.66875 3.29688 5.6875C3.2875 5.70312 3.25 5.71875 3.21563 5.71875C3.18438 5.71875 3.15625 5.73125 3.15625 5.75C3.15625 5.76562 3.12812 5.78125 3.09375 5.78125C3.05938 5.78125 3.03125 5.79375 3.03125 5.8125C3.03125 5.82812 3.00312 5.84375 2.96875 5.84375C2.93438 5.84375 2.90625 5.85625 2.90625 5.875C2.90625 5.89062 2.87812 5.90625 2.84375 5.90625C2.80938 5.90625 2.78125 5.91875 2.78125 5.9375C2.78125 5.95312 2.74688 5.96875 2.70625 5.96875C2.6625 5.96875 2.61875 5.98125 2.60938 6C2.6 6.01562 2.5625 6.03125 2.52813 6.03125C2.49688 6.03125 2.46875 6.04375 2.46875 6.0625C2.46875 6.07812 2.44062 6.09375 2.40625 6.09375C2.37188 6.09375 2.34375 6.10625 2.34375 6.125C2.34375 6.14062 2.31562 6.15625 2.28125 6.15625C2.24688 6.15625 2.21875 6.16875 2.21875 6.1875C2.21875 6.20312 2.19062 6.21875 2.15625 6.21875C2.12188 6.21875 2.09375 6.23125 2.09375 6.25C2.09375 6.26562 2.05938 6.28125 2.01875 6.28125C1.975 6.28125 1.93125 6.29375 1.92188 6.3125C1.9125 6.32812 1.875 6.34375 1.84063 6.34375C1.80938 6.34375 1.78125 6.35625 1.78125 6.375C1.78125 6.39062 1.75312 6.40625 1.71875 6.40625C1.68438 6.40625 1.65625 6.41875 1.65625 6.4375C1.65625 6.45312 1.62812 6.46875 1.59375 6.46875C1.55938 6.46875 1.53125 6.48125 1.53125 6.5C1.53125 6.51562 1.50312 6.53125 1.46875 6.53125C1.43438 6.53125 1.40625 6.54375 1.40625 6.5625C1.40625 6.57812 1.37188 6.59375 1.33125 6.59375C1.2875 6.59375 1.24375 6.60625 1.23438 6.625C1.225 6.64062 1.1875 6.65625 1.15313 6.65625C1.12188 6.65625 1.09375 6.66875 1.09375 6.6875C1.09375 6.70312 1.06562 6.71875 1.03125 6.71875C0.996875 6.71875 0.96875 6.73125 0.96875 6.75C0.96875 6.76562 0.940625 6.78125 0.90625 6.78125C0.871875 6.78125 0.84375 6.79375 0.84375 6.8125C0.84375 6.82812 0.815625 6.84375 0.78125 6.84375C0.746875 6.84375 0.71875 6.85625 0.71875 6.875C0.71875 6.89062 0.684375 6.90625 0.64375 6.90625C0.6 6.90625 0.55625 6.91875 0.546875 6.9375C0.5375 6.95312 0.5 6.96875 0.465625 6.96875C0.434375 6.96875 0.40625 6.98125 0.40625 7C0.40625 7.01562 0.378125 7.03125 0.34375 7.03125C0.309375 7.03125 0.28125 7.04375 0.28125 7.0625C0.28125 7.07812 0.253125 7.09375 0.21875 7.09375C0.184375 7.09375 0.15625 7.10625 0.15625 7.125C0.15625 7.14062 0.128125 7.15625 0.096875 7.15625C0.065625 7.15625 0.028125 7.17812 0.01875 7.20625C0.009375 7.23437 0 12.8219 0 19.6281V32H32V19.6281C32 12.8219 31.9906 7.23437 31.9813 7.20625C31.9719 7.17812 31.9344 7.15625 31.9031 7.15625C31.8719 7.15625 31.8438 7.14062 31.8438 7.125C31.8438 7.10625 31.8156 7.09375 31.7812 7.09375C31.7469 7.09375 31.7188 7.07812 31.7188 7.0625C31.7188 7.04375 31.6906 7.03125 31.6562 7.03125C31.6219 7.03125 31.5938 7.01562 31.5938 7C31.5938 6.98125 31.5656 6.96875 31.5344 6.96875C31.5 6.96875 31.4625 6.95312 31.4531 6.9375C31.4438 6.91875 31.4 6.90625 31.3563 6.90625C31.3156 6.90625 31.2812 6.89062 31.2812 6.875C31.2812 6.85625 31.2531 6.84375 31.2188 6.84375C31.1844 6.84375 31.1562 6.82812 31.1562 6.8125C31.1562 6.79375 31.1281 6.78125 31.0938 6.78125C31.0594 6.78125 31.0312 6.76562 31.0312 6.75C31.0312 6.73125 31.0031 6.71875 30.9688 6.71875C30.9344 6.71875 30.9062 6.70312 30.9062 6.6875C30.9062 6.66875 30.8781 6.65625 30.8469 6.65625C30.8125 6.65625 30.775 6.64062 30.7656 6.625C30.7563 6.60625 30.7125 6.59375 30.6688 6.59375C30.6281 6.59375 30.5938 6.57812 30.5938 6.5625C30.5938 6.54375 30.5656 6.53125 30.5312 6.53125C30.4969 6.53125 30.4688 6.51562 30.4688 6.5C30.4688 6.48125 30.4406 6.46875 30.4062 6.46875C30.3719 6.46875 30.3438 6.45312 30.3438 6.4375C30.3438 6.41875 30.3156 6.40625 30.2812 6.40625C30.2469 6.40625 30.2188 6.39062 30.2188 6.375C30.2188 6.35625 30.1906 6.34375 30.1594 6.34375C30.125 6.34375 30.0875 6.32812 30.0781 6.3125C30.0688 6.29375 30.025 6.28125 29.9813 6.28125C29.9406 6.28125 29.9062 6.26562 29.9062 6.25C29.9062 6.23125 29.8781 6.21875 29.8438 6.21875C29.8094 6.21875 29.7812 6.20312 29.7812 6.1875C29.7812 6.16875 29.7531 6.15625 29.7188 6.15625C29.6844 6.15625 29.6562 6.14062 29.6562 6.125C29.6562 6.10625 29.6281 6.09375 29.5938 6.09375C29.5594 6.09375 29.5312 6.07812 29.5312 6.0625C29.5312 6.04375 29.5031 6.03125 29.4719 6.03125C29.4375 6.03125 29.4 6.01562 29.3906 6C29.3813 5.98125 29.3375 5.96875 29.2938 5.96875C29.2531 5.96875 29.2188 5.95312 29.2188 5.9375C29.2188 5.91875 29.1906 5.90625 29.1562 5.90625C29.1219 5.90625 29.0938 5.89062 29.0938 5.875C29.0938 5.85625 29.0656 5.84375 29.0312 5.84375C28.9969 5.84375 28.9688 5.82812 28.9688 5.8125C28.9688 5.79375 28.9406 5.78125 28.9062 5.78125C28.8719 5.78125 28.8438 5.76562 28.8438 5.75C28.8438 5.73125 28.8156 5.71875 28.7844 5.71875C28.75 5.71875 28.7125 5.70312 28.7031 5.6875C28.6938 5.66875 28.65 5.65625 28.6063 5.65625C28.5656 5.65625 28.5312 5.64062 28.5312 5.625C28.5312 5.60625 28.5031 5.59375 28.4688 5.59375C28.4344 5.59375 28.4062 5.57812 28.4062 5.5625C28.4062 5.54375 28.3781 5.53125 28.3438 5.53125C28.3094 5.53125 28.2812 5.51562 28.2812 5.5C28.2812 5.48125 28.2531 5.46875 28.2188 5.46875C28.1844 5.46875 28.1562 5.45312 28.1562 5.4375C28.1562 5.41875 28.1281 5.40625 28.0969 5.40625C28.0625 5.40625 28.025 5.39062 28.0156 5.375C28.0063 5.35625 27.9625 5.34375 27.9188 5.34375C27.8781 5.34375 27.8438 5.32812 27.8438 5.3125C27.8438 5.29375 27.8156 5.28125 27.7812 5.28125C27.7469 5.28125 27.7188 5.26562 27.7188 5.25C27.7188 5.23125 27.6906 5.21875 27.6562 5.21875C27.6219 5.21875 27.5938 5.20312 27.5938 5.1875C27.5938 5.16875 27.5656 5.15625 27.5312 5.15625C27.4969 5.15625 27.4688 5.14062 27.4688 5.125C27.4688 5.10625 27.4406 5.09375 27.4094 5.09375C27.375 5.09375 27.3375 5.07812 27.3281 5.0625C27.3188 5.04375 27.275 5.03125 27.2313 5.03125C27.1906 5.03125 27.1562 5.01562 27.1562 5C27.1562 4.98125 27.1281 4.96875 27.0938 4.96875C27.0594 4.96875 27.0312 4.95312 27.0312 4.9375C27.0312 4.91875 27.0031 4.90625 26.9688 4.90625C26.9344 4.90625 26.9062 4.89062 26.9062 4.875C26.9062 4.85625 26.8781 4.84375 26.8438 4.84375C26.8094 4.84375 26.7812 4.82812 26.7812 4.8125C26.7812 4.79375 26.7531 4.78125 26.7219 4.78125C26.6875 4.78125 26.65 4.76562 26.6406 4.75C26.6313 4.73125 26.5875 4.71875 26.5438 4.71875C26.5031 4.71875 26.4688 4.70312 26.4688 4.6875C26.4688 4.66875 26.4406 4.65625 26.4062 4.65625C26.3719 4.65625 26.3438 4.64062 26.3438 4.625C26.3438 4.60625 26.3156 4.59375 26.2812 4.59375C26.2469 4.59375 26.2188 4.57812 26.2188 4.5625C26.2188 4.54375 26.1906 4.53125 26.1562 4.53125C26.1219 4.53125 26.0938 4.51562 26.0938 4.5C26.0938 4.48125 26.0656 4.46875 26.0344 4.46875C26 4.46875 25.9625 4.45312 25.9531 4.4375C25.9438 4.41875 25.9 4.40625 25.8563 4.40625C25.8156 4.40625 25.7812 4.39062 25.7812 4.375C25.7812 4.35625 25.7531 4.34375 25.7188 4.34375C25.6844 4.34375 25.6562 4.32812 25.6562 4.3125C25.6562 4.29375 25.6281 4.28125 25.5938 4.28125C25.5594 4.28125 25.5312 4.26562 25.5312 4.25C25.5312 4.23125 25.5031 4.21875 25.4688 4.21875C25.4344 4.21875 25.4062 4.20312 25.4062 4.1875C25.4062 4.16875 25.3781 4.15625 25.3469 4.15625C25.3125 4.15625 25.275 4.14062 25.2656 4.125C25.2563 4.10625 25.2125 4.09375 25.1688 4.09375C25.1281 4.09375 25.0938 4.07812 25.0938 4.0625C25.0938 4.04375 25.0656 4.03125 25.0312 4.03125C24.9969 4.03125 24.9688 4.01562 24.9688 4C24.9688 3.98125 24.9406 3.96875 24.9062 3.96875C24.8719 3.96875 24.8438 3.95312 24.8438 3.9375C24.8438 3.91875 24.8156 3.90625 24.7812 3.90625C24.7469 3.90625 24.7188 3.89062 24.7188 3.875C24.7188 3.85625 24.6906 3.84375 24.6594 3.84375C24.625 3.84375 24.5875 3.82812 24.5781 3.8125C24.5688 3.79375 24.525 3.78125 24.4813 3.78125C24.4406 3.78125 24.4062 3.76562 24.4062 3.75C24.4062 3.73125 24.3781 3.71875 24.3438 3.71875C24.3094 3.71875 24.2812 3.70312 24.2812 3.6875C24.2812 3.66875 24.2531 3.65625 24.2188 3.65625C24.1844 3.65625 24.1562 3.64062 24.1562 3.625C24.1562 3.60625 24.1281 3.59375 24.0938 3.59375C24.0594 3.59375 24.0312 3.57812 24.0312 3.5625C24.0312 3.54375 24.0031 3.53125 23.9719 3.53125C23.9375 3.53125 23.9 3.51562 23.8906 3.5C23.8813 3.48125 23.8375 3.46875 23.7938 3.46875C23.7531 3.46875 23.7188 3.45312 23.7188 3.4375C23.7188 3.41875 23.6906 3.40625 23.6562 3.40625C23.6219 3.40625 23.5938 3.39062 23.5938 3.375C23.5938 3.35625 23.5656 3.34375 23.5312 3.34375C23.4969 3.34375 23.4688 3.32812 23.4688 3.3125C23.4688 3.29375 23.4406 3.28125 23.4062 3.28125C23.3719 3.28125 23.3438 3.26562 23.3438 3.25C23.3438 3.23125 23.3156 3.21875 23.2844 3.21875C23.25 3.21875 23.2125 3.20312 23.2031 3.1875C23.1938 3.16875 23.15 3.15625 23.1063 3.15625C23.0656 3.15625 23.0312 3.14062 23.0312 3.125C23.0312 3.10625 23.0031 3.09375 22.9688 3.09375C22.9344 3.09375 22.9062 3.07812 22.9062 3.0625C22.9062 3.04375 22.8781 3.03125 22.8438 3.03125C22.8094 3.03125 22.7812 3.01562 22.7812 3C22.7812 2.98125 22.7531 2.96875 22.7188 2.96875C22.6844 2.96875 22.6562 2.95312 22.6562 2.9375C22.6562 2.91875 22.6344 2.90625 22.6094 2.90625C22.5844 2.90625 22.5344 2.89062 22.5 2.875C22.4656 2.85625 22.4094 2.82812 22.375 2.8125C22.3406 2.79375 22.2906 2.78125 22.2656 2.78125C22.2406 2.78125 22.2188 2.76562 22.2188 2.75C22.2188 2.73125 22.1906 2.71875 22.1562 2.71875C22.1219 2.71875 22.0938 2.70312 22.0938 2.6875C22.0938 2.66875 22.0656 2.65625 22.0312 2.65625C21.9969 2.65625 21.9688 2.64062 21.9688 2.625C21.9688 2.60625 21.9469 2.59375 21.9219 2.59375C21.875 2.59375 21.8438 2.58125 21.6969 2.50625C21.6562 2.48438 21.6031 2.46875 21.5781 2.46875C21.5531 2.46875 21.5312 2.45312 21.5312 2.4375C21.5312 2.41875 21.5031 2.40625 21.4688 2.40625C21.4344 2.40625 21.4062 2.39062 21.4062 2.375C21.4062 2.35625 21.3781 2.34375 21.3438 2.34375C21.3094 2.34375 21.2812 2.32812 21.2812 2.3125C21.2812 2.29375 21.2594 2.28125 21.2344 2.28125C21.2094 2.28125 21.1562 2.26562 21.1156 2.24375C20.9688 2.16875 20.9375 2.15625 20.8906 2.15625C20.8656 2.15625 20.8438 2.14062 20.8438 2.125C20.8438 2.10625 20.8156 2.09375 20.7812 2.09375C20.7469 2.09375 20.7188 2.07812 20.7188 2.0625C20.7188 2.04375 20.6906 2.03125 20.6562 2.03125C20.6219 2.03125 20.5938 2.01562 20.5938 2C20.5938 1.98125 20.5719 1.96875 20.5469 1.96875C20.5219 1.96875 20.4719 1.95312 20.4375 1.9375C20.4031 1.91875 20.3469 1.89062 20.3125 1.875C20.2781 1.85625 20.2281 1.84375 20.2031 1.84375C20.1781 1.84375 20.1562 1.82812 20.1562 1.8125C20.1562 1.79375 20.1281 1.78125 20.0938 1.78125C20.0594 1.78125 20.0312 1.76562 20.0312 1.75C20.0312 1.73125 20.0031 1.71875 19.9688 1.71875C19.9344 1.71875 19.9062 1.70312 19.9062 1.6875C19.9062 1.66875 19.8844 1.65625 19.8594 1.65625C19.8344 1.65625 19.7844 1.64062 19.75 1.625C19.7156 1.60625 19.6594 1.57812 19.625 1.5625C19.5906 1.54375 19.5406 1.53125 19.5156 1.53125C19.4906 1.53125 19.4688 1.51562 19.4688 1.5C19.4688 1.48125 19.4406 1.46875 19.4062 1.46875C19.3719 1.46875 19.3438 1.45312 19.3438 1.4375C19.3438 1.41875 19.3156 1.40625 19.2812 1.40625C19.2469 1.40625 19.2188 1.39062 19.2188 1.375C19.2188 1.35625 19.1969 1.34375 19.1719 1.34375C19.1469 1.34375 19.0969 1.32812 19.0625 1.3125C19.0281 1.29375 18.9719 1.26562 18.9375 1.25C18.9031 1.23125 18.8531 1.21875 18.8281 1.21875C18.8031 1.21875 18.7812 1.20312 18.7812 1.1875C18.7812 1.16875 18.7531 1.15625 18.7188 1.15625C18.6844 1.15625 18.6562 1.14062 18.6562 1.125C18.6562 1.10625 18.6281 1.09375 18.5938 1.09375C18.5594 1.09375 18.5312 1.07812 18.5312 1.0625C18.5312 1.04375 18.5031 1.03125 18.4688 1.03125C18.4344 1.03125 18.4062 1.01562 18.4062 1C18.4062 0.98125 18.3719 0.96875 18.3313 0.96875C18.2875 0.96875 18.2437 0.953125 18.2344 0.9375C18.225 0.91875 18.1875 0.90625 18.1531 0.90625C18.1219 0.90625 18.0938 0.890625 18.0938 0.875C18.0938 0.85625 18.0656 0.84375 18.0312 0.84375C17.9969 0.84375 17.9688 0.828125 17.9688 0.8125C17.9688 0.79375 17.9406 0.78125 17.9062 0.78125C17.8719 0.78125 17.8438 0.765625 17.8438 0.75C17.8438 0.73125 17.8156 0.71875 17.7812 0.71875C17.7469 0.71875 17.7188 0.703125 17.7188 0.6875C17.7188 0.66875 17.6844 0.65625 17.6438 0.65625C17.6 0.65625 17.5562 0.640625 17.5469 0.625C17.5375 0.60625 17.5 0.59375 17.4656 0.59375C17.4344 0.59375 17.4062 0.578125 17.4062 0.5625C17.4062 0.54375 17.3781 0.53125 17.3438 0.53125C17.3094 0.53125 17.2812 0.515625 17.2812 0.5C17.2812 0.48125 17.2531 0.46875 17.2188 0.46875C17.1844 0.46875 17.1562 0.453125 17.1562 0.4375C17.1562 0.41875 17.1281 0.40625 17.0938 0.40625C17.0594 0.40625 17.0312 0.390625 17.0312 0.375C17.0312 0.35625 16.9969 0.34375 16.9563 0.34375C16.9125 0.34375 16.8687 0.328125 16.8594 0.3125C16.85 0.29375 16.8125 0.28125 16.7781 0.28125C16.7469 0.28125 16.7188 0.265625 16.7188 0.25C16.7188 0.23125 16.6906 0.21875 16.6562 0.21875C16.6219 0.21875 16.5938 0.203125 16.5938 0.1875C16.5938 0.16875 16.5656 0.15625 16.5312 0.15625C16.4969 0.15625 16.4688 0.140625 16.4688 0.125C16.4688 0.10625 16.4406 0.0937498 16.4094 0.0937498C16.375 0.0937498 16.3438 0.0781248 16.3375 0.0562498C16.325 0.0187498 15.8594 -0.00937521 15.7281 0.0187498ZM16.0938 2.1875C16.0938 2.20312 16.1219 2.21875 16.1562 2.21875C16.1906 2.21875 16.2188 2.23125 16.2188 2.25C16.2188 2.26562 16.2406 2.28125 16.2656 2.28125C16.2906 2.28125 16.3438 2.29688 16.3844 2.31875C16.5312 2.39375 16.5625 2.40625 16.6094 2.40625C16.6344 2.40625 16.6562 2.41875 16.6562 2.4375C16.6562 2.45312 16.6844 2.46875 16.7188 2.46875C16.7531 2.46875 16.7812 2.48125 16.7812 2.5C16.7812 2.51562 16.8094 2.53125 16.8438 2.53125C16.8781 2.53125 16.9062 2.54375 16.9062 2.5625C16.9062 2.57812 16.9281 2.59375 16.9531 2.59375C17 2.59375 17.0312 2.60625 17.1781 2.68125C17.2188 2.70312 17.2719 2.71875 17.2969 2.71875C17.3219 2.71875 17.3438 2.73125 17.3438 2.75C17.3438 2.76562 17.3719 2.78125 17.4062 2.78125C17.4406 2.78125 17.4688 2.79375 17.4688 2.8125C17.4688 2.82812 17.4969 2.84375 17.5312 2.84375C17.5656 2.84375 17.5938 2.85625 17.5938 2.875C17.5938 2.89062 17.6156 2.90625 17.6406 2.90625C17.6656 2.90625 17.7156 2.91875 17.75 2.9375C17.7844 2.95312 17.8406 2.98125 17.875 3C17.9094 3.01562 17.9594 3.03125 17.9844 3.03125C18.0094 3.03125 18.0312 3.04375 18.0312 3.0625C18.0312 3.07812 18.0594 3.09375 18.0938 3.09375C18.1281 3.09375 18.1562 3.10625 18.1562 3.125C18.1562 3.14062 18.1844 3.15625 18.2188 3.15625C18.2531 3.15625 18.2812 3.16875 18.2812 3.1875C18.2812 3.20312 18.3031 3.21875 18.3281 3.21875C18.3531 3.21875 18.4031 3.23125 18.4375 3.25C18.4719 3.26562 18.5281 3.29375 18.5625 3.3125C18.5969 3.32812 18.6469 3.34375 18.6719 3.34375C18.6969 3.34375 18.7188 3.35625 18.7188 3.375C18.7188 3.39062 18.7469 3.40625 18.7812 3.40625C18.8156 3.40625 18.8438 3.41875 18.8438 3.4375C18.8438 3.45312 18.8719 3.46875 18.9062 3.46875C18.9406 3.46875 18.9688 3.48125 18.9688 3.5C18.9688 3.51562 18.9906 3.53125 19.0156 3.53125C19.0625 3.53125 19.0938 3.54375 19.2406 3.61875C19.2812 3.64062 19.3344 3.65625 19.3594 3.65625C19.3844 3.65625 19.4062 3.66875 19.4062 3.6875C19.4062 3.70312 19.4344 3.71875 19.4688 3.71875C19.5031 3.71875 19.5312 3.73125 19.5312 3.75C19.5312 3.76562 19.5594 3.78125 19.5938 3.78125C19.6281 3.78125 19.6562 3.79375 19.6562 3.8125C19.6562 3.82812 19.6781 3.84375 19.7031 3.84375C19.7281 3.84375 19.7812 3.85938 19.8219 3.88125C19.9688 3.95625 20 3.96875 20.0469 3.96875C20.0719 3.96875 20.0938 3.98125 20.0938 4C20.0938 4.01562 20.1219 4.03125 20.1562 4.03125C20.1906 4.03125 20.2188 4.04375 20.2188 4.0625C20.2188 4.07812 20.2469 4.09375 20.2812 4.09375C20.3156 4.09375 20.3438 4.10625 20.3438 4.125C20.3438 4.14062 20.3656 4.15625 20.3906 4.15625C20.4156 4.15625 20.4656 4.16875 20.5 4.1875C20.5344 4.20312 20.5906 4.23125 20.625 4.25C20.6594 4.26562 20.7094 4.28125 20.7344 4.28125C20.7594 4.28125 20.7812 4.29375 20.7812 4.3125C20.7812 4.32812 20.8094 4.34375 20.8438 4.34375C20.8781 4.34375 20.9062 4.35625 20.9062 4.375C20.9062 4.39062 20.9344 4.40625 20.9688 4.40625C21.0031 4.40625 21.0312 4.41875 21.0312 4.4375C21.0312 4.45312 21.0594 4.46875 21.0938 4.46875C21.1281 4.46875 21.1562 4.48125 21.1562 4.5C21.1562 4.51562 21.1906 4.53125 21.2313 4.53125C21.275 4.53125 21.3188 4.54375 21.3281 4.5625C21.3375 4.57812 21.375 4.59375 21.4094 4.59375C21.4406 4.59375 21.4688 4.60625 21.4688 4.625C21.4688 4.64062 21.4969 4.65625 21.5312 4.65625C21.5656 4.65625 21.5938 4.66875 21.5938 4.6875C21.5938 4.70312 21.6219 4.71875 21.6562 4.71875C21.6906 4.71875 21.7188 4.73125 21.7188 4.75C21.7188 4.76562 21.7469 4.78125 21.7812 4.78125C21.8156 4.78125 21.8438 4.79375 21.8438 4.8125C21.8438 4.82812 21.8781 4.84375 21.9188 4.84375C21.9625 4.84375 22.0063 4.85625 22.0156 4.875C22.025 4.89062 22.0625 4.90625 22.0969 4.90625C22.1281 4.90625 22.1562 4.91875 22.1562 4.9375C22.1562 4.95312 22.1844 4.96875 22.2188 4.96875C22.2531 4.96875 22.2812 4.98125 22.2812 5C22.2812 5.01562 22.3094 5.03125 22.3438 5.03125C22.3781 5.03125 22.4062 5.04375 22.4062 5.0625C22.4062 5.07812 22.4344 5.09375 22.4688 5.09375C22.5031 5.09375 22.5312 5.10625 22.5312 5.125C22.5312 5.14062 22.5656 5.15625 22.6063 5.15625C22.65 5.15625 22.6938 5.16875 22.7031 5.1875C22.7125 5.20312 22.75 5.21875 22.7844 5.21875C22.8156 5.21875 22.8438 5.23125 22.8438 5.25C22.8438 5.26562 22.8719 5.28125 22.9062 5.28125C22.9406 5.28125 22.9688 5.29375 22.9688 5.3125C22.9688 5.32812 22.9969 5.34375 23.0312 5.34375C23.0656 5.34375 23.0938 5.35625 23.0938 5.375C23.0938 5.39062 23.1219 5.40625 23.1562 5.40625C23.1906 5.40625 23.2188 5.41875 23.2188 5.4375C23.2188 5.45312 23.2531 5.46875 23.2938 5.46875C23.3375 5.46875 23.3813 5.48125 23.3906 5.5C23.4 5.51562 23.4375 5.53125 23.4719 5.53125C23.5031 5.53125 23.5312 5.54375 23.5312 5.5625C23.5312 5.57812 23.5594 5.59375 23.5938 5.59375C23.6281 5.59375 23.6562 5.60625 23.6562 5.625C23.6562 5.64062 23.6844 5.65625 23.7188 5.65625C23.7531 5.65625 23.7812 5.66875 23.7812 5.6875C23.7812 5.70312 23.8094 5.71875 23.8438 5.71875C23.8781 5.71875 23.9062 5.73125 23.9062 5.75C23.9062 5.76562 23.9406 5.78125 23.9813 5.78125C24.025 5.78125 24.0688 5.79375 24.0781 5.8125C24.0875 5.82812 24.125 5.84375 24.1594 5.84375C24.1906 5.84375 24.2188 5.85625 24.2188 5.875C24.2188 5.89062 24.2469 5.90625 24.2812 5.90625C24.3156 5.90625 24.3438 5.91875 24.3438 5.9375C24.3438 5.95312 24.3719 5.96875 24.4062 5.96875C24.4406 5.96875 24.4688 5.98125 24.4688 6C24.4688 6.01562 24.4969 6.03125 24.5312 6.03125C24.5656 6.03125 24.5938 6.04375 24.5938 6.0625C24.5938 6.07812 24.6281 6.09375 24.6688 6.09375C24.7125 6.09375 24.7563 6.10625 24.7656 6.125C24.775 6.14062 24.8125 6.15625 24.8469 6.15625C24.8781 6.15625 24.9062 6.16875 24.9062 6.1875C24.9062 6.20312 24.9344 6.21875 24.9688 6.21875C25.0031 6.21875 25.0312 6.23125 25.0312 6.25C25.0312 6.26562 25.0594 6.28125 25.0938 6.28125C25.1281 6.28125 25.1562 6.29375 25.1562 6.3125C25.1562 6.32812 25.1844 6.34375 25.2188 6.34375C25.2531 6.34375 25.2812 6.35625 25.2812 6.375C25.2812 6.39062 25.3156 6.40625 25.3563 6.40625C25.4 6.40625 25.4438 6.41875 25.4531 6.4375C25.4625 6.45312 25.5 6.46875 25.5344 6.46875C25.5656 6.46875 25.5938 6.48125 25.5938 6.5C25.5938 6.51562 25.6219 6.53125 25.6562 6.53125C25.6906 6.53125 25.7188 6.54375 25.7188 6.5625C25.7188 6.57812 25.7469 6.59375 25.7812 6.59375C25.8156 6.59375 25.8438 6.60625 25.8438 6.625C25.8438 6.64062 25.8719 6.65625 25.9062 6.65625C25.9406 6.65625 25.9688 6.66875 25.9688 6.6875C25.9688 6.70312 26.0031 6.71875 26.0438 6.71875C26.0875 6.71875 26.1313 6.73125 26.1406 6.75C26.15 6.76562 26.1875 6.78125 26.2219 6.78125C26.2531 6.78125 26.2812 6.79375 26.2812 6.8125C26.2812 6.82812 26.3094 6.84375 26.3438 6.84375C26.3781 6.84375 26.4062 6.85625 26.4062 6.875C26.4062 6.89062 26.4344 6.90625 26.4688 6.90625C26.5031 6.90625 26.5312 6.91875 26.5312 6.9375C26.5312 6.95312 26.5594 6.96875 26.5938 6.96875C26.6281 6.96875 26.6562 6.98125 26.6562 7C26.6562 7.01562 26.6906 7.03125 26.7313 7.03125C26.775 7.03125 26.8188 7.04375 26.8281 7.0625C26.8375 7.07812 26.875 7.09375 26.9094 7.09375C26.9406 7.09375 26.9688 7.10625 26.9688 7.125C26.9688 7.14062 26.9969 7.15625 27.0312 7.15625C27.0656 7.15625 27.0938 7.16875 27.0938 7.1875C27.0938 7.20312 27.1219 7.21875 27.1562 7.21875C27.1906 7.21875 27.2188 7.23125 27.2188 7.25C27.2188 7.26562 27.2469 7.28125 27.2812 7.28125C27.3156 7.28125 27.3438 7.29375 27.3438 7.3125C27.3438 7.32812 27.3719 7.34375 27.4031 7.34375C27.4375 7.34375 27.475 7.35625 27.4844 7.375C27.4937 7.39062 27.5375 7.40625 27.5813 7.40625C27.6219 7.40625 27.6562 7.41875 27.6562 7.4375C27.6562 7.45312 27.6844 7.46875 27.7188 7.46875C27.7531 7.46875 27.7812 7.48125 27.7812 7.5C27.7812 7.51562 27.8094 7.53125 27.8438 7.53125C27.8781 7.53125 27.9062 7.54375 27.9062 7.5625C27.9062 7.57812 27.9344 7.59375 27.9688 7.59375C28.0031 7.59375 28.0312 7.60625 28.0312 7.625C28.0312 7.64062 28.0594 7.65625 28.0906 7.65625C28.125 7.65625 28.1625 7.66875 28.1719 7.6875C28.1812 7.70312 28.225 7.71875 28.2688 7.71875C28.3094 7.71875 28.3438 7.73125 28.3438 7.75C28.3438 7.76562 28.3719 7.78125 28.4062 7.78125C28.4406 7.78125 28.4688 7.79375 28.4688 7.8125C28.4688 7.82812 28.4969 7.84375 28.5312 7.84375C28.5656 7.84375 28.5938 7.85625 28.5938 7.875C28.5938 7.89062 28.6219 7.90625 28.6562 7.90625C28.6906 7.90625 28.7188 7.91875 28.7188 7.9375C28.7188 7.95312 28.7469 7.96875 28.7781 7.96875C28.8125 7.96875 28.85 7.98125 28.8594 8C28.8687 8.01562 28.9125 8.03125 28.9563 8.03125C28.9969 8.03125 29.0312 8.04375 29.0312 8.0625C29.0312 8.07812 29.0594 8.09375 29.0938 8.09375C29.1281 8.09375 29.1562 8.10625 29.1562 8.125C29.1562 8.14062 29.1844 8.15625 29.2188 8.15625C29.2531 8.15625 29.2812 8.16875 29.2812 8.1875C29.2812 8.20312 29.3094 8.21875 29.3438 8.21875C29.3781 8.21875 29.4062 8.23125 29.4062 8.25C29.4062 8.26562 29.4344 8.28125 29.4656 8.28125C29.5 8.28125 29.5375 8.29375 29.5469 8.3125C29.5562 8.32812 29.6 8.34375 29.6438 8.34375C29.6844 8.34375 29.7188 8.35625 29.7188 8.375C29.7188 8.39062 29.7469 8.40625 29.7812 8.40625C29.8156 8.40625 29.8438 8.41875 29.8438 8.4375C29.8438 8.45312 29.8719 8.46875 29.9062 8.46875C29.9406 8.46875 29.9688 8.48125 29.9688 8.5C29.9688 8.51562 29.9969 8.53125 30.0312 8.53125C30.0938 8.53125 30.0938 8.55312 30.0938 19.3125V30.0938H26.4062V28.2812H28.2812V18.7812H27C25.7406 18.7812 25.7188 18.7812 25.7188 18.7188C25.7188 18.6844 25.7062 18.6562 25.6875 18.6562C25.6719 18.6562 25.6562 18.6281 25.6562 18.5938C25.6562 18.5594 25.6437 18.5312 25.625 18.5312C25.6094 18.5312 25.5938 18.5031 25.5938 18.4688C25.5938 18.4344 25.5812 18.4062 25.5625 18.4062C25.5469 18.4062 25.5312 18.3781 25.5312 18.3438C25.5312 18.3094 25.5187 18.2812 25.5 18.2812C25.4844 18.2812 25.4688 18.2531 25.4688 18.2188C25.4688 18.1844 25.4562 18.1562 25.4375 18.1562C25.4219 18.1562 25.4062 18.1281 25.4062 18.0938C25.4062 18.0594 25.3937 18.0312 25.375 18.0312C25.3594 18.0312 25.3438 18.0031 25.3438 17.9688C25.3438 17.9344 25.3312 17.9062 25.3125 17.9062C25.2969 17.9062 25.2812 17.8781 25.2812 17.8438C25.2812 17.8094 25.2687 17.7812 25.25 17.7812C25.2344 17.7812 25.2188 17.7531 25.2188 17.7188C25.2188 17.6844 25.2062 17.6562 25.1875 17.6562C25.1719 17.6562 25.1562 17.6281 25.1562 17.5938C25.1562 17.5594 25.1437 17.5312 25.125 17.5312C25.1094 17.5312 25.0938 17.5031 25.0938 17.4688C25.0938 17.4344 25.0812 17.4062 25.0625 17.4062C25.0469 17.4062 25.0312 17.3781 25.0312 17.3438C25.0312 17.3094 25.0187 17.2812 25 17.2812C24.9844 17.2812 24.9688 17.2531 24.9688 17.2188C24.9688 17.1844 24.9562 17.1562 24.9375 17.1562C24.9219 17.1562 24.9062 17.1281 24.9062 17.0938C24.9062 17.0594 24.8937 17.0312 24.875 17.0312C24.8594 17.0312 24.8438 17.0031 24.8438 16.9688C24.8438 16.9344 24.8312 16.9062 24.8125 16.9062C24.7969 16.9062 24.7812 16.8781 24.7812 16.8438C24.7812 16.8094 24.7687 16.7812 24.75 16.7812C24.7344 16.7812 24.7188 16.7531 24.7188 16.7188C24.7188 16.6844 24.7062 16.6562 24.6875 16.6562C24.6719 16.6562 24.6562 16.6281 24.6562 16.5938C24.6562 16.5594 24.6437 16.5312 24.625 16.5312C24.6094 16.5312 24.5938 16.5031 24.5938 16.4688C24.5938 16.4344 24.5812 16.4062 24.5625 16.4062C24.5469 16.4062 24.5312 16.3781 24.5312 16.3438C24.5312 16.3094 24.5187 16.2812 24.5 16.2812C24.4844 16.2812 24.4688 16.2531 24.4688 16.2188C24.4688 16.1844 24.4562 16.1562 24.4375 16.1562C24.4219 16.1562 24.4062 16.1281 24.4062 16.0938C24.4062 16.0594 24.3937 16.0312 24.375 16.0312C24.3594 16.0312 24.3438 16.0031 24.3438 15.9688C24.3438 15.9344 24.3312 15.9062 24.3125 15.9062C24.2969 15.9062 24.2812 15.8781 24.2812 15.8438C24.2812 15.8094 24.2687 15.7812 24.25 15.7812C24.2344 15.7812 24.2188 15.7531 24.2188 15.7188C24.2188 15.6844 24.2062 15.6562 24.1875 15.6562C24.1719 15.6562 24.1562 15.6281 24.1562 15.5938C24.1562 15.5594 24.1437 15.5312 24.125 15.5312C24.1094 15.5312 24.0938 15.5031 24.0938 15.4688C24.0938 15.4344 24.0812 15.4062 24.0625 15.4062C24.0469 15.4062 24.0312 15.3781 24.0312 15.3438C24.0312 15.3094 24.0187 15.2812 24 15.2812C23.9844 15.2812 23.9688 15.2531 23.9688 15.2188C23.9688 15.1844 23.9562 15.1562 23.9375 15.1562C23.9219 15.1562 23.9062 15.1281 23.9062 15.0938C23.9062 15.0594 23.8937 15.0312 23.875 15.0312C23.8594 15.0312 23.8438 15.0031 23.8438 14.9688C23.8438 14.9344 23.8312 14.9062 23.8125 14.9062C23.7969 14.9062 23.7812 14.8781 23.7812 14.8438C23.7812 14.8094 23.7687 14.7812 23.75 14.7812C23.7344 14.7812 23.7188 14.7531 23.7188 14.7188C23.7188 14.6844 23.7062 14.6562 23.6875 14.6562C23.6719 14.6562 23.6562 14.6281 23.6562 14.5938C23.6562 14.5594 23.6437 14.5312 23.625 14.5312C23.6094 14.5312 23.5938 14.5031 23.5938 14.4688C23.5938 14.4344 23.5812 14.4062 23.5625 14.4062C23.5469 14.4062 23.5312 14.3781 23.5312 14.3438C23.5312 14.3094 23.5187 14.2812 23.5 14.2812C23.4844 14.2812 23.4688 14.2531 23.4688 14.2188C23.4688 14.1844 23.4562 14.1562 23.4375 14.1562C23.4219 14.1562 23.4062 14.1281 23.4062 14.0938C23.4062 14.0594 23.3937 14.0312 23.375 14.0312C23.3594 14.0312 23.3438 14.0031 23.3438 13.9688C23.3438 13.9344 23.3312 13.9062 23.3125 13.9062C23.2969 13.9062 23.2812 13.8781 23.2812 13.8438C23.2812 13.8094 23.2687 13.7812 23.25 13.7812C23.2344 13.7812 23.2188 13.7531 23.2188 13.7188C23.2188 13.6844 23.2062 13.6562 23.1875 13.6562C23.1719 13.6562 23.1562 13.6281 23.1562 13.5938C23.1562 13.5594 23.1437 13.5312 23.125 13.5312C23.1094 13.5312 23.0938 13.5031 23.0938 13.4688C23.0938 13.4344 23.0812 13.4062 23.0625 13.4062C23.0469 13.4062 23.0312 13.3781 23.0312 13.3438C23.0312 13.3094 23.0187 13.2812 23 13.2812C22.9844 13.2812 22.9688 13.2531 22.9688 13.2188C22.9688 13.1844 22.9562 13.1562 22.9375 13.1562C22.9219 13.1562 22.9062 13.1281 22.9062 13.0938C22.9062 13.0594 22.8937 13.0312 22.875 13.0312C22.8594 13.0312 22.8438 13.0031 22.8438 12.9688C22.8438 12.9344 22.8312 12.9062 22.8125 12.9062C22.7969 12.9062 22.7812 12.8781 22.7812 12.8438C22.7812 12.8094 22.7687 12.7812 22.75 12.7812C22.7344 12.7812 22.7188 12.7531 22.7188 12.7188C22.7188 12.6844 22.7062 12.6562 22.6875 12.6562C22.6719 12.6562 22.6562 12.6281 22.6562 12.5938C22.6562 12.5312 22.6344 12.5312 16 12.5312C9.36563 12.5312 9.34375 12.5312 9.34375 12.5938C9.34375 12.6281 9.33125 12.6562 9.3125 12.6562C9.29688 12.6562 9.28125 12.6844 9.28125 12.7188C9.28125 12.7531 9.26875 12.7812 9.25 12.7812C9.23438 12.7812 9.21875 12.8094 9.21875 12.8438C9.21875 12.8781 9.20625 12.9062 9.1875 12.9062C9.17188 12.9062 9.15625 12.9344 9.15625 12.9688C9.15625 13.0031 9.14375 13.0312 9.125 13.0312C9.10938 13.0312 9.09375 13.0594 9.09375 13.0938C9.09375 13.1281 9.08125 13.1562 9.0625 13.1562C9.04688 13.1562 9.03125 13.1844 9.03125 13.2188C9.03125 13.2531 9.01875 13.2812 9 13.2812C8.98438 13.2812 8.96875 13.3094 8.96875 13.3438C8.96875 13.3781 8.95625 13.4062 8.9375 13.4062C8.92188 13.4062 8.90625 13.4344 8.90625 13.4688C8.90625 13.5031 8.89375 13.5312 8.875 13.5312C8.85938 13.5312 8.84375 13.5594 8.84375 13.5938C8.84375 13.6281 8.83125 13.6562 8.8125 13.6562C8.79688 13.6562 8.78125 13.6844 8.78125 13.7188C8.78125 13.7531 8.76875 13.7812 8.75 13.7812C8.73438 13.7812 8.71875 13.8094 8.71875 13.8438C8.71875 13.8781 8.70625 13.9062 8.6875 13.9062C8.67188 13.9062 8.65625 13.9344 8.65625 13.9688C8.65625 14.0031 8.64375 14.0312 8.625 14.0312C8.60938 14.0312 8.59375 14.0594 8.59375 14.0938C8.59375 14.1281 8.58125 14.1562 8.5625 14.1562C8.54688 14.1562 8.53125 14.1844 8.53125 14.2188C8.53125 14.2531 8.51875 14.2812 8.5 14.2812C8.48438 14.2812 8.46875 14.3094 8.46875 14.3438C8.46875 14.3781 8.45625 14.4062 8.4375 14.4062C8.42188 14.4062 8.40625 14.4344 8.40625 14.4688C8.40625 14.5031 8.39375 14.5312 8.375 14.5312C8.35938 14.5312 8.34375 14.5594 8.34375 14.5938C8.34375 14.6281 8.33125 14.6562 8.3125 14.6562C8.29688 14.6562 8.28125 14.6844 8.28125 14.7188C8.28125 14.7531 8.26875 14.7812 8.25 14.7812C8.23438 14.7812 8.21875 14.8094 8.21875 14.8438C8.21875 14.8781 8.20625 14.9062 8.1875 14.9062C8.17188 14.9062 8.15625 14.9344 8.15625 14.9688C8.15625 15.0031 8.14375 15.0312 8.125 15.0312C8.10938 15.0312 8.09375 15.0594 8.09375 15.0938C8.09375 15.1281 8.08125 15.1562 8.0625 15.1562C8.04688 15.1562 8.03125 15.1844 8.03125 15.2188C8.03125 15.2531 8.01875 15.2812 8 15.2812C7.98438 15.2812 7.96875 15.3094 7.96875 15.3438C7.96875 15.3781 7.95625 15.4062 7.9375 15.4062C7.92188 15.4062 7.90625 15.4344 7.90625 15.4688C7.90625 15.5031 7.89375 15.5312 7.875 15.5312C7.85938 15.5312 7.84375 15.5594 7.84375 15.5938C7.84375 15.6281 7.83125 15.6562 7.8125 15.6562C7.79688 15.6562 7.78125 15.6844 7.78125 15.7188C7.78125 15.7531 7.76875 15.7812 7.75 15.7812C7.73438 15.7812 7.71875 15.8094 7.71875 15.8438C7.71875 15.8781 7.70625 15.9062 7.6875 15.9062C7.67188 15.9062 7.65625 15.9344 7.65625 15.9688C7.65625 16.0031 7.64375 16.0312 7.625 16.0312C7.60938 16.0312 7.59375 16.0594 7.59375 16.0938C7.59375 16.1281 7.58125 16.1562 7.5625 16.1562C7.54688 16.1562 7.53125 16.1844 7.53125 16.2188C7.53125 16.2531 7.51875 16.2812 7.5 16.2812C7.48438 16.2812 7.46875 16.3094 7.46875 16.3438C7.46875 16.3781 7.45625 16.4062 7.4375 16.4062C7.42188 16.4062 7.40625 16.4344 7.40625 16.4688C7.40625 16.5031 7.39375 16.5312 7.375 16.5312C7.35938 16.5312 7.34375 16.5594 7.34375 16.5938C7.34375 16.6281 7.33125 16.6562 7.3125 16.6562C7.29688 16.6562 7.28125 16.6844 7.28125 16.7188C7.28125 16.7531 7.26875 16.7812 7.25 16.7812C7.23438 16.7812 7.21875 16.8094 7.21875 16.8438C7.21875 16.8781 7.20625 16.9062 7.1875 16.9062C7.17188 16.9062 7.15625 16.9344 7.15625 16.9688C7.15625 17.0031 7.14375 17.0312 7.125 17.0312C7.10938 17.0312 7.09375 17.0594 7.09375 17.0938C7.09375 17.1281 7.08125 17.1562 7.0625 17.1562C7.04688 17.1562 7.03125 17.1844 7.03125 17.2188C7.03125 17.2531 7.01875 17.2812 7 17.2812C6.98438 17.2812 6.96875 17.3094 6.96875 17.3438C6.96875 17.3781 6.95625 17.4062 6.9375 17.4062C6.92188 17.4062 6.90625 17.4344 6.90625 17.4688C6.90625 17.5031 6.89375 17.5312 6.875 17.5312C6.85938 17.5312 6.84375 17.5594 6.84375 17.5938C6.84375 17.6281 6.83125 17.6562 6.8125 17.6562C6.79688 17.6562 6.78125 17.6844 6.78125 17.7188C6.78125 17.7531 6.76875 17.7812 6.75 17.7812C6.73438 17.7812 6.71875 17.8094 6.71875 17.8438C6.71875 17.8781 6.70625 17.9062 6.6875 17.9062C6.67188 17.9062 6.65625 17.9344 6.65625 17.9688C6.65625 18.0031 6.64375 18.0312 6.625 18.0312C6.60938 18.0312 6.59375 18.0594 6.59375 18.0938C6.59375 18.1281 6.58125 18.1562 6.5625 18.1562C6.54688 18.1562 6.53125 18.1844 6.53125 18.2188C6.53125 18.2531 6.51875 18.2812 6.5 18.2812C6.48438 18.2812 6.46875 18.3094 6.46875 18.3438C6.46875 18.3781 6.45625 18.4062 6.4375 18.4062C6.42188 18.4062 6.40625 18.4344 6.40625 18.4688C6.40625 18.5031 6.39375 18.5312 6.375 18.5312C6.35938 18.5312 6.34375 18.5594 6.34375 18.5938C6.34375 18.6281 6.33125 18.6562 6.3125 18.6562C6.29688 18.6562 6.28125 18.6844 6.28125 18.7188C6.28125 18.7812 6.25938 18.7812 5 18.7812H3.71875V28.2812H5.59375V30.0938H1.90625V19.3125C1.90625 8.55312 1.90625 8.53125 1.96875 8.53125C2.00312 8.53125 2.03125 8.51562 2.03125 8.5C2.03125 8.48125 2.05938 8.46875 2.09375 8.46875C2.12812 8.46875 2.15625 8.45312 2.15625 8.4375C2.15625 8.41875 2.18438 8.40625 2.21875 8.40625C2.25312 8.40625 2.28125 8.39062 2.28125 8.375C2.28125 8.35625 2.31562 8.34375 2.35625 8.34375C2.4 8.34375 2.44375 8.32812 2.45312 8.3125C2.4625 8.29375 2.5 8.28125 2.53437 8.28125C2.56562 8.28125 2.59375 8.26562 2.59375 8.25C2.59375 8.23125 2.62188 8.21875 2.65625 8.21875C2.69062 8.21875 2.71875 8.20312 2.71875 8.1875C2.71875 8.16875 2.74688 8.15625 2.78125 8.15625C2.81562 8.15625 2.84375 8.14062 2.84375 8.125C2.84375 8.10625 2.87188 8.09375 2.90625 8.09375C2.94062 8.09375 2.96875 8.07812 2.96875 8.0625C2.96875 8.04375 3.00312 8.03125 3.04375 8.03125C3.0875 8.03125 3.13125 8.01562 3.14062 8C3.15 7.98125 3.1875 7.96875 3.22187 7.96875C3.25312 7.96875 3.28125 7.95312 3.28125 7.9375C3.28125 7.91875 3.30938 7.90625 3.34375 7.90625C3.37812 7.90625 3.40625 7.89062 3.40625 7.875C3.40625 7.85625 3.43438 7.84375 3.46875 7.84375C3.50312 7.84375 3.53125 7.82812 3.53125 7.8125C3.53125 7.79375 3.55938 7.78125 3.59375 7.78125C3.62812 7.78125 3.65625 7.76562 3.65625 7.75C3.65625 7.73125 3.69062 7.71875 3.73125 7.71875C3.775 7.71875 3.81875 7.70312 3.82812 7.6875C3.8375 7.66875 3.875 7.65625 3.90937 7.65625C3.94062 7.65625 3.96875 7.64062 3.96875 7.625C3.96875 7.60625 3.99688 7.59375 4.03125 7.59375C4.06563 7.59375 4.09375 7.57812 4.09375 7.5625C4.09375 7.54375 4.12187 7.53125 4.15625 7.53125C4.19063 7.53125 4.21875 7.51562 4.21875 7.5C4.21875 7.48125 4.24687 7.46875 4.28125 7.46875C4.31563 7.46875 4.34375 7.45312 4.34375 7.4375C4.34375 7.41875 4.37813 7.40625 4.41875 7.40625C4.4625 7.40625 4.50625 7.39062 4.51562 7.375C4.525 7.35625 4.5625 7.34375 4.59688 7.34375C4.62813 7.34375 4.65625 7.32812 4.65625 7.3125C4.65625 7.29375 4.68437 7.28125 4.71875 7.28125C4.75313 7.28125 4.78125 7.26562 4.78125 7.25C4.78125 7.23125 4.80937 7.21875 4.84375 7.21875C4.87813 7.21875 4.90625 7.20312 4.90625 7.1875C4.90625 7.16875 4.93437 7.15625 4.96875 7.15625C5.00313 7.15625 5.03125 7.14062 5.03125 7.125C5.03125 7.10625 5.05938 7.09375 5.09063 7.09375C5.125 7.09375 5.1625 7.07812 5.17188 7.0625C5.18125 7.04375 5.225 7.03125 5.26875 7.03125C5.30938 7.03125 5.34375 7.01562 5.34375 7C5.34375 6.98125 5.37187 6.96875 5.40625 6.96875C5.44063 6.96875 5.46875 6.95312 5.46875 6.9375C5.46875 6.91875 5.49687 6.90625 5.53125 6.90625C5.56563 6.90625 5.59375 6.89062 5.59375 6.875C5.59375 6.85625 5.62187 6.84375 5.65625 6.84375C5.69063 6.84375 5.71875 6.82812 5.71875 6.8125C5.71875 6.79375 5.74688 6.78125 5.77813 6.78125C5.8125 6.78125 5.85 6.76562 5.85938 6.75C5.86875 6.73125 5.9125 6.71875 5.95625 6.71875C5.99688 6.71875 6.03125 6.70312 6.03125 6.6875C6.03125 6.66875 6.05937 6.65625 6.09375 6.65625C6.12813 6.65625 6.15625 6.64062 6.15625 6.625C6.15625 6.60625 6.18437 6.59375 6.21875 6.59375C6.25313 6.59375 6.28125 6.57812 6.28125 6.5625C6.28125 6.54375 6.30937 6.53125 6.34375 6.53125C6.37813 6.53125 6.40625 6.51562 6.40625 6.5C6.40625 6.48125 6.43438 6.46875 6.46563 6.46875C6.5 6.46875 6.5375 6.45312 6.54688 6.4375C6.55625 6.41875 6.6 6.40625 6.64375 6.40625C6.68438 6.40625 6.71875 6.39062 6.71875 6.375C6.71875 6.35625 6.74687 6.34375 6.78125 6.34375C6.81563 6.34375 6.84375 6.32812 6.84375 6.3125C6.84375 6.29375 6.87187 6.28125 6.90625 6.28125C6.94063 6.28125 6.96875 6.26562 6.96875 6.25C6.96875 6.23125 6.99687 6.21875 7.03125 6.21875C7.06563 6.21875 7.09375 6.20312 7.09375 6.1875C7.09375 6.16875 7.12188 6.15625 7.15313 6.15625C7.1875 6.15625 7.225 6.14062 7.23438 6.125C7.24375 6.10625 7.2875 6.09375 7.33125 6.09375C7.37188 6.09375 7.40625 6.07812 7.40625 6.0625C7.40625 6.04375 7.43437 6.03125 7.46875 6.03125C7.50313 6.03125 7.53125 6.01562 7.53125 6C7.53125 5.98125 7.55937 5.96875 7.59375 5.96875C7.62813 5.96875 7.65625 5.95312 7.65625 5.9375C7.65625 5.91875 7.68437 5.90625 7.71875 5.90625C7.75313 5.90625 7.78125 5.89062 7.78125 5.875C7.78125 5.85625 7.80938 5.84375 7.84063 5.84375C7.875 5.84375 7.9125 5.82812 7.92188 5.8125C7.93125 5.79375 7.975 5.78125 8.01875 5.78125C8.05937 5.78125 8.09375 5.76562 8.09375 5.75C8.09375 5.73125 8.12187 5.71875 8.15625 5.71875C8.19063 5.71875 8.21875 5.70312 8.21875 5.6875C8.21875 5.66875 8.24687 5.65625 8.28125 5.65625C8.31563 5.65625 8.34375 5.64062 8.34375 5.625C8.34375 5.60625 8.37187 5.59375 8.40625 5.59375C8.44063 5.59375 8.46875 5.57812 8.46875 5.5625C8.46875 5.54375 8.49687 5.53125 8.52812 5.53125C8.5625 5.53125 8.6 5.51562 8.60938 5.5C8.61875 5.48125 8.6625 5.46875 8.70625 5.46875C8.74687 5.46875 8.78125 5.45312 8.78125 5.4375C8.78125 5.41875 8.80937 5.40625 8.84375 5.40625C8.87813 5.40625 8.90625 5.39062 8.90625 5.375C8.90625 5.35625 8.93437 5.34375 8.96875 5.34375C9.00313 5.34375 9.03125 5.32812 9.03125 5.3125C9.03125 5.29375 9.05937 5.28125 9.09375 5.28125C9.12813 5.28125 9.15625 5.26562 9.15625 5.25C9.15625 5.23125 9.18437 5.21875 9.21562 5.21875C9.25 5.21875 9.2875 5.20312 9.29688 5.1875C9.30625 5.16875 9.35 5.15625 9.39375 5.15625C9.43437 5.15625 9.46875 5.14062 9.46875 5.125C9.46875 5.10625 9.49687 5.09375 9.53125 5.09375C9.56563 5.09375 9.59375 5.07812 9.59375 5.0625C9.59375 5.04375 9.62187 5.03125 9.65625 5.03125C9.69063 5.03125 9.71875 5.01562 9.71875 5C9.71875 4.98125 9.74687 4.96875 9.78125 4.96875C9.81563 4.96875 9.84375 4.95312 9.84375 4.9375C9.84375 4.91875 9.87187 4.90625 9.90312 4.90625C9.9375 4.90625 9.975 4.89062 9.98438 4.875C9.99375 4.85625 10.0375 4.84375 10.0813 4.84375C10.1219 4.84375 10.1562 4.82812 10.1562 4.8125C10.1562 4.79375 10.1844 4.78125 10.2188 4.78125C10.2531 4.78125 10.2812 4.76562 10.2812 4.75C10.2812 4.73125 10.3094 4.71875 10.3438 4.71875C10.3781 4.71875 10.4062 4.70312 10.4062 4.6875C10.4062 4.66875 10.4344 4.65625 10.4688 4.65625C10.5031 4.65625 10.5312 4.64062 10.5312 4.625C10.5312 4.60625 10.5594 4.59375 10.5906 4.59375C10.625 4.59375 10.6625 4.57812 10.6719 4.5625C10.6812 4.54375 10.725 4.53125 10.7688 4.53125C10.8094 4.53125 10.8438 4.51562 10.8438 4.5C10.8438 4.48125 10.8719 4.46875 10.9062 4.46875C10.9406 4.46875 10.9688 4.45312 10.9688 4.4375C10.9688 4.41875 10.9969 4.40625 11.0312 4.40625C11.0656 4.40625 11.0938 4.39062 11.0938 4.375C11.0938 4.35625 11.1219 4.34375 11.1562 4.34375C11.1906 4.34375 11.2188 4.32812 11.2188 4.3125C11.2188 4.29375 11.2406 4.28125 11.2656 4.28125C11.2906 4.28125 11.3406 4.26562 11.375 4.25C11.4094 4.23125 11.4656 4.20312 11.5 4.1875C11.5344 4.16875 11.5844 4.15625 11.6094 4.15625C11.6344 4.15625 11.6562 4.14062 11.6562 4.125C11.6562 4.10625 11.6844 4.09375 11.7188 4.09375C11.7531 4.09375 11.7812 4.07812 11.7812 4.0625C11.7812 4.04375 11.8094 4.03125 11.8438 4.03125C11.8781 4.03125 11.9062 4.01562 11.9062 4C11.9062 3.98125 11.9281 3.96875 11.9531 3.96875C11.9781 3.96875 12.0313 3.95312 12.0719 3.93125C12.2188 3.85625 12.25 3.84375 12.2969 3.84375C12.3219 3.84375 12.3438 3.82812 12.3438 3.8125C12.3438 3.79375 12.3719 3.78125 12.4062 3.78125C12.4406 3.78125 12.4688 3.76562 12.4688 3.75C12.4688 3.73125 12.4969 3.71875 12.5312 3.71875C12.5656 3.71875 12.5938 3.70312 12.5938 3.6875C12.5938 3.66875 12.6156 3.65625 12.6406 3.65625C12.6656 3.65625 12.7156 3.64062 12.75 3.625C12.7844 3.60625 12.8406 3.57812 12.875 3.5625C12.9094 3.54375 12.9594 3.53125 12.9844 3.53125C13.0094 3.53125 13.0312 3.51562 13.0312 3.5C13.0312 3.48125 13.0594 3.46875 13.0938 3.46875C13.1281 3.46875 13.1562 3.45312 13.1562 3.4375C13.1562 3.41875 13.1844 3.40625 13.2188 3.40625C13.2531 3.40625 13.2812 3.39062 13.2812 3.375C13.2812 3.35625 13.3031 3.34375 13.3281 3.34375C13.3531 3.34375 13.4031 3.32812 13.4375 3.3125C13.4719 3.29375 13.5281 3.26562 13.5625 3.25C13.5969 3.23125 13.6469 3.21875 13.6719 3.21875C13.6969 3.21875 13.7188 3.20312 13.7188 3.1875C13.7188 3.16875 13.7469 3.15625 13.7812 3.15625C13.8156 3.15625 13.8438 3.14062 13.8438 3.125C13.8438 3.10625 13.8719 3.09375 13.9062 3.09375C13.9406 3.09375 13.9688 3.07812 13.9688 3.0625C13.9688 3.04375 13.9906 3.03125 14.0156 3.03125C14.0406 3.03125 14.0906 3.01562 14.125 3C14.1594 2.98125 14.2156 2.95312 14.25 2.9375C14.2844 2.91875 14.3344 2.90625 14.3594 2.90625C14.3844 2.90625 14.4062 2.89062 14.4062 2.875C14.4062 2.85625 14.4344 2.84375 14.4688 2.84375C14.5031 2.84375 14.5312 2.82812 14.5312 2.8125C14.5312 2.79375 14.5594 2.78125 14.5938 2.78125C14.6281 2.78125 14.6562 2.76562 14.6562 2.75C14.6562 2.73125 14.6781 2.71875 14.7031 2.71875C14.7281 2.71875 14.7781 2.70312 14.8125 2.6875C14.8469 2.66875 14.9031 2.64062 14.9375 2.625C14.9719 2.60625 15.0219 2.59375 15.0469 2.59375C15.0719 2.59375 15.0938 2.57812 15.0938 2.5625C15.0938 2.54375 15.1219 2.53125 15.1562 2.53125C15.1906 2.53125 15.2188 2.51562 15.2188 2.5C15.2188 2.48125 15.2469 2.46875 15.2812 2.46875C15.3156 2.46875 15.3438 2.45312 15.3438 2.4375C15.3438 2.41875 15.3656 2.40625 15.3906 2.40625C15.4156 2.40625 15.4656 2.39062 15.5 2.375C15.5344 2.35625 15.5906 2.32812 15.625 2.3125C15.6594 2.29375 15.7094 2.28125 15.7344 2.28125C15.7594 2.28125 15.7812 2.26562 15.7812 2.25C15.7812 2.23125 15.8094 2.21875 15.8438 2.21875C15.8781 2.21875 15.9062 2.20312 15.9062 2.1875C15.9062 2.16875 15.95 2.15625 16 2.15625C16.0531 2.15625 16.0938 2.16875 16.0938 2.1875ZM21.3625 14.575C21.3875 14.6 21.4062 14.6438 21.4062 14.6687C21.4062 14.6969 21.4219 14.7188 21.4375 14.7188C21.4562 14.7188 21.4688 14.7469 21.4688 14.7812C21.4688 14.8156 21.4844 14.8438 21.5 14.8438C21.5187 14.8438 21.5312 14.8719 21.5312 14.9062C21.5312 14.9406 21.5469 14.9688 21.5625 14.9688C21.5812 14.9688 21.5938 14.9969 21.5938 15.0312C21.5938 15.0656 21.6094 15.0938 21.625 15.0938C21.6437 15.0938 21.6562 15.1219 21.6562 15.1562C21.6562 15.1906 21.6719 15.2188 21.6875 15.2188C21.7062 15.2188 21.7188 15.2469 21.7188 15.2812C21.7188 15.3156 21.7344 15.3438 21.75 15.3438C21.7687 15.3438 21.7812 15.3719 21.7812 15.4062C21.7812 15.4406 21.7969 15.4688 21.8125 15.4688C21.8312 15.4688 21.8438 15.4969 21.8438 15.5312C21.8438 15.5656 21.8594 15.5938 21.875 15.5938C21.8937 15.5938 21.9062 15.6219 21.9062 15.6562C21.9062 15.6906 21.9219 15.7188 21.9375 15.7188C21.9562 15.7188 21.9688 15.7469 21.9688 15.7812C21.9688 15.8156 21.9844 15.8438 22 15.8438C22.0187 15.8438 22.0312 15.8719 22.0312 15.9062C22.0312 15.9406 22.0469 15.9688 22.0625 15.9688C22.0812 15.9688 22.0938 15.9969 22.0938 16.0312C22.0938 16.0656 22.1094 16.0938 22.125 16.0938C22.1437 16.0938 22.1562 16.1219 22.1562 16.1562C22.1562 16.1906 22.1719 16.2188 22.1875 16.2188C22.2062 16.2188 22.2188 16.2469 22.2188 16.2812C22.2188 16.3156 22.2344 16.3438 22.25 16.3438C22.2687 16.3438 22.2812 16.3719 22.2812 16.4062C22.2812 16.4406 22.2969 16.4688 22.3125 16.4688C22.3312 16.4688 22.3438 16.4969 22.3438 16.5312C22.3438 16.5656 22.3594 16.5938 22.375 16.5938C22.3937 16.5938 22.4062 16.6219 22.4062 16.6562C22.4062 16.6906 22.4219 16.7188 22.4375 16.7188C22.4562 16.7188 22.4688 16.7469 22.4688 16.7812C22.4688 16.8156 22.4844 16.8438 22.5 16.8438C22.5187 16.8438 22.5312 16.8719 22.5312 16.9062C22.5312 16.9406 22.5469 16.9688 22.5625 16.9688C22.5812 16.9688 22.5938 16.9969 22.5938 17.0312C22.5938 17.0656 22.6094 17.0938 22.625 17.0938C22.6437 17.0938 22.6562 17.1219 22.6562 17.1562C22.6562 17.1906 22.6719 17.2188 22.6875 17.2188C22.7062 17.2188 22.7188 17.2469 22.7188 17.2812C22.7188 17.3156 22.7344 17.3438 22.75 17.3438C22.7687 17.3438 22.7812 17.3719 22.7812 17.4062C22.7812 17.4406 22.7969 17.4688 22.8125 17.4688C22.8312 17.4688 22.8438 17.4969 22.8438 17.5312C22.8438 17.5656 22.8594 17.5938 22.875 17.5938C22.8937 17.5938 22.9062 17.6219 22.9062 17.6562C22.9062 17.6906 22.9219 17.7188 22.9375 17.7188C22.9562 17.7188 22.9688 17.7469 22.9688 17.7812C22.9688 17.8156 22.9844 17.8438 23 17.8438C23.0187 17.8438 23.0312 17.8719 23.0312 17.9062C23.0312 17.9406 23.0469 17.9688 23.0625 17.9688C23.0812 17.9688 23.0938 17.9969 23.0938 18.0312C23.0938 18.0656 23.1094 18.0938 23.125 18.0938C23.1437 18.0938 23.1562 18.1219 23.1562 18.1562C23.1562 18.1906 23.1719 18.2188 23.1875 18.2188C23.2062 18.2188 23.2188 18.2469 23.2188 18.2812C23.2188 18.3156 23.2344 18.3438 23.25 18.3438C23.2687 18.3438 23.2812 18.3719 23.2812 18.4062C23.2812 18.4406 23.2969 18.4688 23.3125 18.4688C23.3312 18.4688 23.3438 18.4969 23.3438 18.5312C23.3438 18.5656 23.3594 18.5938 23.375 18.5938C23.3937 18.5938 23.4062 18.6219 23.4062 18.6562C23.4062 18.6906 23.4219 18.7188 23.4375 18.7188C23.4562 18.7188 23.4688 18.7313 23.4688 18.75C23.4688 18.7719 20.9594 18.7812 16 18.7812C11.0406 18.7812 8.53125 18.7719 8.53125 18.75C8.53125 18.7313 8.54688 18.7188 8.5625 18.7188C8.58125 18.7188 8.59375 18.6906 8.59375 18.6562C8.59375 18.6219 8.60938 18.5938 8.625 18.5938C8.64375 18.5938 8.65625 18.5656 8.65625 18.5312C8.65625 18.4969 8.67188 18.4688 8.6875 18.4688C8.70625 18.4688 8.71875 18.4406 8.71875 18.4062C8.71875 18.3719 8.73438 18.3438 8.75 18.3438C8.76875 18.3438 8.78125 18.3156 8.78125 18.2812C8.78125 18.2469 8.79688 18.2188 8.8125 18.2188C8.83125 18.2188 8.84375 18.1906 8.84375 18.1562C8.84375 18.1219 8.85938 18.0938 8.875 18.0938C8.89375 18.0938 8.90625 18.0656 8.90625 18.0312C8.90625 17.9969 8.92188 17.9688 8.9375 17.9688C8.95625 17.9688 8.96875 17.9406 8.96875 17.9062C8.96875 17.8719 8.98438 17.8438 9 17.8438C9.01875 17.8438 9.03125 17.8156 9.03125 17.7812C9.03125 17.7469 9.04688 17.7188 9.0625 17.7188C9.08125 17.7188 9.09375 17.6906 9.09375 17.6562C9.09375 17.6219 9.10938 17.5938 9.125 17.5938C9.14375 17.5938 9.15625 17.5656 9.15625 17.5312C9.15625 17.4969 9.17188 17.4688 9.1875 17.4688C9.20625 17.4688 9.21875 17.4406 9.21875 17.4062C9.21875 17.3719 9.23438 17.3438 9.25 17.3438C9.26875 17.3438 9.28125 17.3156 9.28125 17.2812C9.28125 17.2469 9.29688 17.2188 9.3125 17.2188C9.33125 17.2188 9.34375 17.1906 9.34375 17.1562C9.34375 17.1219 9.35938 17.0938 9.375 17.0938C9.39375 17.0938 9.40625 17.0656 9.40625 17.0312C9.40625 16.9969 9.42188 16.9688 9.4375 16.9688C9.45625 16.9688 9.46875 16.9406 9.46875 16.9062C9.46875 16.8719 9.48438 16.8438 9.5 16.8438C9.51875 16.8438 9.53125 16.8156 9.53125 16.7812C9.53125 16.7469 9.54688 16.7188 9.5625 16.7188C9.58125 16.7188 9.59375 16.6906 9.59375 16.6562C9.59375 16.6219 9.60938 16.5938 9.625 16.5938C9.64375 16.5938 9.65625 16.5656 9.65625 16.5312C9.65625 16.4969 9.67188 16.4688 9.6875 16.4688C9.70625 16.4688 9.71875 16.4406 9.71875 16.4062C9.71875 16.3719 9.73438 16.3438 9.75 16.3438C9.76875 16.3438 9.78125 16.3156 9.78125 16.2812C9.78125 16.2469 9.79688 16.2188 9.8125 16.2188C9.83125 16.2188 9.84375 16.1906 9.84375 16.1562C9.84375 16.1219 9.85938 16.0938 9.875 16.0938C9.89375 16.0938 9.90625 16.0656 9.90625 16.0312C9.90625 15.9969 9.92188 15.9688 9.9375 15.9688C9.95625 15.9688 9.96875 15.9406 9.96875 15.9062C9.96875 15.8719 9.98438 15.8438 10 15.8438C10.0188 15.8438 10.0312 15.8156 10.0312 15.7812C10.0312 15.7469 10.0469 15.7188 10.0625 15.7188C10.0813 15.7188 10.0938 15.6906 10.0938 15.6562C10.0938 15.6219 10.1094 15.5938 10.125 15.5938C10.1438 15.5938 10.1562 15.5656 10.1562 15.5312C10.1562 15.4969 10.1719 15.4688 10.1875 15.4688C10.2063 15.4688 10.2188 15.4406 10.2188 15.4062C10.2188 15.3719 10.2344 15.3438 10.25 15.3438C10.2688 15.3438 10.2812 15.3156 10.2812 15.2812C10.2812 15.2469 10.2969 15.2188 10.3125 15.2188C10.3313 15.2188 10.3438 15.1906 10.3438 15.1562C10.3438 15.1219 10.3594 15.0938 10.375 15.0938C10.3938 15.0938 10.4062 15.0656 10.4062 15.0312C10.4062 14.9969 10.4219 14.9688 10.4375 14.9688C10.4563 14.9688 10.4688 14.9406 10.4688 14.9062C10.4688 14.8719 10.4844 14.8438 10.5 14.8438C10.5188 14.8438 10.5312 14.8156 10.5312 14.7812C10.5312 14.7469 10.5469 14.7188 10.5625 14.7188C10.5813 14.7188 10.5938 14.6969 10.5938 14.6719C10.5938 14.5281 10.3344 14.5344 15.9938 14.5312C20.5656 14.5312 21.3219 14.5375 21.3625 14.575ZM26.2812 26.2812H5.71875V20.7812H26.2812V26.2812ZM9.34375 30.0938H7.59375V28.2812H9.34375V30.0938ZM20.6562 30.0938H11.3438V28.2812H20.6562V30.0938ZM24.4062 30.0938H22.6562V28.2812H24.4062V30.0938Z" fill="#131313"/>
<path d="M7.46875 24.5312H10.0938L10.0875 23.5375L10.0781 22.5469L8.775 22.5375L7.46875 22.5312V24.5312Z" fill="#131313"/>
<path d="M21.9281 22.5531C21.9156 22.5625 21.9062 23.0125 21.9062 23.5531V24.5312H24.5312V22.5312H23.2406C22.5281 22.5312 21.9375 22.5406 21.9281 22.5531Z" fill="#131313"/>
</svg>
