<svg width="32" height="32" viewBox="0 0 32 32" fill="none" xmlns="http://www.w3.org/2000/svg">
<path d="M5.32813 0.0312746C5.31875 0.0468996 5.19063 0.0625246 5.04375 0.0625246C4.89063 0.0625246 4.78125 0.0750246 4.78125 0.0937746C4.78125 0.1094 4.71875 0.125025 4.64375 0.125025C4.56563 0.125025 4.49375 0.137525 4.48438 0.156275C4.475 0.1719 4.425 0.187525 4.37188 0.187525C4.32188 0.187525 4.28125 0.200025 4.28125 0.218775C4.28125 0.2344 4.24063 0.250025 4.1875 0.250025C4.1375 0.250025 4.09375 0.262525 4.09375 0.281275C4.09375 0.2969 4.05313 0.312525 4 0.312525C3.95 0.312525 3.90625 0.325025 3.90625 0.343775C3.90625 0.3594 3.87813 0.375025 3.84375 0.375025C3.80938 0.375025 3.78125 0.387525 3.78125 0.406275C3.78125 0.4219 3.75313 0.437525 3.71875 0.437525C3.68438 0.437525 3.65625 0.450025 3.65625 0.468775C3.65625 0.4844 3.63438 0.500025 3.60938 0.500025C3.58125 0.500025 3.53125 0.52815 3.49375 0.562525C3.45625 0.5969 3.40625 0.625025 3.38438 0.625025C3.3625 0.625025 3.34375 0.637525 3.34375 0.656275C3.34375 0.6719 3.32188 0.687525 3.29688 0.687525C3.27188 0.687525 3.20625 0.72815 3.15 0.781275C3.09688 0.831275 3.04063 0.875025 3.025 0.875025C2.99063 0.875025 2.28125 1.5844 2.28125 1.61877C2.28125 1.6344 2.24063 1.69065 2.1875 1.74377C2.1375 1.80002 2.09375 1.8594 2.09375 1.87502C2.09375 1.89377 2.06563 1.93752 2.03125 1.97502C1.99688 2.01252 1.96875 2.06252 1.96875 2.0844C1.96875 2.10627 1.95625 2.12502 1.9375 2.12502C1.92188 2.12502 1.90625 2.15315 1.90625 2.18752C1.90625 2.2219 1.89375 2.25002 1.875 2.25002C1.85938 2.25002 1.84375 2.27815 1.84375 2.31252C1.84375 2.3469 1.83125 2.37502 1.8125 2.37502C1.79688 2.37502 1.78125 2.40315 1.78125 2.43752C1.78125 2.4719 1.76875 2.50002 1.75 2.50002C1.73438 2.50002 1.71875 2.54065 1.71875 2.59377C1.71875 2.64377 1.70625 2.68752 1.6875 2.68752C1.67188 2.68752 1.65625 2.72815 1.65625 2.78127C1.65625 2.83127 1.64375 2.87502 1.625 2.87502C1.60938 2.87502 1.59375 2.91565 1.59375 2.96877C1.59375 3.01877 1.58125 3.06252 1.5625 3.06252C1.54688 3.06252 1.53125 3.11877 1.53125 3.1844C1.53125 3.25315 1.51875 3.31877 1.5 3.32815C1.48438 3.33752 1.46875 3.45315 1.46875 3.58127C1.46875 3.71565 1.45625 3.81252 1.4375 3.81252C1.41563 3.81252 1.40625 5.9469 1.40625 10.1563V16.5H0.703125H0V17.5938V18.6875H0.734375H1.46875V19.0125C1.46875 19.1969 1.48125 19.35 1.5 19.3594C1.51875 19.3688 1.53125 19.4907 1.53125 19.625C1.53125 19.7594 1.54688 19.8813 1.5625 19.8907C1.58125 19.9 1.59375 20.0063 1.59375 20.125C1.59375 20.2438 1.60625 20.35 1.625 20.3594C1.64063 20.3688 1.65625 20.4469 1.65625 20.5344C1.65625 20.6188 1.67188 20.6875 1.6875 20.6875C1.70625 20.6875 1.71875 20.7625 1.71875 20.8563C1.71875 20.95 1.73438 21.0375 1.75 21.0469C1.76875 21.0563 1.78125 21.1219 1.78125 21.1907C1.78125 21.2563 1.79688 21.3125 1.8125 21.3125C1.83125 21.3125 1.84375 21.3688 1.84375 21.4375C1.84375 21.5063 1.85938 21.5625 1.875 21.5625C1.89375 21.5625 1.90625 21.6188 1.90625 21.6875C1.90625 21.7563 1.92188 21.8125 1.9375 21.8125C1.95625 21.8125 1.96875 21.8532 1.96875 21.9063C1.96875 21.9563 1.98438 22 2 22C2.01875 22 2.03125 22.0469 2.03125 22.1063C2.03125 22.1657 2.04688 22.225 2.0625 22.2344C2.08125 22.2438 2.09375 22.2875 2.09375 22.3282C2.09375 22.3688 2.10938 22.4125 2.125 22.4219C2.14375 22.4313 2.15625 22.4688 2.15625 22.5032C2.15625 22.5344 2.17188 22.5625 2.1875 22.5625C2.20625 22.5625 2.21875 22.6032 2.21875 22.6563C2.21875 22.7063 2.23438 22.75 2.25 22.75C2.26875 22.75 2.28125 22.7907 2.28125 22.8438C2.28125 22.8938 2.29688 22.9375 2.3125 22.9375C2.33125 22.9375 2.34375 22.9657 2.34375 23C2.34375 23.0344 2.35938 23.0625 2.375 23.0625C2.39375 23.0625 2.40625 23.0907 2.40625 23.125C2.40625 23.1594 2.42188 23.1875 2.4375 23.1875C2.45625 23.1875 2.46875 23.2219 2.46875 23.2625C2.46875 23.3063 2.48438 23.35 2.5 23.3594C2.51875 23.3688 2.53125 23.4063 2.53125 23.4407C2.53125 23.4719 2.54688 23.5 2.5625 23.5C2.58125 23.5 2.59375 23.5282 2.59375 23.5625C2.59375 23.5969 2.60938 23.625 2.625 23.625C2.64375 23.625 2.65625 23.6532 2.65625 23.6875C2.65625 23.7219 2.67188 23.75 2.6875 23.75C2.70625 23.75 2.71875 23.7782 2.71875 23.8125C2.71875 23.8469 2.73438 23.875 2.75 23.875C2.76875 23.875 2.78125 23.8938 2.78125 23.9157C2.78125 23.9375 2.80938 23.9875 2.84375 24.025C2.87813 24.0625 2.90625 24.1125 2.90625 24.1407C2.90625 24.1657 2.92188 24.1875 2.9375 24.1875C2.95625 24.1875 2.96875 24.2125 2.96875 24.2438C2.96875 24.275 2.99688 24.3188 3.03125 24.3438C3.06563 24.3688 3.09375 24.4125 3.09375 24.4438C3.09375 24.475 3.10938 24.5 3.125 24.5C3.14375 24.5 3.15625 24.5188 3.15625 24.5375C3.15625 24.5594 3.2 24.6282 3.25 24.6875C3.3 24.7469 3.34375 24.8125 3.34375 24.8282C3.34375 24.8469 3.37188 24.8813 3.40625 24.9063C3.44063 24.9313 3.46875 24.9719 3.46875 24.9938C3.46875 25.0157 3.525 25.0907 3.59375 25.1563C3.6625 25.2219 3.71875 25.2907 3.71875 25.3125C3.71875 25.3532 4.80313 26.4375 4.84375 26.4375C4.8625 26.4375 4.93438 26.4938 5.00313 26.5625C5.075 26.6313 5.15 26.6875 5.16875 26.6875C5.1875 26.6875 5.225 26.7157 5.25 26.75C5.275 26.7844 5.31563 26.8125 5.34375 26.8125C5.37188 26.8125 5.4125 26.8407 5.4375 26.875C5.4625 26.9094 5.50313 26.9375 5.53125 26.9375C5.55938 26.9375 5.6 26.9657 5.625 27C5.65 27.0344 5.69375 27.0625 5.725 27.0625C5.75625 27.0625 5.78125 27.075 5.78125 27.0938C5.78125 27.1094 5.80625 27.125 5.8375 27.125C5.86875 27.125 5.9125 27.1532 5.9375 27.1875C5.9625 27.2219 6.00625 27.25 6.0375 27.25C6.06875 27.25 6.09375 27.2625 6.09375 27.2813C6.09375 27.2969 6.12188 27.3125 6.15625 27.3125C6.19063 27.3125 6.21875 27.325 6.21875 27.3438C6.21875 27.3594 6.24688 27.375 6.28125 27.375C6.31563 27.375 6.34375 27.3875 6.34375 27.4063C6.34375 27.4219 6.37188 27.4375 6.40625 27.4375C6.44063 27.4375 6.46875 27.45 6.46875 27.4688C6.46875 27.4844 6.49063 27.5 6.51563 27.5C6.54063 27.5 6.59063 27.5157 6.625 27.5313C6.65938 27.55 6.71563 27.5782 6.75 27.5938C6.78438 27.6125 6.83438 27.625 6.85938 27.625C6.88438 27.625 6.90625 27.6375 6.90625 27.6563C6.90625 27.6719 6.92813 27.6875 6.95313 27.6875C7.00938 27.6875 6.98125 27.775 6.9 27.8469C6.86875 27.875 6.84375 27.9188 6.84375 27.9407C6.84375 27.9657 6.81563 28.0063 6.78125 28.0313C6.74688 28.0563 6.71875 28.0969 6.71875 28.125C6.71875 28.1532 6.69063 28.1938 6.65625 28.2188C6.62188 28.2438 6.59375 28.2844 6.59375 28.3125C6.59375 28.3407 6.56563 28.3813 6.53125 28.4063C6.49688 28.4313 6.46875 28.4719 6.46875 28.5C6.46875 28.5282 6.44063 28.5688 6.40625 28.5938C6.37188 28.6188 6.34375 28.6594 6.34375 28.6875C6.34375 28.7157 6.31563 28.7563 6.28125 28.7813C6.24688 28.8063 6.21875 28.8469 6.21875 28.875C6.21875 28.9032 6.19063 28.9438 6.15625 28.9688C6.12188 28.9938 6.09375 29.0282 6.09375 29.0469C6.09375 29.0625 6.05 29.1282 6 29.1875C5.95 29.2469 5.90625 29.3157 5.90625 29.3344C5.90625 29.3563 5.89375 29.375 5.88125 29.375C5.86563 29.375 5.83438 29.4125 5.80938 29.4594C5.78438 29.5094 5.74063 29.575 5.7125 29.6063C5.68125 29.6407 5.65625 29.6844 5.65625 29.7032C5.65625 29.7219 5.62813 29.7563 5.59375 29.7813C5.55938 29.8063 5.53125 29.8469 5.53125 29.875C5.53125 29.9032 5.50313 29.9438 5.46875 29.9688C5.43438 29.9938 5.40625 30.0344 5.40625 30.0625C5.40625 30.0907 5.37813 30.1313 5.34375 30.1563C5.30938 30.1813 5.28125 30.2219 5.28125 30.25C5.28125 30.2782 5.25313 30.3188 5.21875 30.3438C5.18438 30.3688 5.15625 30.4125 5.15625 30.4438C5.15625 30.475 5.14375 30.5 5.125 30.5C5.07813 30.5 5.0875 30.5907 5.1375 30.6438C5.1625 30.6688 5.20313 30.6875 5.225 30.6875C5.25 30.6875 5.2875 30.7157 5.3125 30.75C5.3375 30.7844 5.37813 30.8125 5.40313 30.8125C5.425 30.8125 5.46875 30.8375 5.49688 30.8688C5.525 30.8969 5.58438 30.9407 5.63438 30.9657C5.68125 30.9907 5.71875 31.0219 5.71875 31.0375C5.71875 31.05 5.7375 31.0625 5.75938 31.0625C5.77813 31.0625 5.84688 31.1063 5.90625 31.1563C5.96563 31.2063 6.03438 31.25 6.05625 31.25C6.075 31.25 6.09375 31.2625 6.09375 31.275C6.09375 31.2907 6.13125 31.3219 6.18125 31.3469C6.22813 31.3719 6.2875 31.4157 6.31563 31.4438C6.34375 31.475 6.3875 31.5 6.40938 31.5C6.43438 31.5 6.475 31.5282 6.5 31.5625C6.525 31.5969 6.56563 31.625 6.59375 31.625C6.62188 31.625 6.6625 31.6532 6.6875 31.6875C6.7125 31.7219 6.75625 31.75 6.7875 31.75C6.81875 31.75 6.84375 31.7625 6.84375 31.7813C6.84375 31.8469 6.95938 31.8094 7.00313 31.725C7.02813 31.6782 7.07188 31.6125 7.10313 31.5813C7.13125 31.5469 7.15625 31.5032 7.15625 31.4844C7.15625 31.4657 7.18438 31.4313 7.21875 31.4063C7.25313 31.3813 7.28125 31.3407 7.28125 31.3125C7.28125 31.2844 7.30938 31.2438 7.34375 31.2188C7.37813 31.1938 7.40625 31.1532 7.40625 31.125C7.40625 31.0969 7.43438 31.0563 7.46875 31.0313C7.50313 31.0063 7.53125 30.9657 7.53125 30.9375C7.53125 30.9094 7.55938 30.8688 7.59375 30.8438C7.62813 30.8188 7.65625 30.7782 7.65625 30.75C7.65625 30.7219 7.68438 30.6813 7.71875 30.6563C7.75313 30.6313 7.78125 30.5907 7.78125 30.5625C7.78125 30.5344 7.80938 30.4938 7.84375 30.4688C7.87813 30.4438 7.90625 30.4032 7.90625 30.3782C7.90625 30.3563 7.93125 30.3125 7.9625 30.2844C7.99063 30.2563 8.03438 30.1969 8.05938 30.1469C8.08438 30.1 8.11563 30.0625 8.13125 30.0625C8.14375 30.0625 8.15625 30.0438 8.15625 30.0219C8.15625 30.0032 8.2 29.9344 8.25 29.875C8.3 29.8157 8.34375 29.7469 8.34375 29.725C8.34375 29.7063 8.35625 29.6875 8.36875 29.6875C8.38438 29.6875 8.41563 29.65 8.44063 29.6032C8.46563 29.5532 8.50938 29.4938 8.5375 29.4657C8.56875 29.4375 8.59375 29.3938 8.59375 29.3719C8.59375 29.3469 8.62188 29.3063 8.65625 29.2813C8.69063 29.2563 8.71875 29.2157 8.71875 29.1875C8.71875 29.1594 8.74688 29.1188 8.78125 29.0938C8.81563 29.0688 8.84375 29.0282 8.84375 29C8.84375 28.9719 8.87188 28.9313 8.90625 28.9063C8.94063 28.8813 8.96875 28.8407 8.96875 28.8125C8.96875 28.7844 8.99688 28.7438 9.03125 28.7188C9.06563 28.6938 9.09375 28.6532 9.09375 28.625C9.09375 28.5969 9.12188 28.5563 9.15625 28.5313C9.19063 28.5063 9.21875 28.4625 9.21875 28.4313C9.21875 28.3813 9.25 28.375 9.45 28.375C9.57813 28.375 9.69375 28.3907 9.70313 28.4063C9.7125 28.425 9.81875 28.4375 9.94063 28.4375C10.0625 28.4375 10.1563 28.45 10.1563 28.4688C10.1563 28.4875 10.3281 28.5 10.6063 28.5C10.875 28.5 11.0656 28.5125 11.0781 28.5313C11.1063 28.575 20.8938 28.575 20.9219 28.5313C20.9344 28.5125 21.125 28.5 21.3938 28.5C21.6719 28.5 21.8438 28.4875 21.8438 28.4688C21.8438 28.45 21.9375 28.4375 22.0594 28.4375C22.1813 28.4375 22.2875 28.4219 22.2969 28.4063C22.3063 28.3875 22.4219 28.375 22.55 28.375C22.75 28.375 22.7813 28.3813 22.7813 28.4313C22.7813 28.4625 22.8094 28.5063 22.8438 28.5313C22.8781 28.5563 22.9063 28.5969 22.9063 28.625C22.9063 28.6532 22.9344 28.6938 22.9688 28.7188C23.0031 28.7438 23.0313 28.7844 23.0313 28.8125C23.0313 28.8407 23.0594 28.8813 23.0938 28.9063C23.1281 28.9313 23.1563 28.9719 23.1563 29C23.1563 29.0282 23.1844 29.0688 23.2188 29.0938C23.2531 29.1188 23.2813 29.1594 23.2813 29.1875C23.2813 29.2157 23.3094 29.2563 23.3438 29.2813C23.3781 29.3063 23.4063 29.3469 23.4063 29.3719C23.4063 29.3938 23.4313 29.4375 23.4625 29.4657C23.4906 29.4938 23.5344 29.5532 23.5594 29.6032C23.5844 29.65 23.6156 29.6875 23.6313 29.6875C23.6438 29.6875 23.6563 29.7063 23.6563 29.725C23.6563 29.7469 23.7 29.8157 23.75 29.875C23.8 29.9344 23.8438 30.0032 23.8438 30.0219C23.8438 30.0438 23.8563 30.0625 23.8688 30.0625C23.8844 30.0625 23.9156 30.1 23.9406 30.1469C23.9656 30.1969 24.0094 30.2563 24.0375 30.2844C24.0688 30.3125 24.0938 30.3563 24.0938 30.3782C24.0938 30.4032 24.1219 30.4438 24.1563 30.4688C24.1906 30.4938 24.2188 30.5344 24.2188 30.5625C24.2188 30.5907 24.2469 30.6313 24.2813 30.6563C24.3156 30.6813 24.3438 30.7219 24.3438 30.75C24.3438 30.7782 24.3719 30.8188 24.4063 30.8438C24.4406 30.8688 24.4688 30.9094 24.4688 30.9375C24.4688 30.9657 24.4969 31.0063 24.5313 31.0313C24.5656 31.0563 24.5938 31.0969 24.5938 31.125C24.5938 31.1532 24.6219 31.1938 24.6563 31.2188C24.6906 31.2438 24.7188 31.2844 24.7188 31.3125C24.7188 31.3407 24.7469 31.3813 24.7813 31.4063C24.8156 31.4313 24.8438 31.4657 24.8438 31.4844C24.8438 31.5032 24.8688 31.5469 24.9 31.5813C24.9281 31.6125 24.9719 31.6782 24.9969 31.725C25.0406 31.8094 25.1563 31.8469 25.1563 31.7813C25.1563 31.7625 25.1813 31.75 25.2125 31.75C25.2438 31.75 25.2875 31.7219 25.3125 31.6875C25.3375 31.6532 25.3781 31.625 25.4063 31.625C25.4344 31.625 25.475 31.5969 25.5 31.5625C25.525 31.5282 25.5656 31.5 25.5906 31.5C25.6125 31.5 25.6563 31.475 25.6844 31.4438C25.7125 31.4157 25.7719 31.3719 25.8219 31.3469C25.8688 31.3219 25.9063 31.2907 25.9063 31.275C25.9063 31.2625 25.925 31.25 25.9469 31.25C25.9656 31.25 26.0344 31.2063 26.0938 31.1563C26.1531 31.1063 26.2219 31.0625 26.2438 31.0625C26.2625 31.0625 26.2813 31.05 26.2813 31.0375C26.2813 31.0219 26.3188 30.9907 26.3688 30.9657C26.4156 30.9407 26.475 30.8969 26.5031 30.8688C26.5313 30.8375 26.575 30.8125 26.5969 30.8125C26.6219 30.8125 26.6625 30.7844 26.6875 30.75C26.7125 30.7157 26.75 30.6875 26.775 30.6875C26.7969 30.6875 26.8375 30.6688 26.8625 30.6438C26.9125 30.5907 26.9219 30.5 26.875 30.5C26.8594 30.5 26.8438 30.475 26.8438 30.4438C26.8438 30.4125 26.8156 30.3688 26.7813 30.3438C26.7469 30.3188 26.7188 30.2782 26.7188 30.25C26.7188 30.2219 26.6906 30.1813 26.6563 30.1563C26.6219 30.1313 26.5938 30.0907 26.5938 30.0625C26.5938 30.0344 26.5656 29.9938 26.5313 29.9688C26.4969 29.9438 26.4688 29.9032 26.4688 29.875C26.4688 29.8469 26.4406 29.8063 26.4063 29.7813C26.3719 29.7563 26.3438 29.7219 26.3438 29.7032C26.3438 29.6844 26.3188 29.6407 26.2906 29.6063C26.2594 29.575 26.2156 29.5094 26.1906 29.4594C26.1656 29.4125 26.1344 29.375 26.1188 29.375C26.1063 29.375 26.0938 29.3563 26.0938 29.3344C26.0938 29.3157 26.05 29.2469 26 29.1875C25.95 29.1282 25.9063 29.0625 25.9063 29.0469C25.9063 29.0282 25.8781 28.9938 25.8438 28.9688C25.8094 28.9438 25.7813 28.9032 25.7813 28.875C25.7813 28.8469 25.7531 28.8063 25.7188 28.7813C25.6844 28.7563 25.6563 28.7157 25.6563 28.6875C25.6563 28.6594 25.6281 28.6188 25.5938 28.5938C25.5594 28.5688 25.5313 28.5282 25.5313 28.5C25.5313 28.4719 25.5031 28.4313 25.4688 28.4063C25.4344 28.3813 25.4063 28.3407 25.4063 28.3125C25.4063 28.2844 25.3781 28.2438 25.3438 28.2188C25.3094 28.1938 25.2813 28.1532 25.2813 28.125C25.2813 28.0969 25.2531 28.0563 25.2188 28.0313C25.1844 28.0063 25.1563 27.9657 25.1563 27.9407C25.1563 27.9188 25.1313 27.875 25.1 27.8469C25.0188 27.775 24.9906 27.6875 25.0469 27.6875C25.0719 27.6875 25.0938 27.6719 25.0938 27.6563C25.0938 27.6375 25.1156 27.625 25.1406 27.625C25.1656 27.625 25.2156 27.6125 25.25 27.5938C25.2844 27.5782 25.3406 27.5469 25.375 27.5313C25.4094 27.5125 25.4594 27.5 25.4844 27.5C25.5094 27.5 25.5313 27.4844 25.5313 27.4688C25.5313 27.45 25.5594 27.4375 25.5938 27.4375C25.6281 27.4375 25.6563 27.4219 25.6563 27.4063C25.6563 27.3875 25.6844 27.375 25.7188 27.375C25.7531 27.375 25.7813 27.3594 25.7813 27.3438C25.7813 27.325 25.8094 27.3125 25.8438 27.3125C25.8781 27.3125 25.9063 27.2969 25.9063 27.2813C25.9063 27.2625 25.9313 27.25 25.9625 27.25C25.9938 27.25 26.0375 27.2219 26.0625 27.1875C26.0875 27.1532 26.1313 27.125 26.1625 27.125C26.1938 27.125 26.2188 27.1094 26.2188 27.0938C26.2188 27.075 26.2438 27.0625 26.275 27.0625C26.3063 27.0625 26.35 27.0344 26.375 27C26.4 26.9657 26.4406 26.9375 26.4688 26.9375C26.4969 26.9375 26.5375 26.9094 26.5625 26.875C26.5875 26.8407 26.6281 26.8125 26.6563 26.8125C26.6844 26.8125 26.725 26.7844 26.75 26.75C26.775 26.7157 26.8125 26.6875 26.8313 26.6875C26.85 26.6875 26.925 26.6313 26.9969 26.5625C27.0656 26.4938 27.1375 26.4375 27.1563 26.4375C27.1969 26.4375 28.2813 25.3532 28.2813 25.3125C28.2813 25.2907 28.3375 25.2219 28.4063 25.1563C28.475 25.0907 28.5313 25.0157 28.5313 24.9938C28.5313 24.9719 28.5594 24.9313 28.5938 24.9063C28.6281 24.8813 28.6563 24.8469 28.6563 24.8282C28.6563 24.8125 28.7 24.7469 28.75 24.6875C28.8 24.6282 28.8438 24.5594 28.8438 24.5375C28.8438 24.5188 28.8594 24.5 28.875 24.5C28.8938 24.5 28.9063 24.475 28.9063 24.4438C28.9063 24.4125 28.9344 24.3688 28.9688 24.3438C29.0031 24.3188 29.0313 24.275 29.0313 24.2438C29.0313 24.2125 29.0469 24.1875 29.0625 24.1875C29.0813 24.1875 29.0938 24.1657 29.0938 24.1407C29.0938 24.1125 29.1219 24.0625 29.1563 24.025C29.1906 23.9875 29.2188 23.9375 29.2188 23.9157C29.2188 23.8938 29.2344 23.875 29.25 23.875C29.2688 23.875 29.2813 23.8469 29.2813 23.8125C29.2813 23.7782 29.2969 23.75 29.3125 23.75C29.3313 23.75 29.3438 23.7219 29.3438 23.6875C29.3438 23.6532 29.3594 23.625 29.375 23.625C29.3938 23.625 29.4063 23.5969 29.4063 23.5625C29.4063 23.5282 29.4219 23.5 29.4375 23.5C29.4563 23.5 29.4688 23.4719 29.4688 23.4407C29.4688 23.4063 29.4844 23.3688 29.5 23.3594C29.5156 23.35 29.5313 23.3063 29.5313 23.2625C29.5313 23.2219 29.5469 23.1875 29.5625 23.1875C29.5813 23.1875 29.5938 23.1594 29.5938 23.125C29.5938 23.0907 29.6094 23.0625 29.625 23.0625C29.6438 23.0625 29.6563 23.0344 29.6563 23C29.6563 22.9657 29.6719 22.9375 29.6875 22.9375C29.7063 22.9375 29.7188 22.8938 29.7188 22.8438C29.7188 22.7907 29.7344 22.75 29.75 22.75C29.7688 22.75 29.7813 22.7063 29.7813 22.6563C29.7813 22.6032 29.7969 22.5625 29.8125 22.5625C29.8313 22.5625 29.8438 22.5344 29.8438 22.5032C29.8438 22.4688 29.8594 22.4313 29.875 22.4219C29.8938 22.4125 29.9063 22.3688 29.9063 22.3282C29.9063 22.2875 29.9219 22.2438 29.9375 22.2344C29.9563 22.225 29.9688 22.1657 29.9688 22.1063C29.9688 22.0469 29.9844 22 30 22C30.0188 22 30.0313 21.9563 30.0313 21.9063C30.0313 21.8532 30.0469 21.8125 30.0625 21.8125C30.0813 21.8125 30.0938 21.7563 30.0938 21.6875C30.0938 21.6188 30.1094 21.5625 30.125 21.5625C30.1438 21.5625 30.1563 21.5063 30.1563 21.4375C30.1563 21.3688 30.1719 21.3125 30.1875 21.3125C30.2063 21.3125 30.2188 21.2563 30.2188 21.1907C30.2188 21.1219 30.2313 21.0563 30.25 21.0469C30.2656 21.0375 30.2813 20.95 30.2813 20.8563C30.2813 20.7625 30.2969 20.6875 30.3125 20.6875C30.3313 20.6875 30.3438 20.6188 30.3438 20.5344C30.3438 20.4469 30.3594 20.3688 30.375 20.3594C30.3938 20.35 30.4063 20.2438 30.4063 20.125C30.4063 20.0063 30.4219 19.9 30.4375 19.8907C30.4531 19.8813 30.4688 19.7594 30.4688 19.625C30.4688 19.4907 30.4844 19.3688 30.5 19.3594C30.5188 19.35 30.5313 19.1969 30.5313 19.0125V18.6875H31.2656H32V17.5938V16.5H17.8281H3.65625V10.125C3.65625 5.8969 3.66563 3.75002 3.6875 3.75002C3.70625 3.75002 3.71875 3.70627 3.71875 3.65627C3.71875 3.60315 3.73438 3.56252 3.75 3.56252C3.76875 3.56252 3.78125 3.52815 3.78125 3.4844C3.78125 3.44065 3.80938 3.37502 3.84375 3.33752C3.87813 3.30002 3.90625 3.25002 3.90625 3.22815C3.90625 3.20627 3.92188 3.18752 3.9375 3.18752C3.95625 3.18752 3.96875 3.16565 3.96875 3.13752C3.96875 3.1094 4.00625 3.05002 4.05625 3.00315C4.10313 2.95627 4.15625 2.89377 4.175 2.8594C4.19375 2.82815 4.23438 2.78752 4.26563 2.76877C4.3 2.75002 4.3625 2.6969 4.40938 2.6469C4.45625 2.60002 4.51563 2.56252 4.54375 2.56252C4.57188 2.56252 4.59375 2.5469 4.59375 2.53127C4.59375 2.51252 4.6125 2.50002 4.63438 2.50002C4.65625 2.50002 4.70625 2.4719 4.74375 2.43752C4.78125 2.40315 4.84688 2.37502 4.89063 2.37502C4.93438 2.37502 4.96875 2.3594 4.96875 2.34377C4.96875 2.32502 5.00938 2.31252 5.05938 2.31252C5.1125 2.31252 5.1625 2.2969 5.17188 2.28127C5.18438 2.26252 5.35 2.25002 5.5625 2.25002C5.775 2.25002 5.94063 2.26252 5.95313 2.28127C5.9625 2.2969 6.0125 2.31252 6.06563 2.31252C6.11563 2.31252 6.15625 2.32502 6.15625 2.34377C6.15625 2.3594 6.19063 2.37502 6.23125 2.37502C6.275 2.37502 6.31875 2.38752 6.32813 2.40627C6.3375 2.4219 6.37188 2.43752 6.4 2.43752C6.43125 2.43752 6.475 2.46565 6.5 2.50002C6.525 2.5344 6.5625 2.56252 6.5875 2.56252C6.60938 2.56252 6.6625 2.5969 6.70313 2.63752C6.74688 2.68127 6.82188 2.73752 6.87188 2.76877C6.92188 2.80002 6.98125 2.8594 7.00625 2.90315C7.02813 2.9469 7.08438 3.0219 7.13125 3.06877C7.18125 3.11252 7.21875 3.1719 7.21875 3.20002C7.21875 3.22815 7.23438 3.25002 7.25 3.25002C7.26875 3.25002 7.28125 3.27815 7.28125 3.31252C7.28125 3.3469 7.29688 3.37502 7.3125 3.37502C7.33125 3.37502 7.34375 3.41565 7.34375 3.46877C7.34375 3.51877 7.35938 3.56252 7.375 3.56252C7.39375 3.56252 7.40625 3.5844 7.40625 3.61252C7.40625 3.66877 7.33438 3.75002 7.28438 3.75002C7.26563 3.75002 7.20625 3.79065 7.15 3.84377C7.09688 3.89377 7.04063 3.93752 7.025 3.93752C6.9875 3.93752 6.28125 4.65003 6.28125 4.69065C6.28125 4.7094 6.24063 4.76565 6.1875 4.81253C6.1375 4.8594 6.09375 4.91565 6.09375 4.9344C6.09375 4.95628 6.06563 5.00003 6.03125 5.03753C5.99688 5.07503 5.96875 5.12503 5.96875 5.1469C5.96875 5.16878 5.95625 5.18753 5.9375 5.18753C5.92188 5.18753 5.90625 5.21565 5.90625 5.25003C5.90625 5.2844 5.89375 5.31253 5.875 5.31253C5.85938 5.31253 5.84375 5.34065 5.84375 5.37503C5.84375 5.4094 5.83125 5.43753 5.8125 5.43753C5.79688 5.43753 5.78125 5.46565 5.78125 5.50003C5.78125 5.5344 5.76875 5.56253 5.75 5.56253C5.73438 5.56253 5.71875 5.59065 5.71875 5.62503C5.71875 5.6594 5.70625 5.68753 5.6875 5.68753C5.67188 5.68753 5.65625 5.71565 5.65625 5.7469C5.65625 5.78128 5.64375 5.81878 5.625 5.82815C5.60938 5.83753 5.59375 5.88128 5.59375 5.92503C5.59375 5.96565 5.58125 6.00003 5.5625 6.00003C5.54688 6.00003 5.53125 6.04065 5.53125 6.09065C5.53125 6.14378 5.51875 6.19378 5.5 6.20315C5.48438 6.21253 5.46875 6.2719 5.46875 6.33128C5.46875 6.39065 5.45625 6.43753 5.4375 6.43753C5.42188 6.43753 5.40625 6.50628 5.40625 6.59378C5.40625 6.67815 5.39375 6.75003 5.37813 6.75003C5.3625 6.75003 5.34063 6.89378 5.33125 7.06878C5.32188 7.2469 5.30625 7.4719 5.29375 7.57503C5.28125 7.69065 5.2875 7.76878 5.30938 7.79065C5.32813 7.8094 5.34375 7.9344 5.34375 8.06565C5.34375 8.20003 5.35938 8.31878 5.375 8.32815C5.39375 8.33753 5.40625 8.41565 5.40625 8.50003C5.40625 8.5844 5.42188 8.66253 5.4375 8.6719C5.45625 8.68128 5.46875 8.73128 5.46875 8.7844C5.46875 8.8344 5.48438 8.87503 5.5 8.87503C5.51875 8.87503 5.53125 8.91565 5.53125 8.96878C5.53125 9.01878 5.54688 9.06253 5.5625 9.06253C5.58125 9.06253 5.59375 9.10315 5.59375 9.15628C5.59375 9.20628 5.60938 9.25003 5.625 9.25003C5.64375 9.25003 5.65625 9.27815 5.65625 9.31253C5.65625 9.3469 5.67188 9.37503 5.6875 9.37503C5.70625 9.37503 5.71875 9.41565 5.71875 9.46878C5.71875 9.51878 5.73438 9.56253 5.75 9.56253C5.76875 9.56253 5.78125 9.59065 5.78125 9.62503C5.78125 9.6594 5.79688 9.68753 5.8125 9.68753C5.83125 9.68753 5.84375 9.71565 5.84375 9.75003C5.84375 9.7844 5.85938 9.81253 5.875 9.81253C5.89375 9.81253 5.90625 9.84065 5.90625 9.87503C5.90625 9.9094 5.92188 9.93753 5.9375 9.93753C5.95625 9.93753 5.96875 9.96565 5.96875 10C5.96875 10.0344 5.98438 10.0625 6 10.0625C6.01875 10.0625 6.03125 10.0907 6.03125 10.125C6.03125 10.1594 6.04688 10.1875 6.0625 10.1875C6.08125 10.1875 6.09375 10.2188 6.09375 10.2563C6.09688 10.3719 6.16875 10.4375 6.29375 10.4375C6.35625 10.4375 6.40625 10.4219 6.40625 10.4063C6.40625 10.3875 6.43438 10.375 6.46875 10.375C6.50313 10.375 6.53125 10.3594 6.53125 10.3438C6.53125 10.325 6.55938 10.3125 6.59375 10.3125C6.62813 10.3125 6.65625 10.2969 6.65625 10.2813C6.65625 10.2625 6.67813 10.25 6.70313 10.25C6.72813 10.25 6.78125 10.2344 6.82188 10.2125C6.96875 10.1375 7 10.125 7.04688 10.125C7.07188 10.125 7.09375 10.1094 7.09375 10.0938C7.09375 10.075 7.12188 10.0625 7.15625 10.0625C7.19063 10.0625 7.21875 10.0469 7.21875 10.0313C7.21875 10.0125 7.24688 10 7.28125 10C7.31563 10 7.34375 9.9844 7.34375 9.96878C7.34375 9.95003 7.37188 9.93753 7.40625 9.93753C7.44063 9.93753 7.46875 9.9219 7.46875 9.90628C7.46875 9.88753 7.49688 9.87503 7.53125 9.87503C7.56563 9.87503 7.59375 9.8594 7.59375 9.84378C7.59375 9.82503 7.62813 9.81253 7.66875 9.81253C7.7125 9.81253 7.75625 9.7969 7.76563 9.78128C7.775 9.76253 7.8125 9.75003 7.84688 9.75003C7.87813 9.75003 7.90625 9.7344 7.90625 9.71878C7.90625 9.70003 7.93438 9.68753 7.96875 9.68753C8.00313 9.68753 8.03125 9.6719 8.03125 9.65628C8.03125 9.63753 8.05938 9.62503 8.09375 9.62503C8.12813 9.62503 8.15625 9.6094 8.15625 9.59378C8.15625 9.57503 8.18438 9.56253 8.21875 9.56253C8.25313 9.56253 8.28125 9.5469 8.28125 9.53128C8.28125 9.51253 8.30938 9.50003 8.34375 9.50003C8.37813 9.50003 8.40625 9.4844 8.40625 9.46878C8.40625 9.45003 8.43438 9.43753 8.46875 9.43753C8.50313 9.43753 8.53125 9.4219 8.53125 9.40628C8.53125 9.38753 8.56563 9.37503 8.60625 9.37503C8.65 9.37503 8.69375 9.3594 8.70313 9.34378C8.7125 9.32503 8.75 9.31253 8.78438 9.31253C8.81563 9.31253 8.84375 9.2969 8.84375 9.28128C8.84375 9.26253 8.87188 9.25003 8.90625 9.25003C8.94063 9.25003 8.96875 9.2344 8.96875 9.21878C8.96875 9.20003 8.99688 9.18753 9.03125 9.18753C9.06563 9.18753 9.09375 9.1719 9.09375 9.15628C9.09375 9.13753 9.12188 9.12503 9.15625 9.12503C9.19063 9.12503 9.21875 9.1094 9.21875 9.09378C9.21875 9.07503 9.24688 9.06253 9.28125 9.06253C9.31563 9.06253 9.34375 9.0469 9.34375 9.03128C9.34375 9.01253 9.37188 9.00003 9.40625 9.00003C9.44063 9.00003 9.46875 8.9844 9.46875 8.96878C9.46875 8.95003 9.50313 8.93753 9.54375 8.93753C9.5875 8.93753 9.63125 8.9219 9.64063 8.90628C9.65 8.88753 9.6875 8.87503 9.72188 8.87503C9.75313 8.87503 9.78125 8.8594 9.78125 8.84378C9.78125 8.82503 9.80938 8.81253 9.84375 8.81253C9.87813 8.81253 9.90625 8.7969 9.90625 8.78128C9.90625 8.76253 9.93438 8.75003 9.96875 8.75003C10.0031 8.75003 10.0313 8.7344 10.0313 8.71878C10.0313 8.70003 10.0594 8.68753 10.0938 8.68753C10.1281 8.68753 10.1563 8.6719 10.1563 8.65628C10.1563 8.63753 10.1844 8.62503 10.2188 8.62503C10.2531 8.62503 10.2813 8.6094 10.2813 8.59378C10.2813 8.57503 10.3094 8.56253 10.3438 8.56253C10.3781 8.56253 10.4063 8.5469 10.4063 8.53128C10.4063 8.51253 10.4406 8.50003 10.4813 8.50003C10.525 8.50003 10.5688 8.4844 10.5781 8.46878C10.5875 8.45003 10.625 8.43753 10.6594 8.43753C10.6906 8.43753 10.7188 8.4219 10.7188 8.40628C10.7188 8.38753 10.7469 8.37503 10.7813 8.37503C10.8156 8.37503 10.8438 8.3594 10.8438 8.34378C10.8438 8.32503 10.8719 8.31253 10.9063 8.31253C10.9406 8.31253 10.9688 8.2969 10.9688 8.28128C10.9688 8.26253 10.9969 8.25003 11.0313 8.25003C11.0656 8.25003 11.0938 8.2344 11.0938 8.21878C11.0938 8.20003 11.1219 8.18753 11.1563 8.18753C11.1906 8.18753 11.2188 8.1719 11.2188 8.15628C11.2188 8.13753 11.2469 8.12503 11.2813 8.12503C11.3156 8.12503 11.3438 8.1094 11.3438 8.09378C11.3438 8.07503 11.3781 8.06253 11.4188 8.06253C11.4625 8.06253 11.5063 8.0469 11.5156 8.03128C11.525 8.01253 11.5625 8.00003 11.5969 8.00003C11.6281 8.00003 11.6563 7.9844 11.6563 7.96878C11.6563 7.95003 11.6844 7.93753 11.7188 7.93753C11.7531 7.93753 11.7813 7.9219 11.7813 7.90628C11.7813 7.88753 11.8094 7.87503 11.8438 7.87503C11.8781 7.87503 11.9063 7.8594 11.9063 7.84378C11.9063 7.82503 11.9344 7.81253 11.9688 7.81253C12.0031 7.81253 12.0313 7.7969 12.0313 7.78128C12.0313 7.76253 12.0594 7.75003 12.0938 7.75003C12.1281 7.75003 12.1563 7.7344 12.1563 7.71878C12.1563 7.70003 12.1844 7.68753 12.2188 7.68753C12.2531 7.68753 12.2813 7.6719 12.2813 7.65628C12.2813 7.63753 12.3156 7.62503 12.3563 7.62503C12.4 7.62503 12.4438 7.6094 12.4531 7.59378C12.4625 7.57503 12.5 7.56253 12.5344 7.56253C12.5656 7.56253 12.5938 7.5469 12.5938 7.53128C12.5938 7.51253 12.6219 7.50003 12.6563 7.50003C12.6906 7.50003 12.7188 7.4844 12.7188 7.46878C12.7188 7.45003 12.7469 7.43753 12.7813 7.43753C12.8156 7.43753 12.8438 7.4219 12.8438 7.40628C12.8438 7.38753 12.8719 7.37503 12.9063 7.37503C12.9406 7.37503 12.9688 7.3594 12.9688 7.34378C12.9688 7.32503 12.9969 7.31253 13.0313 7.31253C13.0656 7.31253 13.0938 7.2969 13.0938 7.28128C13.0938 7.26253 13.1219 7.25003 13.1563 7.25003C13.1906 7.25003 13.2188 7.2344 13.2188 7.21878C13.2188 7.20003 13.2531 7.18753 13.2938 7.18753C13.3375 7.18753 13.3813 7.1719 13.3906 7.15628C13.4 7.13753 13.4375 7.12503 13.4719 7.12503C13.5031 7.12503 13.5313 7.1094 13.5313 7.09378C13.5313 7.07503 13.5594 7.06253 13.5938 7.06253C13.6281 7.06253 13.6563 7.0469 13.6563 7.03128C13.6563 7.01253 13.6844 7.00003 13.7188 7.00003C13.7531 7.00003 13.7813 6.9844 13.7813 6.96878C13.7813 6.95003 13.8094 6.93753 13.8438 6.93753C13.8781 6.93753 13.9063 6.9219 13.9063 6.90628C13.9063 6.88753 13.9344 6.87503 13.9688 6.87503C14.0031 6.87503 14.0313 6.8594 14.0313 6.84378C14.0313 6.82503 14.0594 6.81253 14.0938 6.81253C14.1281 6.81253 14.1563 6.7969 14.1563 6.78128C14.1563 6.76253 14.1906 6.75003 14.2313 6.75003C14.275 6.75003 14.3188 6.7344 14.3281 6.71878C14.3375 6.70003 14.3688 6.68753 14.3938 6.68753C14.4219 6.68753 14.4625 6.66878 14.4875 6.64378C14.5375 6.59065 14.5469 6.50003 14.5 6.50003C14.4844 6.50003 14.4688 6.4719 14.4688 6.43753C14.4688 6.40315 14.4563 6.37503 14.4375 6.37503C14.4219 6.37503 14.4063 6.3469 14.4063 6.31253C14.4063 6.27815 14.3938 6.25003 14.375 6.25003C14.3594 6.25003 14.3438 6.21565 14.3438 6.17503C14.3438 6.13128 14.3313 6.08753 14.3125 6.07815C14.2969 6.06878 14.2813 6.03128 14.2813 5.9969C14.2813 5.96565 14.2688 5.93753 14.25 5.93753C14.2344 5.93753 14.2188 5.9094 14.2188 5.87503C14.2188 5.84065 14.2063 5.81253 14.1875 5.81253C14.1719 5.81253 14.1563 5.7844 14.1563 5.75003C14.1563 5.71565 14.1438 5.68753 14.125 5.68753C14.1094 5.68753 14.0938 5.6594 14.0938 5.62503C14.0938 5.59065 14.0813 5.56253 14.0625 5.56253C14.0469 5.56253 14.0313 5.5344 14.0313 5.50003C14.0313 5.46565 14.0188 5.43753 14 5.43753C13.9844 5.43753 13.9688 5.4094 13.9688 5.37503C13.9688 5.34065 13.9563 5.31253 13.9375 5.31253C13.9219 5.31253 13.9063 5.28753 13.9063 5.25628C13.9063 5.22503 13.8781 5.18128 13.8438 5.15628C13.8094 5.13128 13.7813 5.08753 13.7813 5.05628C13.7813 5.02503 13.7688 5.00003 13.7563 5.00003C13.7406 5.00003 13.7094 4.96253 13.6844 4.91565C13.6594 4.86878 13.6031 4.78753 13.5563 4.73753C13.5063 4.68753 13.4688 4.6344 13.4688 4.61878C13.4688 4.58128 12.8156 3.93752 12.775 3.93752C12.7594 3.93752 12.7031 3.89377 12.6563 3.84377C12.6094 3.79065 12.55 3.75002 12.525 3.75002C12.5031 3.75002 12.4625 3.7219 12.4375 3.68752C12.4125 3.65315 12.3688 3.62502 12.3375 3.62502C12.3063 3.62502 12.2813 3.6094 12.2813 3.59377C12.2813 3.57502 12.2531 3.56252 12.2188 3.56252C12.1844 3.56252 12.1563 3.5469 12.1563 3.53127C12.1563 3.51252 12.1344 3.50002 12.1094 3.50002C12.0813 3.50002 12.0313 3.4719 11.9938 3.43752C11.9563 3.40315 11.8938 3.37502 11.8531 3.37502C11.8125 3.37502 11.7813 3.3594 11.7813 3.34377C11.7813 3.32502 11.7531 3.31252 11.7188 3.31252C11.6844 3.31252 11.6563 3.2969 11.6563 3.28127C11.6563 3.26252 11.6219 3.25002 11.5813 3.25002C11.5375 3.25002 11.4938 3.2344 11.4844 3.21877C11.475 3.20002 11.425 3.18752 11.3719 3.18752C11.3219 3.18752 11.2813 3.1719 11.2813 3.15627C11.2813 3.13752 11.2406 3.12502 11.1875 3.12502C11.1375 3.12502 11.0938 3.1094 11.0938 3.09377C11.0938 3.07502 11.025 3.06252 10.9375 3.06252C10.8531 3.06252 10.7813 3.0469 10.7813 3.03127C10.7813 3.01252 10.6875 3.00002 10.5625 3.00002C10.4375 3.00002 10.3438 2.98752 10.3438 2.96877C10.3438 2.95002 10.1906 2.93752 9.95 2.93752C9.525 2.93752 9.46875 2.91877 9.46875 2.76877C9.46875 2.72502 9.45625 2.68752 9.4375 2.68752C9.42188 2.68752 9.40625 2.65315 9.40625 2.61252C9.40625 2.56877 9.39375 2.52502 9.375 2.51565C9.35938 2.50627 9.34375 2.46877 9.34375 2.4344C9.34375 2.40315 9.33125 2.37502 9.3125 2.37502C9.29688 2.37502 9.28125 2.3469 9.28125 2.31252C9.28125 2.27815 9.26875 2.25002 9.25 2.25002C9.23438 2.25002 9.21875 2.22502 9.21875 2.19377C9.21875 2.16252 9.19063 2.11877 9.15625 2.09377C9.12188 2.06877 9.09375 2.02502 9.09375 1.99377C9.09375 1.96252 9.08125 1.93752 9.0625 1.93752C9.04688 1.93752 9.03125 1.91565 9.03125 1.88752C9.03125 1.8594 8.99063 1.7969 8.9375 1.75002C8.8875 1.70315 8.84375 1.6469 8.84375 1.62502C8.84375 1.60627 8.7875 1.5344 8.71875 1.46877C8.65 1.40315 8.59375 1.3344 8.59375 1.31252C8.59375 1.29377 8.57188 1.26877 8.54063 1.2594C8.5125 1.2469 8.39375 1.14377 8.275 1.02502C8.15625 0.9094 8.0375 0.812525 8.0125 0.812525C7.9875 0.812525 7.96875 0.7969 7.96875 0.781275C7.96875 0.762525 7.95 0.750025 7.92813 0.750025C7.90625 0.750025 7.85625 0.7219 7.81875 0.687525C7.78125 0.65315 7.73438 0.625025 7.7125 0.625025C7.6875 0.625025 7.65 0.5969 7.625 0.562525C7.6 0.52815 7.55625 0.500025 7.525 0.500025C7.49375 0.500025 7.46875 0.4844 7.46875 0.468775C7.46875 0.450025 7.44063 0.437525 7.40938 0.437525C7.375 0.437525 7.3375 0.4219 7.32813 0.406275C7.31875 0.387525 7.275 0.375025 7.23125 0.375025C7.19063 0.375025 7.15625 0.3594 7.15625 0.343775C7.15625 0.325025 7.12813 0.312525 7.09375 0.312525C7.05938 0.312525 7.03125 0.2969 7.03125 0.281275C7.03125 0.262525 6.99063 0.250025 6.9375 0.250025C6.8875 0.250025 6.84375 0.2344 6.84375 0.218775C6.84375 0.200025 6.7875 0.187525 6.71875 0.187525C6.65 0.187525 6.59375 0.1719 6.59375 0.156275C6.59375 0.137525 6.5375 0.125025 6.46875 0.125025C6.4 0.125025 6.34375 0.1094 6.34375 0.0937746C6.34375 0.0750246 6.21875 0.0625246 6.03125 0.0625246C5.84375 0.0625246 5.71875 0.0500246 5.71875 0.0312746C5.71875 0.0125246 5.6375 2.46214e-05 5.53438 2.46214e-05C5.43125 2.46214e-05 5.3375 0.0125246 5.32813 0.0312746ZM10.3594 5.21878C10.3688 5.2344 10.4281 5.25003 10.4875 5.25003C10.5469 5.25003 10.5938 5.26253 10.5938 5.28128C10.5938 5.2969 10.6375 5.31253 10.6875 5.31253C10.7406 5.31253 10.7813 5.32503 10.7813 5.34378C10.7813 5.3594 10.8094 5.37503 10.8438 5.37503C10.8781 5.37503 10.9063 5.38753 10.9063 5.40628C10.9063 5.4219 10.9344 5.43753 10.9688 5.43753C11.0031 5.43753 11.0313 5.45003 11.0313 5.46878C11.0313 5.4844 11.0531 5.50003 11.0781 5.50003C11.125 5.50003 11.2813 5.63128 11.2813 5.6719C11.2813 5.68128 11.2531 5.68753 11.2188 5.68753C11.1844 5.68753 11.1563 5.70003 11.1563 5.71878C11.1563 5.7344 11.1281 5.75003 11.0938 5.75003C11.0594 5.75003 11.0313 5.76253 11.0313 5.78128C11.0313 5.7969 11.0031 5.81253 10.9688 5.81253C10.9344 5.81253 10.9063 5.82503 10.9063 5.84378C10.9063 5.8594 10.8781 5.87503 10.8438 5.87503C10.8094 5.87503 10.7813 5.88753 10.7813 5.90628C10.7813 5.9219 10.7469 5.93753 10.7063 5.93753C10.6625 5.93753 10.6188 5.95003 10.6094 5.96878C10.6 5.9844 10.5625 6.00003 10.5281 6.00003C10.4969 6.00003 10.4688 6.01253 10.4688 6.03128C10.4688 6.0469 10.4406 6.06253 10.4063 6.06253C10.3719 6.06253 10.3438 6.07503 10.3438 6.09378C10.3438 6.1094 10.3156 6.12503 10.2813 6.12503C10.2469 6.12503 10.2188 6.13753 10.2188 6.15628C10.2188 6.1719 10.1906 6.18753 10.1563 6.18753C10.1219 6.18753 10.0938 6.20003 10.0938 6.21878C10.0938 6.2344 10.0656 6.25003 10.0313 6.25003C9.99688 6.25003 9.96875 6.26253 9.96875 6.28128C9.96875 6.2969 9.94688 6.31253 9.92188 6.31253C9.89688 6.31253 9.84688 6.32503 9.8125 6.34378C9.77813 6.3594 9.72188 6.38753 9.6875 6.40628C9.65313 6.4219 9.60313 6.43753 9.57813 6.43753C9.55313 6.43753 9.53125 6.45003 9.53125 6.46878C9.53125 6.4844 9.50313 6.50003 9.46875 6.50003C9.43438 6.50003 9.40625 6.51253 9.40625 6.53128C9.40625 6.5469 9.37813 6.56253 9.34375 6.56253C9.30938 6.56253 9.28125 6.57503 9.28125 6.59378C9.28125 6.6094 9.25313 6.62503 9.21875 6.62503C9.18438 6.62503 9.15625 6.63753 9.15625 6.65628C9.15625 6.6719 9.12813 6.68753 9.09375 6.68753C9.05938 6.68753 9.03125 6.70003 9.03125 6.71878C9.03125 6.7344 9.00938 6.75003 8.98438 6.75003C8.9375 6.75003 8.90625 6.76253 8.75938 6.83753C8.71875 6.8594 8.66563 6.87503 8.64063 6.87503C8.61563 6.87503 8.59375 6.88753 8.59375 6.90628C8.59375 6.9219 8.56563 6.93753 8.53125 6.93753C8.49688 6.93753 8.46875 6.95003 8.46875 6.96878C8.46875 6.9844 8.44063 7.00003 8.40625 7.00003C8.37188 7.00003 8.34375 7.01253 8.34375 7.03128C8.34375 7.0469 8.31563 7.06253 8.28125 7.06253C8.24688 7.06253 8.21875 7.07503 8.21875 7.09378C8.21875 7.1094 8.19063 7.12503 8.15625 7.12503C8.12188 7.12503 8.09375 7.13753 8.09375 7.15628C8.09375 7.1719 8.07188 7.18753 8.04688 7.18753C8.02188 7.18753 7.96875 7.20315 7.92813 7.22503C7.78125 7.30003 7.75 7.31253 7.70313 7.31253C7.67813 7.31253 7.65625 7.32503 7.65625 7.34378C7.65625 7.3594 7.62813 7.37503 7.59375 7.37503C7.54063 7.37503 7.53125 7.35315 7.53125 7.25003C7.53125 7.18128 7.54688 7.12503 7.5625 7.12503C7.58125 7.12503 7.59375 7.0844 7.59375 7.0344C7.59375 6.98128 7.60938 6.93128 7.625 6.9219C7.64375 6.91253 7.65625 6.86253 7.65625 6.81253C7.65625 6.76253 7.67188 6.71253 7.6875 6.70315C7.70625 6.69378 7.71875 6.65628 7.71875 6.6219C7.71875 6.59065 7.73438 6.56253 7.75 6.56253C7.76875 6.56253 7.78125 6.5344 7.78125 6.50003C7.78125 6.46565 7.79688 6.43753 7.8125 6.43753C7.83125 6.43753 7.84375 6.41565 7.84375 6.39065C7.84375 6.36565 7.8875 6.30003 7.9375 6.24378C7.99063 6.19065 8.03125 6.1344 8.03125 6.11878C8.03125 6.07815 8.475 5.6469 8.57188 5.5969C8.61875 5.5719 8.65625 5.54065 8.65625 5.52503C8.65625 5.51253 8.68438 5.50003 8.71875 5.50003C8.75313 5.50003 8.78125 5.4844 8.78125 5.46878C8.78125 5.45003 8.80938 5.43753 8.84375 5.43753C8.87813 5.43753 8.90625 5.4219 8.90625 5.40628C8.90625 5.38753 8.93438 5.37503 8.96875 5.37503C9.00313 5.37503 9.03125 5.3594 9.03125 5.34378C9.03125 5.32503 9.075 5.31253 9.125 5.31253C9.17813 5.31253 9.21875 5.2969 9.21875 5.28128C9.21875 5.26253 9.2625 5.25003 9.3125 5.25003C9.36563 5.25003 9.40625 5.2344 9.40625 5.21878C9.40625 5.20003 9.58125 5.18753 9.87188 5.18753C10.15 5.18753 10.3469 5.20003 10.3594 5.21878ZM28.3438 18.75C28.3438 18.7844 28.3313 18.8125 28.3125 18.8125C28.2938 18.8125 28.2813 18.9375 28.2813 19.125C28.2813 19.3125 28.2688 19.4375 28.25 19.4375C28.2313 19.4375 28.2188 19.5407 28.2188 19.6844C28.2188 19.8219 28.2031 19.9438 28.1875 19.9532C28.1688 19.9625 28.1563 20.05 28.1563 20.1438C28.1563 20.2375 28.1438 20.3125 28.125 20.3125C28.1094 20.3125 28.0938 20.3813 28.0938 20.4688C28.0938 20.5532 28.0813 20.625 28.0625 20.625C28.0469 20.625 28.0313 20.6813 28.0313 20.75C28.0313 20.8188 28.0188 20.875 28 20.875C27.9844 20.875 27.9688 20.9313 27.9688 21C27.9688 21.0688 27.9563 21.125 27.9375 21.125C27.9219 21.125 27.9063 21.1657 27.9063 21.2188C27.9063 21.2688 27.8938 21.3125 27.875 21.3125C27.8594 21.3125 27.8438 21.3563 27.8438 21.4063C27.8438 21.4594 27.8313 21.5282 27.8125 21.5625C27.7969 21.5969 27.7688 21.6532 27.75 21.6875C27.7344 21.7219 27.7188 21.7782 27.7188 21.8125C27.7188 21.8469 27.7063 21.875 27.6875 21.875C27.6719 21.875 27.6563 21.9157 27.6563 21.9688C27.6563 22.0188 27.6438 22.0625 27.625 22.0625C27.6094 22.0625 27.5938 22.0907 27.5938 22.125C27.5938 22.1594 27.5813 22.1875 27.5625 22.1875C27.5469 22.1875 27.5313 22.2157 27.5313 22.25C27.5313 22.2844 27.5188 22.3125 27.5 22.3125C27.4844 22.3125 27.4688 22.3469 27.4688 22.3875C27.4688 22.4313 27.4563 22.475 27.4375 22.4844C27.4219 22.4938 27.4063 22.5313 27.4063 22.5625C27.4063 22.5938 27.3969 22.625 27.3844 22.6313C27.3531 22.6438 27.2531 22.8094 27.2281 22.8813C27.2188 22.9125 27.2 22.9375 27.1844 22.9375C27.1688 22.9375 27.1563 22.9657 27.1563 23C27.1563 23.0344 27.1438 23.0625 27.125 23.0625C27.1094 23.0625 27.0938 23.0875 27.0938 23.1188C27.0938 23.15 27.0656 23.1938 27.0313 23.2188C26.9969 23.2438 26.9688 23.2844 26.9688 23.3125C26.9688 23.3407 26.9406 23.3813 26.9063 23.4063C26.8719 23.4313 26.8438 23.4719 26.8438 23.4938C26.8438 23.5188 26.8 23.5782 26.75 23.625C26.7 23.6719 26.6563 23.7282 26.6563 23.7469C26.6563 23.7938 25.7 24.75 25.6531 24.75C25.6344 24.75 25.5781 24.7907 25.5313 24.8438C25.4844 24.8969 25.425 24.9375 25.4 24.9375C25.3781 24.9375 25.3375 24.9657 25.3125 25C25.2875 25.0344 25.2469 25.0625 25.2188 25.0625C25.1906 25.0625 25.15 25.0907 25.125 25.125C25.1 25.1594 25.0563 25.1875 25.025 25.1875C24.9938 25.1875 24.9688 25.2 24.9688 25.2157C24.9688 25.2313 24.9438 25.25 24.9156 25.2594C24.8406 25.2844 24.675 25.3844 24.6625 25.4125C24.6563 25.4282 24.625 25.4375 24.5906 25.4375C24.5594 25.4375 24.5313 25.45 24.5313 25.4688C24.5313 25.4844 24.5031 25.5 24.4688 25.5C24.4344 25.5 24.4063 25.5125 24.4063 25.5313C24.4063 25.5469 24.3656 25.5625 24.3125 25.5625C24.2625 25.5625 24.2188 25.575 24.2188 25.5938C24.2188 25.6094 24.1906 25.625 24.1563 25.625C24.1219 25.625 24.0938 25.6375 24.0938 25.6563C24.0938 25.6719 24.0656 25.6875 24.0313 25.6875C23.9969 25.6875 23.9688 25.7 23.9688 25.7188C23.9688 25.7344 23.9281 25.75 23.875 25.75C23.825 25.75 23.7813 25.7625 23.7813 25.7813C23.7813 25.7969 23.7406 25.8125 23.6875 25.8125C23.6375 25.8125 23.5938 25.825 23.5938 25.8438C23.5938 25.8594 23.5531 25.875 23.5 25.875C23.45 25.875 23.4063 25.8875 23.4063 25.9063C23.4063 25.9219 23.3594 25.9375 23.3 25.9375C23.2406 25.9375 23.1813 25.95 23.1719 25.9688C23.1625 25.9844 23.1125 26 23.0594 26C23.0094 26 22.9688 26.0125 22.9688 26.0313C22.9688 26.0469 22.9063 26.0625 22.8313 26.0625C22.7531 26.0625 22.6813 26.075 22.6719 26.0938C22.6625 26.1094 22.5906 26.125 22.5156 26.125C22.4406 26.125 22.3688 26.1375 22.3594 26.1563C22.35 26.1719 22.25 26.1875 22.1406 26.1875C22.0313 26.1875 21.9313 26.2032 21.9219 26.2188C21.9125 26.2375 21.8063 26.25 21.6844 26.25C21.5625 26.25 21.4688 26.2625 21.4688 26.2813C21.4688 26.3 21.2563 26.3125 20.8938 26.3125C20.5406 26.3125 20.3094 26.325 20.2969 26.3438C20.2688 26.3875 11.7313 26.3875 11.7031 26.3438C11.6906 26.325 11.4594 26.3125 11.1063 26.3125C10.7438 26.3125 10.5313 26.3 10.5313 26.2813C10.5313 26.2625 10.4375 26.25 10.3156 26.25C10.1938 26.25 10.0875 26.2344 10.0781 26.2188C10.0688 26.2 9.96875 26.1875 9.85938 26.1875C9.75 26.1875 9.65 26.175 9.64063 26.1563C9.63125 26.1407 9.55938 26.125 9.48438 26.125C9.40938 26.125 9.3375 26.1094 9.32813 26.0938C9.31875 26.0782 9.24688 26.0625 9.16875 26.0625C9.09375 26.0625 9.03125 26.0469 9.03125 26.0313C9.03125 26.0125 8.99063 26 8.94063 26C8.8875 26 8.8375 25.9844 8.82813 25.9688C8.81875 25.95 8.75938 25.9375 8.7 25.9375C8.64063 25.9375 8.59375 25.9219 8.59375 25.9063C8.59375 25.8875 8.55313 25.875 8.5 25.875C8.45 25.875 8.40625 25.8594 8.40625 25.8438C8.40625 25.825 8.36563 25.8125 8.3125 25.8125C8.2625 25.8125 8.21875 25.7969 8.21875 25.7813C8.21875 25.7625 8.17813 25.75 8.125 25.75C8.075 25.75 8.03125 25.7344 8.03125 25.7188C8.03125 25.7 8.00313 25.6875 7.96875 25.6875C7.93438 25.6875 7.90625 25.6719 7.90625 25.6563C7.90625 25.6375 7.87813 25.625 7.84375 25.625C7.80938 25.625 7.78125 25.6094 7.78125 25.5938C7.78125 25.575 7.74063 25.5625 7.6875 25.5625C7.6375 25.5625 7.59375 25.5469 7.59375 25.5313C7.59375 25.5125 7.56563 25.5 7.53125 25.5C7.49688 25.5 7.46875 25.4844 7.46875 25.4688C7.46875 25.45 7.44063 25.4375 7.40625 25.4375C7.37188 25.4375 7.34375 25.425 7.34375 25.4094C7.34375 25.3938 7.31875 25.375 7.29063 25.3657C7.21563 25.3407 7.05 25.2407 7.0375 25.2094C7.03125 25.1969 7.00313 25.1875 6.97188 25.1875C6.94375 25.1875 6.9 25.1594 6.875 25.125C6.85 25.0907 6.80938 25.0625 6.78125 25.0625C6.75313 25.0625 6.7125 25.0344 6.6875 25C6.6625 24.9657 6.62188 24.9375 6.6 24.9375C6.575 24.9375 6.51563 24.8938 6.46875 24.8438C6.42188 24.7907 6.36563 24.75 6.34688 24.75C6.3 24.75 5.34375 23.7938 5.34375 23.7469C5.34375 23.7282 5.3 23.6719 5.25 23.625C5.19688 23.5782 5.15625 23.5188 5.15625 23.4938C5.15625 23.4719 5.12813 23.4313 5.09375 23.4063C5.05938 23.3813 5.03125 23.3407 5.03125 23.3125C5.03125 23.2844 5.00313 23.2438 4.96875 23.2188C4.93438 23.1938 4.90625 23.15 4.90625 23.1188C4.90625 23.0875 4.89375 23.0625 4.875 23.0625C4.85938 23.0625 4.84375 23.0344 4.84375 23C4.84375 22.9657 4.83125 22.9375 4.81563 22.9375C4.8 22.9375 4.78125 22.9125 4.77188 22.8813C4.74688 22.8094 4.64688 22.6438 4.61875 22.6313C4.60313 22.625 4.59375 22.5938 4.59375 22.5625C4.59375 22.5313 4.58125 22.4938 4.5625 22.4844C4.54688 22.475 4.53125 22.4313 4.53125 22.3875C4.53125 22.3469 4.51875 22.3125 4.5 22.3125C4.48438 22.3125 4.46875 22.2844 4.46875 22.25C4.46875 22.2157 4.45625 22.1875 4.4375 22.1875C4.42188 22.1875 4.40625 22.1594 4.40625 22.125C4.40625 22.0907 4.39375 22.0625 4.375 22.0625C4.35938 22.0625 4.34375 22.0188 4.34375 21.9688C4.34375 21.9157 4.33125 21.875 4.3125 21.875C4.29688 21.875 4.28125 21.8469 4.28125 21.8125C4.28125 21.7782 4.26875 21.7219 4.25 21.6875C4.23438 21.6532 4.20625 21.5969 4.1875 21.5625C4.17188 21.5282 4.15625 21.4594 4.15625 21.4063C4.15625 21.3563 4.14375 21.3125 4.125 21.3125C4.10938 21.3125 4.09375 21.2688 4.09375 21.2188C4.09375 21.1657 4.08125 21.125 4.0625 21.125C4.04688 21.125 4.03125 21.0688 4.03125 21C4.03125 20.9313 4.01875 20.875 4 20.875C3.98438 20.875 3.96875 20.8188 3.96875 20.75C3.96875 20.6813 3.95625 20.625 3.9375 20.625C3.92188 20.625 3.90625 20.5532 3.90625 20.4688C3.90625 20.3813 3.89375 20.3125 3.875 20.3125C3.85938 20.3125 3.84375 20.2375 3.84375 20.1438C3.84375 20.05 3.83125 19.9625 3.8125 19.9532C3.79688 19.9438 3.78125 19.8219 3.78125 19.6844C3.78125 19.5407 3.76875 19.4375 3.75 19.4375C3.73125 19.4375 3.71875 19.3125 3.71875 19.125C3.71875 18.9375 3.70625 18.8125 3.6875 18.8125C3.67188 18.8125 3.65625 18.7844 3.65625 18.75C3.65625 18.6875 3.67813 18.6875 16 18.6875C28.3219 18.6875 28.3438 18.6875 28.3438 18.75Z" fill="#131313"/>
</svg>
