<svg width="32" height="32" viewBox="0 0 32 32" fill="none" xmlns="http://www.w3.org/2000/svg">
<path d="M15.7281 0.0114256C15.6875 0.0208006 15.6562 0.0426756 15.6562 0.0583006C15.6562 0.0739256 15.6281 0.0864256 15.5938 0.0864256C15.5594 0.0864256 15.5312 0.0989256 15.5312 0.117676C15.5312 0.133301 15.5031 0.148926 15.4688 0.148926C15.4344 0.148926 15.4062 0.161426 15.4062 0.180176C15.4062 0.195801 15.3781 0.211426 15.3438 0.211426C15.3094 0.211426 15.2812 0.223926 15.2812 0.242676C15.2812 0.258301 15.2531 0.273926 15.2219 0.273926C15.1875 0.273926 15.15 0.286426 15.1406 0.305176C15.1312 0.320801 15.0875 0.336426 15.0437 0.336426C15.0031 0.336426 14.9688 0.348926 14.9688 0.367676C14.9688 0.383301 14.9406 0.398926 14.9062 0.398926C14.8719 0.398926 14.8438 0.411426 14.8438 0.430176C14.8438 0.445801 14.8156 0.461426 14.7812 0.461426C14.7469 0.461426 14.7188 0.473926 14.7188 0.492676C14.7188 0.508301 14.6906 0.523926 14.6562 0.523926C14.6219 0.523926 14.5938 0.536426 14.5938 0.555176C14.5938 0.570801 14.5656 0.586426 14.5344 0.586426C14.5 0.586426 14.4625 0.598926 14.4531 0.617676C14.4437 0.633301 14.4 0.648926 14.3562 0.648926C14.3156 0.648926 14.2812 0.661426 14.2812 0.680176C14.2812 0.695801 14.2531 0.711426 14.2188 0.711426C14.1844 0.711426 14.1562 0.723926 14.1562 0.742676C14.1562 0.758301 14.1281 0.773926 14.0938 0.773926C14.0594 0.773926 14.0312 0.786426 14.0312 0.805176C14.0312 0.820801 14.0031 0.836426 13.9688 0.836426C13.9344 0.836426 13.9062 0.848926 13.9062 0.867676C13.9062 0.883301 13.8781 0.898926 13.8469 0.898926C13.8125 0.898926 13.775 0.911426 13.7656 0.930176C13.7562 0.945801 13.7125 0.961426 13.6687 0.961426C13.6281 0.961426 13.5938 0.973926 13.5938 0.992676C13.5938 1.0083 13.5656 1.02393 13.5312 1.02393C13.4969 1.02393 13.4688 1.03643 13.4688 1.05518C13.4688 1.0708 13.4406 1.08643 13.4062 1.08643C13.3719 1.08643 13.3438 1.09893 13.3438 1.11768C13.3438 1.1333 13.3156 1.14893 13.2812 1.14893C13.2469 1.14893 13.2188 1.16143 13.2188 1.18018C13.2188 1.1958 13.1969 1.21143 13.1719 1.21143C13.1469 1.21143 13.0969 1.22393 13.0625 1.24268C13.0281 1.2583 12.9719 1.28643 12.9375 1.30518C12.9031 1.3208 12.8531 1.33643 12.8281 1.33643C12.8031 1.33643 12.7812 1.34893 12.7812 1.36768C12.7812 1.3833 12.7531 1.39893 12.7188 1.39893C12.6844 1.39893 12.6562 1.41143 12.6562 1.43018C12.6562 1.4458 12.6281 1.46143 12.5938 1.46143C12.5594 1.46143 12.5312 1.47393 12.5312 1.49268C12.5312 1.5083 12.5094 1.52393 12.4844 1.52393C12.4594 1.52393 12.4094 1.53643 12.375 1.55518C12.3406 1.5708 12.2844 1.59893 12.25 1.61768C12.2156 1.6333 12.1656 1.64893 12.1406 1.64893C12.1156 1.64893 12.0938 1.66143 12.0938 1.68018C12.0938 1.6958 12.0656 1.71143 12.0312 1.71143C11.9969 1.71143 11.9688 1.72393 11.9688 1.74268C11.9688 1.7583 11.9406 1.77393 11.9062 1.77393C11.8719 1.77393 11.8438 1.78643 11.8438 1.80518C11.8438 1.8208 11.8219 1.83643 11.7969 1.83643C11.7719 1.83643 11.7219 1.84893 11.6875 1.86768C11.6531 1.8833 11.5969 1.91143 11.5625 1.93018C11.5281 1.9458 11.4781 1.96143 11.4531 1.96143C11.4281 1.96143 11.4062 1.97393 11.4062 1.99268C11.4062 2.0083 11.3781 2.02393 11.3438 2.02393C11.3094 2.02393 11.2812 2.03643 11.2812 2.05518C11.2812 2.0708 11.2531 2.08643 11.2188 2.08643C11.1844 2.08643 11.1562 2.09893 11.1562 2.11768C11.1562 2.1333 11.1344 2.14893 11.1094 2.14893C11.0625 2.14893 11.0313 2.16143 10.8844 2.23643C10.8438 2.2583 10.7906 2.27393 10.7656 2.27393C10.7406 2.27393 10.7188 2.28643 10.7188 2.30518C10.7188 2.3208 10.6906 2.33643 10.6562 2.33643C10.6219 2.33643 10.5938 2.34893 10.5938 2.36768C10.5938 2.3833 10.5656 2.39893 10.5312 2.39893C10.4969 2.39893 10.4688 2.41143 10.4688 2.43018C10.4688 2.4458 10.4469 2.46143 10.4219 2.46143C10.3969 2.46143 10.3469 2.47393 10.3125 2.49268C10.2781 2.5083 10.2219 2.53643 10.1875 2.55518C10.1531 2.5708 10.1031 2.58643 10.0781 2.58643C10.0531 2.58643 10.0312 2.59893 10.0312 2.61768C10.0312 2.6333 10.0031 2.64893 9.96875 2.64893C9.93437 2.64893 9.90625 2.66143 9.90625 2.68018C9.90625 2.6958 9.87813 2.71143 9.84375 2.71143C9.80937 2.71143 9.78125 2.72393 9.78125 2.74268C9.78125 2.7583 9.75938 2.77393 9.73438 2.77393C9.70937 2.77393 9.65938 2.78643 9.625 2.80518C9.59062 2.8208 9.53438 2.84893 9.5 2.86768C9.46562 2.8833 9.41563 2.89893 9.39062 2.89893C9.36562 2.89893 9.34375 2.91143 9.34375 2.93018C9.34375 2.9458 9.31563 2.96143 9.28125 2.96143C9.24687 2.96143 9.21875 2.97393 9.21875 2.99268C9.21875 3.0083 9.19063 3.02393 9.15625 3.02393C9.12187 3.02393 9.09375 3.03643 9.09375 3.05518C9.09375 3.0708 9.06563 3.08643 9.03125 3.08643C8.99687 3.08643 8.96875 3.09893 8.96875 3.11768C8.96875 3.1333 8.93438 3.14893 8.89375 3.14893C8.85 3.14893 8.80625 3.16143 8.79688 3.18018C8.7875 3.1958 8.75 3.21143 8.71562 3.21143C8.68437 3.21143 8.65625 3.22393 8.65625 3.24268C8.65625 3.2583 8.62813 3.27393 8.59375 3.27393C8.55937 3.27393 8.53125 3.28643 8.53125 3.30518C8.53125 3.3208 8.50313 3.33643 8.46875 3.33643C8.43437 3.33643 8.40625 3.34893 8.40625 3.36768C8.40625 3.3833 8.37813 3.39893 8.34375 3.39893C8.30937 3.39893 8.28125 3.41143 8.28125 3.43018C8.28125 3.4458 8.24688 3.46143 8.20625 3.46143C8.1625 3.46143 8.11875 3.47393 8.10938 3.49268C8.1 3.5083 8.0625 3.52393 8.02812 3.52393C7.99687 3.52393 7.96875 3.53643 7.96875 3.55518C7.96875 3.5708 7.94063 3.58643 7.90625 3.58643C7.87187 3.58643 7.84375 3.59893 7.84375 3.61768C7.84375 3.6333 7.81563 3.64893 7.78125 3.64893C7.74687 3.64893 7.71875 3.66143 7.71875 3.68018C7.71875 3.6958 7.69063 3.71143 7.65625 3.71143C7.62187 3.71143 7.59375 3.72393 7.59375 3.74268C7.59375 3.7583 7.55938 3.77393 7.51875 3.77393C7.475 3.77393 7.43125 3.78643 7.42188 3.80518C7.4125 3.8208 7.375 3.83643 7.34063 3.83643C7.30938 3.83643 7.28125 3.84893 7.28125 3.86768C7.28125 3.8833 7.25313 3.89893 7.21875 3.89893C7.18437 3.89893 7.15625 3.91143 7.15625 3.93018C7.15625 3.9458 7.12813 3.96143 7.09375 3.96143C7.05937 3.96143 7.03125 3.97393 7.03125 3.99268C7.03125 4.0083 7.00313 4.02393 6.96875 4.02393C6.93437 4.02393 6.90625 4.03643 6.90625 4.05518C6.90625 4.0708 6.87188 4.08643 6.83125 4.08643C6.7875 4.08643 6.74375 4.09893 6.73438 4.11768C6.725 4.1333 6.6875 4.14893 6.65313 4.14893C6.62188 4.14893 6.59375 4.16143 6.59375 4.18018C6.59375 4.1958 6.56563 4.21143 6.53125 4.21143C6.49687 4.21143 6.46875 4.22393 6.46875 4.24268C6.46875 4.2583 6.44063 4.27393 6.40625 4.27393C6.37187 4.27393 6.34375 4.28643 6.34375 4.30518C6.34375 4.3208 6.31563 4.33643 6.28125 4.33643C6.24687 4.33643 6.21875 4.34893 6.21875 4.36768C6.21875 4.3833 6.18438 4.39893 6.14375 4.39893C6.1 4.39893 6.05625 4.41143 6.04688 4.43018C6.0375 4.4458 6 4.46143 5.96563 4.46143C5.93438 4.46143 5.90625 4.47393 5.90625 4.49268C5.90625 4.5083 5.87813 4.52393 5.84375 4.52393C5.80937 4.52393 5.78125 4.53643 5.78125 4.55518C5.78125 4.5708 5.75313 4.58643 5.71875 4.58643C5.68437 4.58643 5.65625 4.59893 5.65625 4.61768C5.65625 4.6333 5.62813 4.64893 5.59375 4.64893C5.55937 4.64893 5.53125 4.66143 5.53125 4.68018C5.53125 4.6958 5.49688 4.71143 5.45625 4.71143C5.4125 4.71143 5.36875 4.72393 5.35938 4.74268C5.35 4.7583 5.3125 4.77393 5.27813 4.77393C5.24688 4.77393 5.21875 4.78643 5.21875 4.80518C5.21875 4.8208 5.19063 4.83643 5.15625 4.83643C5.12187 4.83643 5.09375 4.84893 5.09375 4.86768C5.09375 4.8833 5.06563 4.89893 5.03125 4.89893C4.99687 4.89893 4.96875 4.91143 4.96875 4.93018C4.96875 4.9458 4.94063 4.96143 4.90625 4.96143C4.87187 4.96143 4.84375 4.97393 4.84375 4.99268C4.84375 5.0083 4.80938 5.02393 4.76875 5.02393C4.725 5.02393 4.68125 5.03643 4.67188 5.05518C4.6625 5.0708 4.625 5.08643 4.59063 5.08643C4.55938 5.08643 4.53125 5.09893 4.53125 5.11768C4.53125 5.1333 4.50313 5.14893 4.46875 5.14893C4.43437 5.14893 4.40625 5.16143 4.40625 5.18018C4.40625 5.1958 4.37813 5.21143 4.34375 5.21143C4.30937 5.21143 4.28125 5.22393 4.28125 5.24268C4.28125 5.2583 4.25313 5.27393 4.21875 5.27393C4.18437 5.27393 4.15625 5.28643 4.15625 5.30518C4.15625 5.3208 4.12188 5.33643 4.08125 5.33643C4.0375 5.33643 3.99375 5.34893 3.98438 5.36768C3.975 5.3833 3.9375 5.39893 3.90313 5.39893C3.87188 5.39893 3.84375 5.41143 3.84375 5.43018C3.84375 5.4458 3.81563 5.46143 3.78125 5.46143C3.74687 5.46143 3.71875 5.47393 3.71875 5.49268C3.71875 5.5083 3.69063 5.52393 3.65625 5.52393C3.62187 5.52393 3.59375 5.53643 3.59375 5.55518C3.59375 5.5708 3.56563 5.58643 3.53125 5.58643C3.49687 5.58643 3.46875 5.59893 3.46875 5.61768C3.46875 5.6333 3.43437 5.64893 3.39375 5.64893C3.35 5.64893 3.30625 5.66143 3.29688 5.68018C3.2875 5.6958 3.25 5.71143 3.21563 5.71143C3.18438 5.71143 3.15625 5.72393 3.15625 5.74268C3.15625 5.7583 3.12813 5.77393 3.09375 5.77393C3.05937 5.77393 3.03125 5.78643 3.03125 5.80518C3.03125 5.8208 3.00313 5.83643 2.96875 5.83643C2.93437 5.83643 2.90625 5.84893 2.90625 5.86768C2.90625 5.8833 2.87813 5.89893 2.84375 5.89893C2.80937 5.89893 2.78125 5.91143 2.78125 5.93018C2.78125 5.9458 2.74687 5.96143 2.70625 5.96143C2.6625 5.96143 2.61875 5.97393 2.60938 5.99268C2.6 6.0083 2.5625 6.02393 2.52813 6.02393C2.49688 6.02393 2.46875 6.03643 2.46875 6.05518C2.46875 6.0708 2.44063 6.08643 2.40625 6.08643C2.37187 6.08643 2.34375 6.09893 2.34375 6.11768C2.34375 6.1333 2.31563 6.14893 2.28125 6.14893C2.24687 6.14893 2.21875 6.16143 2.21875 6.18018C2.21875 6.1958 2.19063 6.21143 2.15625 6.21143C2.12187 6.21143 2.09375 6.22393 2.09375 6.24268C2.09375 6.2583 2.05937 6.27393 2.01875 6.27393C1.975 6.27393 1.93125 6.28643 1.92188 6.30518C1.9125 6.3208 1.875 6.33643 1.84063 6.33643C1.80938 6.33643 1.78125 6.34893 1.78125 6.36768C1.78125 6.3833 1.75313 6.39893 1.71875 6.39893C1.68437 6.39893 1.65625 6.41143 1.65625 6.43018C1.65625 6.4458 1.62813 6.46143 1.59375 6.46143C1.55937 6.46143 1.53125 6.47393 1.53125 6.49268C1.53125 6.5083 1.50313 6.52393 1.46875 6.52393C1.43437 6.52393 1.40625 6.53643 1.40625 6.55518C1.40625 6.5708 1.37188 6.58643 1.33125 6.58643C1.2875 6.58643 1.24375 6.59893 1.23438 6.61768C1.225 6.6333 1.1875 6.64893 1.15313 6.64893C1.12188 6.64893 1.09375 6.66143 1.09375 6.68018C1.09375 6.6958 1.06563 6.71143 1.03125 6.71143C0.996875 6.71143 0.96875 6.72393 0.96875 6.74268C0.96875 6.7583 0.940625 6.77393 0.90625 6.77393C0.871875 6.77393 0.84375 6.78643 0.84375 6.80518C0.84375 6.8208 0.815625 6.83643 0.78125 6.83643C0.746875 6.83643 0.71875 6.84893 0.71875 6.86768C0.71875 6.8833 0.684375 6.89893 0.64375 6.89893C0.6 6.89893 0.55625 6.91143 0.546875 6.93018C0.5375 6.9458 0.5 6.96143 0.465625 6.96143C0.434375 6.96143 0.40625 6.97393 0.40625 6.99268C0.40625 7.0083 0.378125 7.02393 0.34375 7.02393C0.309375 7.02393 0.28125 7.03643 0.28125 7.05518C0.28125 7.0708 0.253125 7.08643 0.21875 7.08643C0.184375 7.08643 0.15625 7.09893 0.15625 7.11768C0.15625 7.1333 0.128125 7.14893 0.096875 7.14893C0.065625 7.14893 0.028125 7.1708 0.01875 7.19893C0.009375 7.22705 0 12.8145 0 19.6208V31.9927H32V19.6208C32 12.8145 31.9906 7.22705 31.9813 7.19893C31.9719 7.1708 31.9344 7.14893 31.9031 7.14893C31.8719 7.14893 31.8438 7.1333 31.8438 7.11768C31.8438 7.09893 31.8156 7.08643 31.7812 7.08643C31.7469 7.08643 31.7188 7.0708 31.7188 7.05518C31.7188 7.03643 31.6906 7.02393 31.6562 7.02393C31.6219 7.02393 31.5938 7.0083 31.5938 6.99268C31.5938 6.97393 31.5656 6.96143 31.5344 6.96143C31.5 6.96143 31.4625 6.9458 31.4531 6.93018C31.4437 6.91143 31.4 6.89893 31.3563 6.89893C31.3156 6.89893 31.2812 6.8833 31.2812 6.86768C31.2812 6.84893 31.2531 6.83643 31.2188 6.83643C31.1844 6.83643 31.1562 6.8208 31.1562 6.80518C31.1562 6.78643 31.1281 6.77393 31.0938 6.77393C31.0594 6.77393 31.0312 6.7583 31.0312 6.74268C31.0312 6.72393 31.0031 6.71143 30.9688 6.71143C30.9344 6.71143 30.9062 6.6958 30.9062 6.68018C30.9062 6.66143 30.8781 6.64893 30.8469 6.64893C30.8125 6.64893 30.775 6.6333 30.7656 6.61768C30.7562 6.59893 30.7125 6.58643 30.6688 6.58643C30.6281 6.58643 30.5938 6.5708 30.5938 6.55518C30.5938 6.53643 30.5656 6.52393 30.5312 6.52393C30.4969 6.52393 30.4688 6.5083 30.4688 6.49268C30.4688 6.47393 30.4406 6.46143 30.4062 6.46143C30.3719 6.46143 30.3438 6.4458 30.3438 6.43018C30.3438 6.41143 30.3156 6.39893 30.2812 6.39893C30.2469 6.39893 30.2188 6.3833 30.2188 6.36768C30.2188 6.34893 30.1906 6.33643 30.1594 6.33643C30.125 6.33643 30.0875 6.3208 30.0781 6.30518C30.0687 6.28643 30.025 6.27393 29.9813 6.27393C29.9406 6.27393 29.9062 6.2583 29.9062 6.24268C29.9062 6.22393 29.8781 6.21143 29.8438 6.21143C29.8094 6.21143 29.7812 6.1958 29.7812 6.18018C29.7812 6.16143 29.7531 6.14893 29.7188 6.14893C29.6844 6.14893 29.6562 6.1333 29.6562 6.11768C29.6562 6.09893 29.6281 6.08643 29.5938 6.08643C29.5594 6.08643 29.5312 6.0708 29.5312 6.05518C29.5312 6.03643 29.5031 6.02393 29.4719 6.02393C29.4375 6.02393 29.4 6.0083 29.3906 5.99268C29.3812 5.97393 29.3375 5.96143 29.2938 5.96143C29.2531 5.96143 29.2188 5.9458 29.2188 5.93018C29.2188 5.91143 29.1906 5.89893 29.1562 5.89893C29.1219 5.89893 29.0938 5.8833 29.0938 5.86768C29.0938 5.84893 29.0656 5.83643 29.0312 5.83643C28.9969 5.83643 28.9688 5.8208 28.9688 5.80518C28.9688 5.78643 28.9406 5.77393 28.9062 5.77393C28.8719 5.77393 28.8438 5.7583 28.8438 5.74268C28.8438 5.72393 28.8156 5.71143 28.7844 5.71143C28.75 5.71143 28.7125 5.6958 28.7031 5.68018C28.6937 5.66143 28.65 5.64893 28.6063 5.64893C28.5656 5.64893 28.5312 5.6333 28.5312 5.61768C28.5312 5.59893 28.5031 5.58643 28.4688 5.58643C28.4344 5.58643 28.4062 5.5708 28.4062 5.55518C28.4062 5.53643 28.3781 5.52393 28.3438 5.52393C28.3094 5.52393 28.2812 5.5083 28.2812 5.49268C28.2812 5.47393 28.2531 5.46143 28.2188 5.46143C28.1844 5.46143 28.1562 5.4458 28.1562 5.43018C28.1562 5.41143 28.1281 5.39893 28.0969 5.39893C28.0625 5.39893 28.025 5.3833 28.0156 5.36768C28.0062 5.34893 27.9625 5.33643 27.9188 5.33643C27.8781 5.33643 27.8438 5.3208 27.8438 5.30518C27.8438 5.28643 27.8156 5.27393 27.7812 5.27393C27.7469 5.27393 27.7188 5.2583 27.7188 5.24268C27.7188 5.22393 27.6906 5.21143 27.6562 5.21143C27.6219 5.21143 27.5938 5.1958 27.5938 5.18018C27.5938 5.16143 27.5656 5.14893 27.5312 5.14893C27.4969 5.14893 27.4688 5.1333 27.4688 5.11768C27.4688 5.09893 27.4406 5.08643 27.4094 5.08643C27.375 5.08643 27.3375 5.0708 27.3281 5.05518C27.3187 5.03643 27.275 5.02393 27.2313 5.02393C27.1906 5.02393 27.1562 5.0083 27.1562 4.99268C27.1562 4.97393 27.1281 4.96143 27.0938 4.96143C27.0594 4.96143 27.0312 4.9458 27.0312 4.93018C27.0312 4.91143 27.0031 4.89893 26.9688 4.89893C26.9344 4.89893 26.9062 4.8833 26.9062 4.86768C26.9062 4.84893 26.8781 4.83643 26.8438 4.83643C26.8094 4.83643 26.7812 4.8208 26.7812 4.80518C26.7812 4.78643 26.7531 4.77393 26.7219 4.77393C26.6875 4.77393 26.65 4.7583 26.6406 4.74268C26.6312 4.72393 26.5875 4.71143 26.5438 4.71143C26.5031 4.71143 26.4688 4.6958 26.4688 4.68018C26.4688 4.66143 26.4406 4.64893 26.4062 4.64893C26.3719 4.64893 26.3438 4.6333 26.3438 4.61768C26.3438 4.59893 26.3156 4.58643 26.2812 4.58643C26.2469 4.58643 26.2188 4.5708 26.2188 4.55518C26.2188 4.53643 26.1906 4.52393 26.1562 4.52393C26.1219 4.52393 26.0938 4.5083 26.0938 4.49268C26.0938 4.47393 26.0656 4.46143 26.0344 4.46143C26 4.46143 25.9625 4.4458 25.9531 4.43018C25.9437 4.41143 25.9 4.39893 25.8563 4.39893C25.8156 4.39893 25.7812 4.3833 25.7812 4.36768C25.7812 4.34893 25.7531 4.33643 25.7188 4.33643C25.6844 4.33643 25.6562 4.3208 25.6562 4.30518C25.6562 4.28643 25.6281 4.27393 25.5938 4.27393C25.5594 4.27393 25.5312 4.2583 25.5312 4.24268C25.5312 4.22393 25.5031 4.21143 25.4688 4.21143C25.4344 4.21143 25.4062 4.1958 25.4062 4.18018C25.4062 4.16143 25.3781 4.14893 25.3469 4.14893C25.3125 4.14893 25.275 4.1333 25.2656 4.11768C25.2562 4.09893 25.2125 4.08643 25.1688 4.08643C25.1281 4.08643 25.0938 4.0708 25.0938 4.05518C25.0938 4.03643 25.0656 4.02393 25.0312 4.02393C24.9969 4.02393 24.9688 4.0083 24.9688 3.99268C24.9688 3.97393 24.9406 3.96143 24.9062 3.96143C24.8719 3.96143 24.8438 3.9458 24.8438 3.93018C24.8438 3.91143 24.8156 3.89893 24.7812 3.89893C24.7469 3.89893 24.7188 3.8833 24.7188 3.86768C24.7188 3.84893 24.6906 3.83643 24.6594 3.83643C24.625 3.83643 24.5875 3.8208 24.5781 3.80518C24.5687 3.78643 24.525 3.77393 24.4813 3.77393C24.4406 3.77393 24.4062 3.7583 24.4062 3.74268C24.4062 3.72393 24.3781 3.71143 24.3438 3.71143C24.3094 3.71143 24.2812 3.6958 24.2812 3.68018C24.2812 3.66143 24.2531 3.64893 24.2188 3.64893C24.1844 3.64893 24.1562 3.6333 24.1562 3.61768C24.1562 3.59893 24.1281 3.58643 24.0938 3.58643C24.0594 3.58643 24.0312 3.5708 24.0312 3.55518C24.0312 3.53643 24.0031 3.52393 23.9719 3.52393C23.9375 3.52393 23.9 3.5083 23.8906 3.49268C23.8812 3.47393 23.8375 3.46143 23.7938 3.46143C23.7531 3.46143 23.7188 3.4458 23.7188 3.43018C23.7188 3.41143 23.6906 3.39893 23.6562 3.39893C23.6219 3.39893 23.5938 3.3833 23.5938 3.36768C23.5938 3.34893 23.5656 3.33643 23.5312 3.33643C23.4969 3.33643 23.4688 3.3208 23.4688 3.30518C23.4688 3.28643 23.4406 3.27393 23.4062 3.27393C23.3719 3.27393 23.3438 3.2583 23.3438 3.24268C23.3438 3.22393 23.3156 3.21143 23.2844 3.21143C23.25 3.21143 23.2125 3.1958 23.2031 3.18018C23.1937 3.16143 23.15 3.14893 23.1063 3.14893C23.0656 3.14893 23.0312 3.1333 23.0312 3.11768C23.0312 3.09893 23.0031 3.08643 22.9688 3.08643C22.9344 3.08643 22.9062 3.0708 22.9062 3.05518C22.9062 3.03643 22.8781 3.02393 22.8438 3.02393C22.8094 3.02393 22.7812 3.0083 22.7812 2.99268C22.7812 2.97393 22.7531 2.96143 22.7188 2.96143C22.6844 2.96143 22.6562 2.9458 22.6562 2.93018C22.6562 2.91143 22.6344 2.89893 22.6094 2.89893C22.5844 2.89893 22.5344 2.8833 22.5 2.86768C22.4656 2.84893 22.4094 2.8208 22.375 2.80518C22.3406 2.78643 22.2906 2.77393 22.2656 2.77393C22.2406 2.77393 22.2188 2.7583 22.2188 2.74268C22.2188 2.72393 22.1906 2.71143 22.1562 2.71143C22.1219 2.71143 22.0938 2.6958 22.0938 2.68018C22.0938 2.66143 22.0656 2.64893 22.0312 2.64893C21.9969 2.64893 21.9688 2.6333 21.9688 2.61768C21.9688 2.59893 21.9469 2.58643 21.9219 2.58643C21.875 2.58643 21.8437 2.57393 21.6969 2.49893C21.6562 2.47705 21.6031 2.46143 21.5781 2.46143C21.5531 2.46143 21.5312 2.4458 21.5312 2.43018C21.5312 2.41143 21.5031 2.39893 21.4688 2.39893C21.4344 2.39893 21.4062 2.3833 21.4062 2.36768C21.4062 2.34893 21.3781 2.33643 21.3438 2.33643C21.3094 2.33643 21.2812 2.3208 21.2812 2.30518C21.2812 2.28643 21.2594 2.27393 21.2344 2.27393C21.2094 2.27393 21.1563 2.2583 21.1156 2.23643C20.9688 2.16143 20.9375 2.14893 20.8906 2.14893C20.8656 2.14893 20.8438 2.1333 20.8438 2.11768C20.8438 2.09893 20.8156 2.08643 20.7812 2.08643C20.7469 2.08643 20.7188 2.0708 20.7188 2.05518C20.7188 2.03643 20.6906 2.02393 20.6562 2.02393C20.6219 2.02393 20.5938 2.0083 20.5938 1.99268C20.5938 1.97393 20.5719 1.96143 20.5469 1.96143C20.5219 1.96143 20.4719 1.9458 20.4375 1.93018C20.4031 1.91143 20.3469 1.8833 20.3125 1.86768C20.2781 1.84893 20.2281 1.83643 20.2031 1.83643C20.1781 1.83643 20.1562 1.8208 20.1562 1.80518C20.1562 1.78643 20.1281 1.77393 20.0938 1.77393C20.0594 1.77393 20.0312 1.7583 20.0312 1.74268C20.0312 1.72393 20.0031 1.71143 19.9688 1.71143C19.9344 1.71143 19.9062 1.6958 19.9062 1.68018C19.9062 1.66143 19.8844 1.64893 19.8594 1.64893C19.8344 1.64893 19.7844 1.6333 19.75 1.61768C19.7156 1.59893 19.6594 1.5708 19.625 1.55518C19.5906 1.53643 19.5406 1.52393 19.5156 1.52393C19.4906 1.52393 19.4688 1.5083 19.4688 1.49268C19.4688 1.47393 19.4406 1.46143 19.4062 1.46143C19.3719 1.46143 19.3438 1.4458 19.3438 1.43018C19.3438 1.41143 19.3156 1.39893 19.2812 1.39893C19.2469 1.39893 19.2188 1.3833 19.2188 1.36768C19.2188 1.34893 19.1969 1.33643 19.1719 1.33643C19.1469 1.33643 19.0969 1.3208 19.0625 1.30518C19.0281 1.28643 18.9719 1.2583 18.9375 1.24268C18.9031 1.22393 18.8531 1.21143 18.8281 1.21143C18.8031 1.21143 18.7812 1.1958 18.7812 1.18018C18.7812 1.16143 18.7531 1.14893 18.7188 1.14893C18.6844 1.14893 18.6562 1.1333 18.6562 1.11768C18.6562 1.09893 18.6281 1.08643 18.5938 1.08643C18.5594 1.08643 18.5312 1.0708 18.5312 1.05518C18.5312 1.03643 18.5031 1.02393 18.4688 1.02393C18.4344 1.02393 18.4062 1.0083 18.4062 0.992676C18.4062 0.973926 18.3719 0.961426 18.3313 0.961426C18.2875 0.961426 18.2438 0.945801 18.2344 0.930176C18.225 0.911426 18.1875 0.898926 18.1531 0.898926C18.1219 0.898926 18.0938 0.883301 18.0938 0.867676C18.0938 0.848926 18.0656 0.836426 18.0312 0.836426C17.9969 0.836426 17.9688 0.820801 17.9688 0.805176C17.9688 0.786426 17.9406 0.773926 17.9062 0.773926C17.8719 0.773926 17.8438 0.758301 17.8438 0.742676C17.8438 0.723926 17.8156 0.711426 17.7812 0.711426C17.7469 0.711426 17.7188 0.695801 17.7188 0.680176C17.7188 0.661426 17.6844 0.648926 17.6438 0.648926C17.6 0.648926 17.5563 0.633301 17.5469 0.617676C17.5375 0.598926 17.5 0.586426 17.4656 0.586426C17.4344 0.586426 17.4062 0.570801 17.4062 0.555176C17.4062 0.536426 17.3781 0.523926 17.3438 0.523926C17.3094 0.523926 17.2812 0.508301 17.2812 0.492676C17.2812 0.473926 17.2531 0.461426 17.2188 0.461426C17.1844 0.461426 17.1562 0.445801 17.1562 0.430176C17.1562 0.411426 17.1281 0.398926 17.0938 0.398926C17.0594 0.398926 17.0312 0.383301 17.0312 0.367676C17.0312 0.348926 16.9969 0.336426 16.9563 0.336426C16.9125 0.336426 16.8688 0.320801 16.8594 0.305176C16.85 0.286426 16.8125 0.273926 16.7781 0.273926C16.7469 0.273926 16.7188 0.258301 16.7188 0.242676C16.7188 0.223926 16.6906 0.211426 16.6562 0.211426C16.6219 0.211426 16.5938 0.195801 16.5938 0.180176C16.5938 0.161426 16.5656 0.148926 16.5312 0.148926C16.4969 0.148926 16.4688 0.133301 16.4688 0.117676C16.4688 0.0989256 16.4406 0.0864256 16.4094 0.0864256C16.375 0.0864256 16.3437 0.0708006 16.3375 0.0489256C16.325 0.0114256 15.8594 -0.0166994 15.7281 0.0114256ZM16.0938 2.18018C16.0938 2.1958 16.1219 2.21143 16.1562 2.21143C16.1906 2.21143 16.2188 2.22393 16.2188 2.24268C16.2188 2.2583 16.2406 2.27393 16.2656 2.27393C16.2906 2.27393 16.3437 2.28955 16.3844 2.31143C16.5312 2.38643 16.5625 2.39893 16.6094 2.39893C16.6344 2.39893 16.6562 2.41143 16.6562 2.43018C16.6562 2.4458 16.6844 2.46143 16.7188 2.46143C16.7531 2.46143 16.7812 2.47393 16.7812 2.49268C16.7812 2.5083 16.8094 2.52393 16.8438 2.52393C16.8781 2.52393 16.9062 2.53643 16.9062 2.55518C16.9062 2.5708 16.9281 2.58643 16.9531 2.58643C17 2.58643 17.0313 2.59893 17.1781 2.67393C17.2188 2.6958 17.2719 2.71143 17.2969 2.71143C17.3219 2.71143 17.3438 2.72393 17.3438 2.74268C17.3438 2.7583 17.3719 2.77393 17.4062 2.77393C17.4406 2.77393 17.4688 2.78643 17.4688 2.80518C17.4688 2.8208 17.4969 2.83643 17.5312 2.83643C17.5656 2.83643 17.5938 2.84893 17.5938 2.86768C17.5938 2.8833 17.6156 2.89893 17.6406 2.89893C17.6656 2.89893 17.7156 2.91143 17.75 2.93018C17.7844 2.9458 17.8406 2.97393 17.875 2.99268C17.9094 3.0083 17.9594 3.02393 17.9844 3.02393C18.0094 3.02393 18.0312 3.03643 18.0312 3.05518C18.0312 3.0708 18.0594 3.08643 18.0938 3.08643C18.1281 3.08643 18.1562 3.09893 18.1562 3.11768C18.1562 3.1333 18.1844 3.14893 18.2188 3.14893C18.2531 3.14893 18.2812 3.16143 18.2812 3.18018C18.2812 3.1958 18.3031 3.21143 18.3281 3.21143C18.3531 3.21143 18.4031 3.22393 18.4375 3.24268C18.4719 3.2583 18.5281 3.28643 18.5625 3.30518C18.5969 3.3208 18.6469 3.33643 18.6719 3.33643C18.6969 3.33643 18.7188 3.34893 18.7188 3.36768C18.7188 3.3833 18.7469 3.39893 18.7812 3.39893C18.8156 3.39893 18.8438 3.41143 18.8438 3.43018C18.8438 3.4458 18.8719 3.46143 18.9062 3.46143C18.9406 3.46143 18.9688 3.47393 18.9688 3.49268C18.9688 3.5083 18.9906 3.52393 19.0156 3.52393C19.0625 3.52393 19.0938 3.53643 19.2406 3.61143C19.2813 3.6333 19.3344 3.64893 19.3594 3.64893C19.3844 3.64893 19.4062 3.66143 19.4062 3.68018C19.4062 3.6958 19.4344 3.71143 19.4688 3.71143C19.5031 3.71143 19.5312 3.72393 19.5312 3.74268C19.5312 3.7583 19.5594 3.77393 19.5938 3.77393C19.6281 3.77393 19.6562 3.78643 19.6562 3.80518C19.6562 3.8208 19.6781 3.83643 19.7031 3.83643C19.7281 3.83643 19.7812 3.85205 19.8219 3.87393C19.9687 3.94893 20 3.96143 20.0469 3.96143C20.0719 3.96143 20.0938 3.97393 20.0938 3.99268C20.0938 4.0083 20.1219 4.02393 20.1562 4.02393C20.1906 4.02393 20.2188 4.03643 20.2188 4.05518C20.2188 4.0708 20.2469 4.08643 20.2812 4.08643C20.3156 4.08643 20.3438 4.09893 20.3438 4.11768C20.3438 4.1333 20.3656 4.14893 20.3906 4.14893C20.4156 4.14893 20.4656 4.16143 20.5 4.18018C20.5344 4.1958 20.5906 4.22393 20.625 4.24268C20.6594 4.2583 20.7094 4.27393 20.7344 4.27393C20.7594 4.27393 20.7812 4.28643 20.7812 4.30518C20.7812 4.3208 20.8094 4.33643 20.8438 4.33643C20.8781 4.33643 20.9062 4.34893 20.9062 4.36768C20.9062 4.3833 20.9344 4.39893 20.9688 4.39893C21.0031 4.39893 21.0312 4.41143 21.0312 4.43018C21.0312 4.4458 21.0594 4.46143 21.0938 4.46143C21.1281 4.46143 21.1562 4.47393 21.1562 4.49268C21.1562 4.5083 21.1906 4.52393 21.2313 4.52393C21.275 4.52393 21.3187 4.53643 21.3281 4.55518C21.3375 4.5708 21.375 4.58643 21.4094 4.58643C21.4406 4.58643 21.4688 4.59893 21.4688 4.61768C21.4688 4.6333 21.4969 4.64893 21.5312 4.64893C21.5656 4.64893 21.5938 4.66143 21.5938 4.68018C21.5938 4.6958 21.6219 4.71143 21.6562 4.71143C21.6906 4.71143 21.7188 4.72393 21.7188 4.74268C21.7188 4.7583 21.7469 4.77393 21.7812 4.77393C21.8156 4.77393 21.8438 4.78643 21.8438 4.80518C21.8438 4.8208 21.8781 4.83643 21.9188 4.83643C21.9625 4.83643 22.0062 4.84893 22.0156 4.86768C22.025 4.8833 22.0625 4.89893 22.0969 4.89893C22.1281 4.89893 22.1562 4.91143 22.1562 4.93018C22.1562 4.9458 22.1844 4.96143 22.2188 4.96143C22.2531 4.96143 22.2812 4.97393 22.2812 4.99268C22.2812 5.0083 22.3094 5.02393 22.3438 5.02393C22.3781 5.02393 22.4062 5.03643 22.4062 5.05518C22.4062 5.0708 22.4344 5.08643 22.4688 5.08643C22.5031 5.08643 22.5312 5.09893 22.5312 5.11768C22.5312 5.1333 22.5656 5.14893 22.6063 5.14893C22.65 5.14893 22.6937 5.16143 22.7031 5.18018C22.7125 5.1958 22.75 5.21143 22.7844 5.21143C22.8156 5.21143 22.8438 5.22393 22.8438 5.24268C22.8438 5.2583 22.8719 5.27393 22.9062 5.27393C22.9406 5.27393 22.9688 5.28643 22.9688 5.30518C22.9688 5.3208 22.9969 5.33643 23.0312 5.33643C23.0656 5.33643 23.0938 5.34893 23.0938 5.36768C23.0938 5.3833 23.1219 5.39893 23.1562 5.39893C23.1906 5.39893 23.2188 5.41143 23.2188 5.43018C23.2188 5.4458 23.2531 5.46143 23.2938 5.46143C23.3375 5.46143 23.3812 5.47393 23.3906 5.49268C23.4 5.5083 23.4375 5.52393 23.4719 5.52393C23.5031 5.52393 23.5312 5.53643 23.5312 5.55518C23.5312 5.5708 23.5594 5.58643 23.5938 5.58643C23.6281 5.58643 23.6562 5.59893 23.6562 5.61768C23.6562 5.6333 23.6844 5.64893 23.7188 5.64893C23.7531 5.64893 23.7812 5.66143 23.7812 5.68018C23.7812 5.6958 23.8094 5.71143 23.8438 5.71143C23.8781 5.71143 23.9062 5.72393 23.9062 5.74268C23.9062 5.7583 23.9406 5.77393 23.9813 5.77393C24.025 5.77393 24.0687 5.78643 24.0781 5.80518C24.0875 5.8208 24.125 5.83643 24.1594 5.83643C24.1906 5.83643 24.2188 5.84893 24.2188 5.86768C24.2188 5.8833 24.2469 5.89893 24.2812 5.89893C24.3156 5.89893 24.3438 5.91143 24.3438 5.93018C24.3438 5.9458 24.3719 5.96143 24.4062 5.96143C24.4406 5.96143 24.4688 5.97393 24.4688 5.99268C24.4688 6.0083 24.4969 6.02393 24.5312 6.02393C24.5656 6.02393 24.5938 6.03643 24.5938 6.05518C24.5938 6.0708 24.6281 6.08643 24.6688 6.08643C24.7125 6.08643 24.7562 6.09893 24.7656 6.11768C24.775 6.1333 24.8125 6.14893 24.8469 6.14893C24.8781 6.14893 24.9062 6.16143 24.9062 6.18018C24.9062 6.1958 24.9344 6.21143 24.9688 6.21143C25.0031 6.21143 25.0312 6.22393 25.0312 6.24268C25.0312 6.2583 25.0594 6.27393 25.0938 6.27393C25.1281 6.27393 25.1562 6.28643 25.1562 6.30518C25.1562 6.3208 25.1844 6.33643 25.2188 6.33643C25.2531 6.33643 25.2812 6.34893 25.2812 6.36768C25.2812 6.3833 25.3156 6.39893 25.3563 6.39893C25.4 6.39893 25.4437 6.41143 25.4531 6.43018C25.4625 6.4458 25.5 6.46143 25.5344 6.46143C25.5656 6.46143 25.5938 6.47393 25.5938 6.49268C25.5938 6.5083 25.6219 6.52393 25.6562 6.52393C25.6906 6.52393 25.7188 6.53643 25.7188 6.55518C25.7188 6.5708 25.7469 6.58643 25.7812 6.58643C25.8156 6.58643 25.8438 6.59893 25.8438 6.61768C25.8438 6.6333 25.8719 6.64893 25.9062 6.64893C25.9406 6.64893 25.9688 6.66143 25.9688 6.68018C25.9688 6.6958 26.0031 6.71143 26.0438 6.71143C26.0875 6.71143 26.1312 6.72393 26.1406 6.74268C26.15 6.7583 26.1875 6.77393 26.2219 6.77393C26.2531 6.77393 26.2812 6.78643 26.2812 6.80518C26.2812 6.8208 26.3094 6.83643 26.3438 6.83643C26.3781 6.83643 26.4062 6.84893 26.4062 6.86768C26.4062 6.8833 26.4344 6.89893 26.4688 6.89893C26.5031 6.89893 26.5312 6.91143 26.5312 6.93018C26.5312 6.9458 26.5594 6.96143 26.5938 6.96143C26.6281 6.96143 26.6562 6.97393 26.6562 6.99268C26.6562 7.0083 26.6906 7.02393 26.7313 7.02393C26.775 7.02393 26.8187 7.03643 26.8281 7.05518C26.8375 7.0708 26.875 7.08643 26.9094 7.08643C26.9406 7.08643 26.9688 7.09893 26.9688 7.11768C26.9688 7.1333 26.9969 7.14893 27.0312 7.14893C27.0656 7.14893 27.0938 7.16143 27.0938 7.18018C27.0938 7.1958 27.1219 7.21143 27.1562 7.21143C27.1906 7.21143 27.2188 7.22393 27.2188 7.24268C27.2188 7.2583 27.2469 7.27393 27.2812 7.27393C27.3156 7.27393 27.3438 7.28643 27.3438 7.30518C27.3438 7.3208 27.3719 7.33643 27.4031 7.33643C27.4375 7.33643 27.475 7.34893 27.4844 7.36768C27.4938 7.3833 27.5375 7.39893 27.5813 7.39893C27.6219 7.39893 27.6562 7.41143 27.6562 7.43018C27.6562 7.4458 27.6844 7.46143 27.7188 7.46143C27.7531 7.46143 27.7812 7.47393 27.7812 7.49268C27.7812 7.5083 27.8094 7.52393 27.8438 7.52393C27.8781 7.52393 27.9062 7.53643 27.9062 7.55518C27.9062 7.5708 27.9344 7.58643 27.9688 7.58643C28.0031 7.58643 28.0312 7.59893 28.0312 7.61768C28.0312 7.6333 28.0594 7.64893 28.0906 7.64893C28.125 7.64893 28.1625 7.66143 28.1719 7.68018C28.1813 7.6958 28.225 7.71143 28.2688 7.71143C28.3094 7.71143 28.3438 7.72393 28.3438 7.74268C28.3438 7.7583 28.3719 7.77393 28.4062 7.77393C28.4406 7.77393 28.4688 7.78643 28.4688 7.80518C28.4688 7.8208 28.4969 7.83643 28.5312 7.83643C28.5656 7.83643 28.5938 7.84893 28.5938 7.86768C28.5938 7.8833 28.6219 7.89893 28.6562 7.89893C28.6906 7.89893 28.7188 7.91143 28.7188 7.93018C28.7188 7.9458 28.7469 7.96143 28.7781 7.96143C28.8125 7.96143 28.85 7.97393 28.8594 7.99268C28.8688 8.0083 28.9125 8.02393 28.9563 8.02393C28.9969 8.02393 29.0312 8.03643 29.0312 8.05518C29.0312 8.0708 29.0594 8.08643 29.0938 8.08643C29.1281 8.08643 29.1562 8.09893 29.1562 8.11768C29.1562 8.1333 29.1844 8.14893 29.2188 8.14893C29.2531 8.14893 29.2812 8.16143 29.2812 8.18018C29.2812 8.1958 29.3094 8.21143 29.3438 8.21143C29.3781 8.21143 29.4062 8.22393 29.4062 8.24268C29.4062 8.2583 29.4344 8.27393 29.4656 8.27393C29.5 8.27393 29.5375 8.28643 29.5469 8.30518C29.5563 8.3208 29.6 8.33643 29.6438 8.33643C29.6844 8.33643 29.7188 8.34893 29.7188 8.36768C29.7188 8.3833 29.7469 8.39893 29.7812 8.39893C29.8156 8.39893 29.8438 8.41143 29.8438 8.43018C29.8438 8.4458 29.8719 8.46143 29.9062 8.46143C29.9406 8.46143 29.9688 8.47393 29.9688 8.49268C29.9688 8.5083 29.9969 8.52393 30.0312 8.52393C30.0938 8.52393 30.0938 8.5458 30.0938 19.3052V30.0864H26.4062V28.2739H28.2812V18.7739H27C25.7406 18.7739 25.7188 18.7739 25.7188 18.7114C25.7188 18.6771 25.7063 18.6489 25.6875 18.6489C25.6719 18.6489 25.6562 18.6208 25.6562 18.5864C25.6562 18.5521 25.6438 18.5239 25.625 18.5239C25.6094 18.5239 25.5938 18.4958 25.5938 18.4614C25.5938 18.4271 25.5813 18.3989 25.5625 18.3989C25.5469 18.3989 25.5312 18.3708 25.5312 18.3364C25.5312 18.3021 25.5188 18.2739 25.5 18.2739C25.4844 18.2739 25.4688 18.2458 25.4688 18.2114C25.4688 18.1771 25.4563 18.1489 25.4375 18.1489C25.4219 18.1489 25.4062 18.1208 25.4062 18.0864C25.4062 18.0521 25.3938 18.0239 25.375 18.0239C25.3594 18.0239 25.3438 17.9958 25.3438 17.9614C25.3438 17.9271 25.3313 17.8989 25.3125 17.8989C25.2969 17.8989 25.2812 17.8708 25.2812 17.8364C25.2812 17.8021 25.2688 17.7739 25.25 17.7739C25.2344 17.7739 25.2188 17.7458 25.2188 17.7114C25.2188 17.6771 25.2063 17.6489 25.1875 17.6489C25.1719 17.6489 25.1562 17.6208 25.1562 17.5864C25.1562 17.5521 25.1438 17.5239 25.125 17.5239C25.1094 17.5239 25.0938 17.4958 25.0938 17.4614C25.0938 17.4271 25.0813 17.3989 25.0625 17.3989C25.0469 17.3989 25.0312 17.3708 25.0312 17.3364C25.0312 17.3021 25.0188 17.2739 25 17.2739C24.9844 17.2739 24.9688 17.2458 24.9688 17.2114C24.9688 17.1771 24.9563 17.1489 24.9375 17.1489C24.9219 17.1489 24.9062 17.1208 24.9062 17.0864C24.9062 17.0521 24.8938 17.0239 24.875 17.0239C24.8594 17.0239 24.8438 16.9958 24.8438 16.9614C24.8438 16.9271 24.8313 16.8989 24.8125 16.8989C24.7969 16.8989 24.7812 16.8708 24.7812 16.8364C24.7812 16.8021 24.7688 16.7739 24.75 16.7739C24.7344 16.7739 24.7188 16.7458 24.7188 16.7114C24.7188 16.6771 24.7063 16.6489 24.6875 16.6489C24.6719 16.6489 24.6562 16.6208 24.6562 16.5864C24.6562 16.5521 24.6438 16.5239 24.625 16.5239C24.6094 16.5239 24.5938 16.4958 24.5938 16.4614C24.5938 16.4271 24.5813 16.3989 24.5625 16.3989C24.5469 16.3989 24.5312 16.3708 24.5312 16.3364C24.5312 16.3021 24.5188 16.2739 24.5 16.2739C24.4844 16.2739 24.4688 16.2458 24.4688 16.2114C24.4688 16.1771 24.4563 16.1489 24.4375 16.1489C24.4219 16.1489 24.4062 16.1208 24.4062 16.0864C24.4062 16.0521 24.3938 16.0239 24.375 16.0239C24.3594 16.0239 24.3438 15.9958 24.3438 15.9614C24.3438 15.9271 24.3313 15.8989 24.3125 15.8989C24.2969 15.8989 24.2812 15.8708 24.2812 15.8364C24.2812 15.8021 24.2688 15.7739 24.25 15.7739C24.2344 15.7739 24.2188 15.7458 24.2188 15.7114C24.2188 15.6771 24.2063 15.6489 24.1875 15.6489C24.1719 15.6489 24.1562 15.6208 24.1562 15.5864C24.1562 15.5521 24.1438 15.5239 24.125 15.5239C24.1094 15.5239 24.0938 15.4958 24.0938 15.4614C24.0938 15.4271 24.0813 15.3989 24.0625 15.3989C24.0469 15.3989 24.0312 15.3708 24.0312 15.3364C24.0312 15.3021 24.0188 15.2739 24 15.2739C23.9844 15.2739 23.9688 15.2458 23.9688 15.2114C23.9688 15.1771 23.9563 15.1489 23.9375 15.1489C23.9219 15.1489 23.9062 15.1208 23.9062 15.0864C23.9062 15.0521 23.8938 15.0239 23.875 15.0239C23.8594 15.0239 23.8438 14.9958 23.8438 14.9614C23.8438 14.9271 23.8313 14.8989 23.8125 14.8989C23.7969 14.8989 23.7812 14.8708 23.7812 14.8364C23.7812 14.8021 23.7688 14.7739 23.75 14.7739C23.7344 14.7739 23.7188 14.7458 23.7188 14.7114C23.7188 14.6771 23.7063 14.6489 23.6875 14.6489C23.6719 14.6489 23.6562 14.6208 23.6562 14.5864C23.6562 14.5521 23.6438 14.5239 23.625 14.5239C23.6094 14.5239 23.5938 14.4958 23.5938 14.4614C23.5938 14.4271 23.5813 14.3989 23.5625 14.3989C23.5469 14.3989 23.5312 14.3708 23.5312 14.3364C23.5312 14.3021 23.5188 14.2739 23.5 14.2739C23.4844 14.2739 23.4688 14.2458 23.4688 14.2114C23.4688 14.1771 23.4563 14.1489 23.4375 14.1489C23.4219 14.1489 23.4062 14.1208 23.4062 14.0864C23.4062 14.0521 23.3938 14.0239 23.375 14.0239C23.3594 14.0239 23.3438 13.9958 23.3438 13.9614C23.3438 13.9271 23.3313 13.8989 23.3125 13.8989C23.2969 13.8989 23.2812 13.8708 23.2812 13.8364C23.2812 13.8021 23.2688 13.7739 23.25 13.7739C23.2344 13.7739 23.2188 13.7458 23.2188 13.7114C23.2188 13.6771 23.2063 13.6489 23.1875 13.6489C23.1719 13.6489 23.1562 13.6208 23.1562 13.5864C23.1562 13.5521 23.1438 13.5239 23.125 13.5239C23.1094 13.5239 23.0938 13.4958 23.0938 13.4614C23.0938 13.4271 23.0813 13.3989 23.0625 13.3989C23.0469 13.3989 23.0312 13.3708 23.0312 13.3364C23.0312 13.3021 23.0188 13.2739 23 13.2739C22.9844 13.2739 22.9688 13.2458 22.9688 13.2114C22.9688 13.1771 22.9563 13.1489 22.9375 13.1489C22.9219 13.1489 22.9062 13.1208 22.9062 13.0864C22.9062 13.0521 22.8938 13.0239 22.875 13.0239C22.8594 13.0239 22.8438 12.9958 22.8438 12.9614C22.8438 12.9271 22.8313 12.8989 22.8125 12.8989C22.7969 12.8989 22.7812 12.8708 22.7812 12.8364C22.7812 12.8021 22.7688 12.7739 22.75 12.7739C22.7344 12.7739 22.7188 12.7458 22.7188 12.7114C22.7188 12.6771 22.7063 12.6489 22.6875 12.6489C22.6719 12.6489 22.6562 12.6208 22.6562 12.5864C22.6562 12.5239 22.6344 12.5239 16 12.5239C9.36562 12.5239 9.34375 12.5239 9.34375 12.5864C9.34375 12.6208 9.33125 12.6489 9.3125 12.6489C9.29688 12.6489 9.28125 12.6771 9.28125 12.7114C9.28125 12.7458 9.26875 12.7739 9.25 12.7739C9.23438 12.7739 9.21875 12.8021 9.21875 12.8364C9.21875 12.8708 9.20625 12.8989 9.1875 12.8989C9.17188 12.8989 9.15625 12.9271 9.15625 12.9614C9.15625 12.9958 9.14375 13.0239 9.125 13.0239C9.10938 13.0239 9.09375 13.0521 9.09375 13.0864C9.09375 13.1208 9.08125 13.1489 9.0625 13.1489C9.04688 13.1489 9.03125 13.1771 9.03125 13.2114C9.03125 13.2458 9.01875 13.2739 9 13.2739C8.98438 13.2739 8.96875 13.3021 8.96875 13.3364C8.96875 13.3708 8.95625 13.3989 8.9375 13.3989C8.92188 13.3989 8.90625 13.4271 8.90625 13.4614C8.90625 13.4958 8.89375 13.5239 8.875 13.5239C8.85938 13.5239 8.84375 13.5521 8.84375 13.5864C8.84375 13.6208 8.83125 13.6489 8.8125 13.6489C8.79688 13.6489 8.78125 13.6771 8.78125 13.7114C8.78125 13.7458 8.76875 13.7739 8.75 13.7739C8.73438 13.7739 8.71875 13.8021 8.71875 13.8364C8.71875 13.8708 8.70625 13.8989 8.6875 13.8989C8.67188 13.8989 8.65625 13.9271 8.65625 13.9614C8.65625 13.9958 8.64375 14.0239 8.625 14.0239C8.60938 14.0239 8.59375 14.0521 8.59375 14.0864C8.59375 14.1208 8.58125 14.1489 8.5625 14.1489C8.54688 14.1489 8.53125 14.1771 8.53125 14.2114C8.53125 14.2458 8.51875 14.2739 8.5 14.2739C8.48438 14.2739 8.46875 14.3021 8.46875 14.3364C8.46875 14.3708 8.45625 14.3989 8.4375 14.3989C8.42188 14.3989 8.40625 14.4271 8.40625 14.4614C8.40625 14.4958 8.39375 14.5239 8.375 14.5239C8.35938 14.5239 8.34375 14.5521 8.34375 14.5864C8.34375 14.6208 8.33125 14.6489 8.3125 14.6489C8.29688 14.6489 8.28125 14.6771 8.28125 14.7114C8.28125 14.7458 8.26875 14.7739 8.25 14.7739C8.23438 14.7739 8.21875 14.8021 8.21875 14.8364C8.21875 14.8708 8.20625 14.8989 8.1875 14.8989C8.17188 14.8989 8.15625 14.9271 8.15625 14.9614C8.15625 14.9958 8.14375 15.0239 8.125 15.0239C8.10938 15.0239 8.09375 15.0521 8.09375 15.0864C8.09375 15.1208 8.08125 15.1489 8.0625 15.1489C8.04688 15.1489 8.03125 15.1771 8.03125 15.2114C8.03125 15.2458 8.01875 15.2739 8 15.2739C7.98438 15.2739 7.96875 15.3021 7.96875 15.3364C7.96875 15.3708 7.95625 15.3989 7.9375 15.3989C7.92188 15.3989 7.90625 15.4271 7.90625 15.4614C7.90625 15.4958 7.89375 15.5239 7.875 15.5239C7.85938 15.5239 7.84375 15.5521 7.84375 15.5864C7.84375 15.6208 7.83125 15.6489 7.8125 15.6489C7.79688 15.6489 7.78125 15.6771 7.78125 15.7114C7.78125 15.7458 7.76875 15.7739 7.75 15.7739C7.73438 15.7739 7.71875 15.8021 7.71875 15.8364C7.71875 15.8708 7.70625 15.8989 7.6875 15.8989C7.67188 15.8989 7.65625 15.9271 7.65625 15.9614C7.65625 15.9958 7.64375 16.0239 7.625 16.0239C7.60938 16.0239 7.59375 16.0521 7.59375 16.0864C7.59375 16.1208 7.58125 16.1489 7.5625 16.1489C7.54688 16.1489 7.53125 16.1771 7.53125 16.2114C7.53125 16.2458 7.51875 16.2739 7.5 16.2739C7.48438 16.2739 7.46875 16.3021 7.46875 16.3364C7.46875 16.3708 7.45625 16.3989 7.4375 16.3989C7.42188 16.3989 7.40625 16.4271 7.40625 16.4614C7.40625 16.4958 7.39375 16.5239 7.375 16.5239C7.35938 16.5239 7.34375 16.5521 7.34375 16.5864C7.34375 16.6208 7.33125 16.6489 7.3125 16.6489C7.29688 16.6489 7.28125 16.6771 7.28125 16.7114C7.28125 16.7458 7.26875 16.7739 7.25 16.7739C7.23438 16.7739 7.21875 16.8021 7.21875 16.8364C7.21875 16.8708 7.20625 16.8989 7.1875 16.8989C7.17188 16.8989 7.15625 16.9271 7.15625 16.9614C7.15625 16.9958 7.14375 17.0239 7.125 17.0239C7.10938 17.0239 7.09375 17.0521 7.09375 17.0864C7.09375 17.1208 7.08125 17.1489 7.0625 17.1489C7.04688 17.1489 7.03125 17.1771 7.03125 17.2114C7.03125 17.2458 7.01875 17.2739 7 17.2739C6.98438 17.2739 6.96875 17.3021 6.96875 17.3364C6.96875 17.3708 6.95625 17.3989 6.9375 17.3989C6.92188 17.3989 6.90625 17.4271 6.90625 17.4614C6.90625 17.4958 6.89375 17.5239 6.875 17.5239C6.85938 17.5239 6.84375 17.5521 6.84375 17.5864C6.84375 17.6208 6.83125 17.6489 6.8125 17.6489C6.79688 17.6489 6.78125 17.6771 6.78125 17.7114C6.78125 17.7458 6.76875 17.7739 6.75 17.7739C6.73438 17.7739 6.71875 17.8021 6.71875 17.8364C6.71875 17.8708 6.70625 17.8989 6.6875 17.8989C6.67188 17.8989 6.65625 17.9271 6.65625 17.9614C6.65625 17.9958 6.64375 18.0239 6.625 18.0239C6.60938 18.0239 6.59375 18.0521 6.59375 18.0864C6.59375 18.1208 6.58125 18.1489 6.5625 18.1489C6.54688 18.1489 6.53125 18.1771 6.53125 18.2114C6.53125 18.2458 6.51875 18.2739 6.5 18.2739C6.48438 18.2739 6.46875 18.3021 6.46875 18.3364C6.46875 18.3708 6.45625 18.3989 6.4375 18.3989C6.42188 18.3989 6.40625 18.4271 6.40625 18.4614C6.40625 18.4958 6.39375 18.5239 6.375 18.5239C6.35938 18.5239 6.34375 18.5521 6.34375 18.5864C6.34375 18.6208 6.33125 18.6489 6.3125 18.6489C6.29688 18.6489 6.28125 18.6771 6.28125 18.7114C6.28125 18.7739 6.25937 18.7739 5 18.7739H3.71875V28.2739H5.59375V30.0864H1.90625V19.3052C1.90625 8.5458 1.90625 8.52393 1.96875 8.52393C2.00313 8.52393 2.03125 8.5083 2.03125 8.49268C2.03125 8.47393 2.05937 8.46143 2.09375 8.46143C2.12813 8.46143 2.15625 8.4458 2.15625 8.43018C2.15625 8.41143 2.18437 8.39893 2.21875 8.39893C2.25313 8.39893 2.28125 8.3833 2.28125 8.36768C2.28125 8.34893 2.31563 8.33643 2.35625 8.33643C2.4 8.33643 2.44375 8.3208 2.45312 8.30518C2.4625 8.28643 2.5 8.27393 2.53437 8.27393C2.56562 8.27393 2.59375 8.2583 2.59375 8.24268C2.59375 8.22393 2.62187 8.21143 2.65625 8.21143C2.69063 8.21143 2.71875 8.1958 2.71875 8.18018C2.71875 8.16143 2.74687 8.14893 2.78125 8.14893C2.81563 8.14893 2.84375 8.1333 2.84375 8.11768C2.84375 8.09893 2.87187 8.08643 2.90625 8.08643C2.94063 8.08643 2.96875 8.0708 2.96875 8.05518C2.96875 8.03643 3.00313 8.02393 3.04375 8.02393C3.0875 8.02393 3.13125 8.0083 3.14062 7.99268C3.15 7.97393 3.1875 7.96143 3.22187 7.96143C3.25312 7.96143 3.28125 7.9458 3.28125 7.93018C3.28125 7.91143 3.30937 7.89893 3.34375 7.89893C3.37813 7.89893 3.40625 7.8833 3.40625 7.86768C3.40625 7.84893 3.43437 7.83643 3.46875 7.83643C3.50313 7.83643 3.53125 7.8208 3.53125 7.80518C3.53125 7.78643 3.55937 7.77393 3.59375 7.77393C3.62813 7.77393 3.65625 7.7583 3.65625 7.74268C3.65625 7.72393 3.69063 7.71143 3.73125 7.71143C3.775 7.71143 3.81875 7.6958 3.82812 7.68018C3.8375 7.66143 3.875 7.64893 3.90937 7.64893C3.94062 7.64893 3.96875 7.6333 3.96875 7.61768C3.96875 7.59893 3.99687 7.58643 4.03125 7.58643C4.06563 7.58643 4.09375 7.5708 4.09375 7.55518C4.09375 7.53643 4.12187 7.52393 4.15625 7.52393C4.19063 7.52393 4.21875 7.5083 4.21875 7.49268C4.21875 7.47393 4.24687 7.46143 4.28125 7.46143C4.31563 7.46143 4.34375 7.4458 4.34375 7.43018C4.34375 7.41143 4.37813 7.39893 4.41875 7.39893C4.4625 7.39893 4.50625 7.3833 4.51562 7.36768C4.525 7.34893 4.5625 7.33643 4.59688 7.33643C4.62813 7.33643 4.65625 7.3208 4.65625 7.30518C4.65625 7.28643 4.68437 7.27393 4.71875 7.27393C4.75313 7.27393 4.78125 7.2583 4.78125 7.24268C4.78125 7.22393 4.80937 7.21143 4.84375 7.21143C4.87813 7.21143 4.90625 7.1958 4.90625 7.18018C4.90625 7.16143 4.93437 7.14893 4.96875 7.14893C5.00313 7.14893 5.03125 7.1333 5.03125 7.11768C5.03125 7.09893 5.05938 7.08643 5.09063 7.08643C5.125 7.08643 5.1625 7.0708 5.17188 7.05518C5.18125 7.03643 5.225 7.02393 5.26875 7.02393C5.30938 7.02393 5.34375 7.0083 5.34375 6.99268C5.34375 6.97393 5.37187 6.96143 5.40625 6.96143C5.44063 6.96143 5.46875 6.9458 5.46875 6.93018C5.46875 6.91143 5.49687 6.89893 5.53125 6.89893C5.56563 6.89893 5.59375 6.8833 5.59375 6.86768C5.59375 6.84893 5.62187 6.83643 5.65625 6.83643C5.69063 6.83643 5.71875 6.8208 5.71875 6.80518C5.71875 6.78643 5.74688 6.77393 5.77813 6.77393C5.8125 6.77393 5.85 6.7583 5.85938 6.74268C5.86875 6.72393 5.9125 6.71143 5.95625 6.71143C5.99688 6.71143 6.03125 6.6958 6.03125 6.68018C6.03125 6.66143 6.05937 6.64893 6.09375 6.64893C6.12813 6.64893 6.15625 6.6333 6.15625 6.61768C6.15625 6.59893 6.18437 6.58643 6.21875 6.58643C6.25313 6.58643 6.28125 6.5708 6.28125 6.55518C6.28125 6.53643 6.30937 6.52393 6.34375 6.52393C6.37813 6.52393 6.40625 6.5083 6.40625 6.49268C6.40625 6.47393 6.43438 6.46143 6.46563 6.46143C6.5 6.46143 6.5375 6.4458 6.54688 6.43018C6.55625 6.41143 6.6 6.39893 6.64375 6.39893C6.68438 6.39893 6.71875 6.3833 6.71875 6.36768C6.71875 6.34893 6.74687 6.33643 6.78125 6.33643C6.81563 6.33643 6.84375 6.3208 6.84375 6.30518C6.84375 6.28643 6.87187 6.27393 6.90625 6.27393C6.94063 6.27393 6.96875 6.2583 6.96875 6.24268C6.96875 6.22393 6.99687 6.21143 7.03125 6.21143C7.06563 6.21143 7.09375 6.1958 7.09375 6.18018C7.09375 6.16143 7.12188 6.14893 7.15313 6.14893C7.1875 6.14893 7.225 6.1333 7.23438 6.11768C7.24375 6.09893 7.2875 6.08643 7.33125 6.08643C7.37188 6.08643 7.40625 6.0708 7.40625 6.05518C7.40625 6.03643 7.43437 6.02393 7.46875 6.02393C7.50313 6.02393 7.53125 6.0083 7.53125 5.99268C7.53125 5.97393 7.55937 5.96143 7.59375 5.96143C7.62813 5.96143 7.65625 5.9458 7.65625 5.93018C7.65625 5.91143 7.68437 5.89893 7.71875 5.89893C7.75313 5.89893 7.78125 5.8833 7.78125 5.86768C7.78125 5.84893 7.80938 5.83643 7.84063 5.83643C7.875 5.83643 7.9125 5.8208 7.92188 5.80518C7.93125 5.78643 7.975 5.77393 8.01875 5.77393C8.05938 5.77393 8.09375 5.7583 8.09375 5.74268C8.09375 5.72393 8.12187 5.71143 8.15625 5.71143C8.19063 5.71143 8.21875 5.6958 8.21875 5.68018C8.21875 5.66143 8.24687 5.64893 8.28125 5.64893C8.31563 5.64893 8.34375 5.6333 8.34375 5.61768C8.34375 5.59893 8.37187 5.58643 8.40625 5.58643C8.44063 5.58643 8.46875 5.5708 8.46875 5.55518C8.46875 5.53643 8.49687 5.52393 8.52812 5.52393C8.5625 5.52393 8.6 5.5083 8.60938 5.49268C8.61875 5.47393 8.6625 5.46143 8.70625 5.46143C8.74688 5.46143 8.78125 5.4458 8.78125 5.43018C8.78125 5.41143 8.80937 5.39893 8.84375 5.39893C8.87813 5.39893 8.90625 5.3833 8.90625 5.36768C8.90625 5.34893 8.93437 5.33643 8.96875 5.33643C9.00313 5.33643 9.03125 5.3208 9.03125 5.30518C9.03125 5.28643 9.05937 5.27393 9.09375 5.27393C9.12813 5.27393 9.15625 5.2583 9.15625 5.24268C9.15625 5.22393 9.18437 5.21143 9.21562 5.21143C9.25 5.21143 9.2875 5.1958 9.29688 5.18018C9.30625 5.16143 9.35 5.14893 9.39375 5.14893C9.43438 5.14893 9.46875 5.1333 9.46875 5.11768C9.46875 5.09893 9.49687 5.08643 9.53125 5.08643C9.56563 5.08643 9.59375 5.0708 9.59375 5.05518C9.59375 5.03643 9.62187 5.02393 9.65625 5.02393C9.69063 5.02393 9.71875 5.0083 9.71875 4.99268C9.71875 4.97393 9.74687 4.96143 9.78125 4.96143C9.81563 4.96143 9.84375 4.9458 9.84375 4.93018C9.84375 4.91143 9.87187 4.89893 9.90312 4.89893C9.9375 4.89893 9.975 4.8833 9.98438 4.86768C9.99375 4.84893 10.0375 4.83643 10.0813 4.83643C10.1219 4.83643 10.1562 4.8208 10.1562 4.80518C10.1562 4.78643 10.1844 4.77393 10.2188 4.77393C10.2531 4.77393 10.2812 4.7583 10.2812 4.74268C10.2812 4.72393 10.3094 4.71143 10.3438 4.71143C10.3781 4.71143 10.4062 4.6958 10.4062 4.68018C10.4062 4.66143 10.4344 4.64893 10.4688 4.64893C10.5031 4.64893 10.5312 4.6333 10.5312 4.61768C10.5312 4.59893 10.5594 4.58643 10.5906 4.58643C10.625 4.58643 10.6625 4.5708 10.6719 4.55518C10.6813 4.53643 10.725 4.52393 10.7688 4.52393C10.8094 4.52393 10.8438 4.5083 10.8438 4.49268C10.8438 4.47393 10.8719 4.46143 10.9062 4.46143C10.9406 4.46143 10.9688 4.4458 10.9688 4.43018C10.9688 4.41143 10.9969 4.39893 11.0312 4.39893C11.0656 4.39893 11.0938 4.3833 11.0938 4.36768C11.0938 4.34893 11.1219 4.33643 11.1562 4.33643C11.1906 4.33643 11.2188 4.3208 11.2188 4.30518C11.2188 4.28643 11.2406 4.27393 11.2656 4.27393C11.2906 4.27393 11.3406 4.2583 11.375 4.24268C11.4094 4.22393 11.4656 4.1958 11.5 4.18018C11.5344 4.16143 11.5844 4.14893 11.6094 4.14893C11.6344 4.14893 11.6562 4.1333 11.6562 4.11768C11.6562 4.09893 11.6844 4.08643 11.7188 4.08643C11.7531 4.08643 11.7812 4.0708 11.7812 4.05518C11.7812 4.03643 11.8094 4.02393 11.8438 4.02393C11.8781 4.02393 11.9062 4.0083 11.9062 3.99268C11.9062 3.97393 11.9281 3.96143 11.9531 3.96143C11.9781 3.96143 12.0313 3.9458 12.0719 3.92393C12.2188 3.84893 12.25 3.83643 12.2969 3.83643C12.3219 3.83643 12.3438 3.8208 12.3438 3.80518C12.3438 3.78643 12.3719 3.77393 12.4062 3.77393C12.4406 3.77393 12.4688 3.7583 12.4688 3.74268C12.4688 3.72393 12.4969 3.71143 12.5312 3.71143C12.5656 3.71143 12.5938 3.6958 12.5938 3.68018C12.5938 3.66143 12.6156 3.64893 12.6406 3.64893C12.6656 3.64893 12.7156 3.6333 12.75 3.61768C12.7844 3.59893 12.8406 3.5708 12.875 3.55518C12.9094 3.53643 12.9594 3.52393 12.9844 3.52393C13.0094 3.52393 13.0312 3.5083 13.0312 3.49268C13.0312 3.47393 13.0594 3.46143 13.0938 3.46143C13.1281 3.46143 13.1562 3.4458 13.1562 3.43018C13.1562 3.41143 13.1844 3.39893 13.2188 3.39893C13.2531 3.39893 13.2812 3.3833 13.2812 3.36768C13.2812 3.34893 13.3031 3.33643 13.3281 3.33643C13.3531 3.33643 13.4031 3.3208 13.4375 3.30518C13.4719 3.28643 13.5281 3.2583 13.5625 3.24268C13.5969 3.22393 13.6469 3.21143 13.6719 3.21143C13.6969 3.21143 13.7188 3.1958 13.7188 3.18018C13.7188 3.16143 13.7469 3.14893 13.7812 3.14893C13.8156 3.14893 13.8438 3.1333 13.8438 3.11768C13.8438 3.09893 13.8719 3.08643 13.9062 3.08643C13.9406 3.08643 13.9688 3.0708 13.9688 3.05518C13.9688 3.03643 13.9906 3.02393 14.0156 3.02393C14.0406 3.02393 14.0906 3.0083 14.125 2.99268C14.1594 2.97393 14.2156 2.9458 14.25 2.93018C14.2844 2.91143 14.3344 2.89893 14.3594 2.89893C14.3844 2.89893 14.4062 2.8833 14.4062 2.86768C14.4062 2.84893 14.4344 2.83643 14.4688 2.83643C14.5031 2.83643 14.5312 2.8208 14.5312 2.80518C14.5312 2.78643 14.5594 2.77393 14.5938 2.77393C14.6281 2.77393 14.6562 2.7583 14.6562 2.74268C14.6562 2.72393 14.6781 2.71143 14.7031 2.71143C14.7281 2.71143 14.7781 2.6958 14.8125 2.68018C14.8469 2.66143 14.9031 2.6333 14.9375 2.61768C14.9719 2.59893 15.0219 2.58643 15.0469 2.58643C15.0719 2.58643 15.0938 2.5708 15.0938 2.55518C15.0938 2.53643 15.1219 2.52393 15.1562 2.52393C15.1906 2.52393 15.2188 2.5083 15.2188 2.49268C15.2188 2.47393 15.2469 2.46143 15.2812 2.46143C15.3156 2.46143 15.3438 2.4458 15.3438 2.43018C15.3438 2.41143 15.3656 2.39893 15.3906 2.39893C15.4156 2.39893 15.4656 2.3833 15.5 2.36768C15.5344 2.34893 15.5906 2.3208 15.625 2.30518C15.6594 2.28643 15.7094 2.27393 15.7344 2.27393C15.7594 2.27393 15.7812 2.2583 15.7812 2.24268C15.7812 2.22393 15.8094 2.21143 15.8438 2.21143C15.8781 2.21143 15.9062 2.1958 15.9062 2.18018C15.9062 2.16143 15.95 2.14893 16 2.14893C16.0531 2.14893 16.0938 2.16143 16.0938 2.18018ZM21.3625 14.5677C21.3875 14.5927 21.4062 14.6364 21.4062 14.6614C21.4062 14.6896 21.4219 14.7114 21.4375 14.7114C21.4563 14.7114 21.4688 14.7396 21.4688 14.7739C21.4688 14.8083 21.4844 14.8364 21.5 14.8364C21.5188 14.8364 21.5312 14.8646 21.5312 14.8989C21.5312 14.9333 21.5469 14.9614 21.5625 14.9614C21.5813 14.9614 21.5938 14.9896 21.5938 15.0239C21.5938 15.0583 21.6094 15.0864 21.625 15.0864C21.6438 15.0864 21.6562 15.1146 21.6562 15.1489C21.6562 15.1833 21.6719 15.2114 21.6875 15.2114C21.7063 15.2114 21.7188 15.2396 21.7188 15.2739C21.7188 15.3083 21.7344 15.3364 21.75 15.3364C21.7688 15.3364 21.7812 15.3646 21.7812 15.3989C21.7812 15.4333 21.7969 15.4614 21.8125 15.4614C21.8313 15.4614 21.8438 15.4896 21.8438 15.5239C21.8438 15.5583 21.8594 15.5864 21.875 15.5864C21.8938 15.5864 21.9062 15.6146 21.9062 15.6489C21.9062 15.6833 21.9219 15.7114 21.9375 15.7114C21.9563 15.7114 21.9688 15.7396 21.9688 15.7739C21.9688 15.8083 21.9844 15.8364 22 15.8364C22.0188 15.8364 22.0312 15.8646 22.0312 15.8989C22.0312 15.9333 22.0469 15.9614 22.0625 15.9614C22.0813 15.9614 22.0938 15.9896 22.0938 16.0239C22.0938 16.0583 22.1094 16.0864 22.125 16.0864C22.1438 16.0864 22.1562 16.1146 22.1562 16.1489C22.1562 16.1833 22.1719 16.2114 22.1875 16.2114C22.2063 16.2114 22.2188 16.2396 22.2188 16.2739C22.2188 16.3083 22.2344 16.3364 22.25 16.3364C22.2688 16.3364 22.2812 16.3646 22.2812 16.3989C22.2812 16.4333 22.2969 16.4614 22.3125 16.4614C22.3313 16.4614 22.3438 16.4896 22.3438 16.5239C22.3438 16.5583 22.3594 16.5864 22.375 16.5864C22.3938 16.5864 22.4062 16.6146 22.4062 16.6489C22.4062 16.6833 22.4219 16.7114 22.4375 16.7114C22.4563 16.7114 22.4688 16.7396 22.4688 16.7739C22.4688 16.8083 22.4844 16.8364 22.5 16.8364C22.5188 16.8364 22.5312 16.8646 22.5312 16.8989C22.5312 16.9333 22.5469 16.9614 22.5625 16.9614C22.5813 16.9614 22.5938 16.9896 22.5938 17.0239C22.5938 17.0583 22.6094 17.0864 22.625 17.0864C22.6438 17.0864 22.6562 17.1146 22.6562 17.1489C22.6562 17.1833 22.6719 17.2114 22.6875 17.2114C22.7063 17.2114 22.7188 17.2396 22.7188 17.2739C22.7188 17.3083 22.7344 17.3364 22.75 17.3364C22.7688 17.3364 22.7812 17.3646 22.7812 17.3989C22.7812 17.4333 22.7969 17.4614 22.8125 17.4614C22.8313 17.4614 22.8438 17.4896 22.8438 17.5239C22.8438 17.5583 22.8594 17.5864 22.875 17.5864C22.8938 17.5864 22.9062 17.6146 22.9062 17.6489C22.9062 17.6833 22.9219 17.7114 22.9375 17.7114C22.9563 17.7114 22.9688 17.7396 22.9688 17.7739C22.9688 17.8083 22.9844 17.8364 23 17.8364C23.0188 17.8364 23.0312 17.8646 23.0312 17.8989C23.0312 17.9333 23.0469 17.9614 23.0625 17.9614C23.0813 17.9614 23.0938 17.9896 23.0938 18.0239C23.0938 18.0583 23.1094 18.0864 23.125 18.0864C23.1438 18.0864 23.1562 18.1146 23.1562 18.1489C23.1562 18.1833 23.1719 18.2114 23.1875 18.2114C23.2063 18.2114 23.2188 18.2396 23.2188 18.2739C23.2188 18.3083 23.2344 18.3364 23.25 18.3364C23.2688 18.3364 23.2812 18.3646 23.2812 18.3989C23.2812 18.4333 23.2969 18.4614 23.3125 18.4614C23.3313 18.4614 23.3438 18.4896 23.3438 18.5239C23.3438 18.5583 23.3594 18.5864 23.375 18.5864C23.3938 18.5864 23.4062 18.6146 23.4062 18.6489C23.4062 18.6833 23.4219 18.7114 23.4375 18.7114C23.4563 18.7114 23.4688 18.7239 23.4688 18.7427C23.4688 18.7646 20.9594 18.7739 16 18.7739C11.0406 18.7739 8.53125 18.7646 8.53125 18.7427C8.53125 18.7239 8.54688 18.7114 8.5625 18.7114C8.58125 18.7114 8.59375 18.6833 8.59375 18.6489C8.59375 18.6146 8.60938 18.5864 8.625 18.5864C8.64375 18.5864 8.65625 18.5583 8.65625 18.5239C8.65625 18.4896 8.67188 18.4614 8.6875 18.4614C8.70625 18.4614 8.71875 18.4333 8.71875 18.3989C8.71875 18.3646 8.73438 18.3364 8.75 18.3364C8.76875 18.3364 8.78125 18.3083 8.78125 18.2739C8.78125 18.2396 8.79688 18.2114 8.8125 18.2114C8.83125 18.2114 8.84375 18.1833 8.84375 18.1489C8.84375 18.1146 8.85938 18.0864 8.875 18.0864C8.89375 18.0864 8.90625 18.0583 8.90625 18.0239C8.90625 17.9896 8.92188 17.9614 8.9375 17.9614C8.95625 17.9614 8.96875 17.9333 8.96875 17.8989C8.96875 17.8646 8.98438 17.8364 9 17.8364C9.01875 17.8364 9.03125 17.8083 9.03125 17.7739C9.03125 17.7396 9.04688 17.7114 9.0625 17.7114C9.08125 17.7114 9.09375 17.6833 9.09375 17.6489C9.09375 17.6146 9.10938 17.5864 9.125 17.5864C9.14375 17.5864 9.15625 17.5583 9.15625 17.5239C9.15625 17.4896 9.17188 17.4614 9.1875 17.4614C9.20625 17.4614 9.21875 17.4333 9.21875 17.3989C9.21875 17.3646 9.23438 17.3364 9.25 17.3364C9.26875 17.3364 9.28125 17.3083 9.28125 17.2739C9.28125 17.2396 9.29688 17.2114 9.3125 17.2114C9.33125 17.2114 9.34375 17.1833 9.34375 17.1489C9.34375 17.1146 9.35938 17.0864 9.375 17.0864C9.39375 17.0864 9.40625 17.0583 9.40625 17.0239C9.40625 16.9896 9.42188 16.9614 9.4375 16.9614C9.45625 16.9614 9.46875 16.9333 9.46875 16.8989C9.46875 16.8646 9.48438 16.8364 9.5 16.8364C9.51875 16.8364 9.53125 16.8083 9.53125 16.7739C9.53125 16.7396 9.54688 16.7114 9.5625 16.7114C9.58125 16.7114 9.59375 16.6833 9.59375 16.6489C9.59375 16.6146 9.60938 16.5864 9.625 16.5864C9.64375 16.5864 9.65625 16.5583 9.65625 16.5239C9.65625 16.4896 9.67188 16.4614 9.6875 16.4614C9.70625 16.4614 9.71875 16.4333 9.71875 16.3989C9.71875 16.3646 9.73438 16.3364 9.75 16.3364C9.76875 16.3364 9.78125 16.3083 9.78125 16.2739C9.78125 16.2396 9.79688 16.2114 9.8125 16.2114C9.83125 16.2114 9.84375 16.1833 9.84375 16.1489C9.84375 16.1146 9.85938 16.0864 9.875 16.0864C9.89375 16.0864 9.90625 16.0583 9.90625 16.0239C9.90625 15.9896 9.92188 15.9614 9.9375 15.9614C9.95625 15.9614 9.96875 15.9333 9.96875 15.8989C9.96875 15.8646 9.98438 15.8364 10 15.8364C10.0188 15.8364 10.0312 15.8083 10.0312 15.7739C10.0312 15.7396 10.0469 15.7114 10.0625 15.7114C10.0813 15.7114 10.0938 15.6833 10.0938 15.6489C10.0938 15.6146 10.1094 15.5864 10.125 15.5864C10.1438 15.5864 10.1562 15.5583 10.1562 15.5239C10.1562 15.4896 10.1719 15.4614 10.1875 15.4614C10.2063 15.4614 10.2188 15.4333 10.2188 15.3989C10.2188 15.3646 10.2344 15.3364 10.25 15.3364C10.2688 15.3364 10.2812 15.3083 10.2812 15.2739C10.2812 15.2396 10.2969 15.2114 10.3125 15.2114C10.3313 15.2114 10.3438 15.1833 10.3438 15.1489C10.3438 15.1146 10.3594 15.0864 10.375 15.0864C10.3938 15.0864 10.4062 15.0583 10.4062 15.0239C10.4062 14.9896 10.4219 14.9614 10.4375 14.9614C10.4563 14.9614 10.4688 14.9333 10.4688 14.8989C10.4688 14.8646 10.4844 14.8364 10.5 14.8364C10.5188 14.8364 10.5312 14.8083 10.5312 14.7739C10.5312 14.7396 10.5469 14.7114 10.5625 14.7114C10.5813 14.7114 10.5938 14.6896 10.5938 14.6646C10.5938 14.5208 10.3344 14.5271 15.9938 14.5239C20.5656 14.5239 21.3219 14.5302 21.3625 14.5677ZM26.2812 26.2739H5.71875V20.7739H26.2812V26.2739ZM9.34375 30.0864H7.59375V28.2739H9.34375V30.0864ZM20.6562 30.0864H11.3438V28.2739H20.6562V30.0864ZM24.4062 30.0864H22.6562V28.2739H24.4062V30.0864Z" fill="white"/>
<path d="M7.46875 24.5239H10.0938L10.0875 23.5302L10.0781 22.5396L8.775 22.5302L7.46875 22.5239V24.5239Z" fill="white"/>
<path d="M21.9281 22.5458C21.9156 22.5552 21.9062 23.0052 21.9062 23.5458V24.5239H24.5312V22.5239H23.2406C22.5281 22.5239 21.9375 22.5333 21.9281 22.5458Z" fill="white"/>
</svg>
