<svg width="32" height="32" viewBox="0 0 32 32" fill="none" xmlns="http://www.w3.org/2000/svg">
<g clip-path="url(#clip0_1089_24686)">
<path d="M0 13.6878C1.87112 13.6878 3.18876 13.7338 4.875 14.2503C7.27909 14.9793 9.49829 15.0522 11.9003 14.301C12.1726 14.2158 12.4453 14.1324 12.7188 14.051C12.766 14.0362 12.8133 14.0213 12.862 14.006C13.8277 13.7209 14.8243 13.6565 15.8256 13.6633C15.9999 13.6643 16.1742 13.6633 16.3486 13.6621C17.3363 13.6609 18.3194 13.7486 19.2656 14.0471C19.3184 14.0629 19.3711 14.0786 19.4254 14.0948C19.5964 14.1459 19.7669 14.198 19.9375 14.2503C22.3416 14.9793 24.5608 15.0522 26.9628 14.301C28.7111 13.7544 30.0579 13.6878 32 13.6878C32 19.7309 32 25.774 32 32.0003C21.44 32.0003 10.88 32.0003 0 32.0003C0 25.9571 0 19.914 0 13.6878ZM15.332 15.5784C15.2899 15.58 15.2478 15.5816 15.2044 15.5833C14.3292 15.6352 13.4942 15.8333 12.6647 16.1065C9.82782 17.0317 6.96326 16.9929 4.13487 16.0611C3.40159 15.822 2.65118 15.6253 1.875 15.6253C1.875 16.244 1.875 16.8628 1.875 17.5003C2.1225 17.5325 2.37 17.5647 2.625 17.5979C3.40347 17.7078 4.13553 17.895 4.88388 18.1316C7.26332 18.8792 9.52125 18.92 11.9003 18.176C12.1726 18.0908 12.4453 18.0074 12.7188 17.926C12.7897 17.9038 12.7897 17.9038 12.862 17.881C13.8277 17.5959 14.8243 17.5315 15.8256 17.5383C15.9999 17.5393 16.1742 17.5383 16.3486 17.5371C17.3363 17.5359 18.3194 17.6236 19.2656 17.9221C19.3184 17.9379 19.3711 17.9536 19.4254 17.9698C19.5964 18.0209 19.7669 18.073 19.9375 18.1253C22.4894 18.8992 24.751 18.881 27.2812 18.0755C28.221 17.7786 29.147 17.6307 30.125 17.5003C30.125 16.8815 30.125 16.2628 30.125 15.6253C29.4701 15.6691 29.4701 15.6691 28.8438 15.7815C28.8011 15.7917 28.7584 15.8019 28.7145 15.8124C28.3394 15.9062 27.973 16.0249 27.6052 16.1438C24.8082 17.0419 21.9774 16.9769 19.1974 16.0611C18.3504 15.7849 17.4906 15.6084 16.5977 15.5784C16.5162 15.5752 16.5162 15.5752 16.433 15.572C16.0655 15.5604 15.6994 15.5622 15.332 15.5784ZM15.332 19.3909C15.2899 19.3925 15.2478 19.3941 15.2044 19.3958C14.3292 19.4477 13.4942 19.6458 12.6647 19.919C9.82782 20.8442 6.96326 20.8054 4.13487 19.8736C3.40159 19.6345 2.65118 19.4378 1.875 19.4378C1.875 20.0565 1.875 20.6753 1.875 21.3128C2.1225 21.345 2.37 21.3772 2.625 21.4104C3.40347 21.5203 4.13553 21.7075 4.88388 21.9441C7.26332 22.6917 9.52125 22.7325 11.9003 21.9885C12.1726 21.9033 12.4453 21.8199 12.7188 21.7385C12.7897 21.7163 12.7897 21.7163 12.862 21.6935C13.8277 21.4084 14.8243 21.344 15.8256 21.3508C15.9999 21.3518 16.1742 21.3508 16.3486 21.3496C17.3363 21.3484 18.3194 21.4361 19.2656 21.7346C19.3184 21.7504 19.3711 21.7661 19.4254 21.7823C19.5964 21.8334 19.7669 21.8855 19.9375 21.9378C22.4894 22.7117 24.751 22.6935 27.2812 21.888C28.221 21.5911 29.147 21.4432 30.125 21.3128C30.125 20.694 30.125 20.0753 30.125 19.4378C29.4701 19.4816 29.4701 19.4816 28.8438 19.594C28.8011 19.6042 28.7584 19.6144 28.7145 19.6249C28.3394 19.7187 27.973 19.8374 27.6052 19.9563C24.8082 20.8544 21.9774 20.7894 19.1974 19.8736C18.3504 19.5974 17.4906 19.4209 16.5977 19.3909C16.5162 19.3877 16.5162 19.3877 16.433 19.3845C16.0655 19.3729 15.6994 19.3747 15.332 19.3909ZM15.332 23.2034C15.2899 23.205 15.2478 23.2066 15.2044 23.2083C14.3292 23.2602 13.4942 23.4583 12.6647 23.7315C9.82782 24.6567 6.96326 24.6179 4.13487 23.6861C3.40159 23.447 2.65118 23.2503 1.875 23.2503C1.875 23.869 1.875 24.4878 1.875 25.1253C2.1225 25.1575 2.37 25.1897 2.625 25.2229C3.40347 25.3328 4.13553 25.52 4.88388 25.7566C7.26332 26.5042 9.52125 26.545 11.9003 25.801C12.1726 25.7158 12.4453 25.6324 12.7188 25.551C12.7897 25.5288 12.7897 25.5288 12.862 25.506C13.8277 25.2209 14.8243 25.1565 15.8256 25.1633C15.9999 25.1643 16.1742 25.1633 16.3486 25.1621C17.3363 25.1609 18.3194 25.2486 19.2656 25.5471C19.3184 25.5629 19.3711 25.5786 19.4254 25.5948C19.5964 25.6459 19.7669 25.698 19.9375 25.7503C22.4894 26.5242 24.751 26.506 27.2812 25.7005C28.221 25.4036 29.147 25.2557 30.125 25.1253C30.125 24.5065 30.125 23.8878 30.125 23.2503C29.4701 23.2941 29.4701 23.2941 28.8438 23.4065C28.8011 23.4167 28.7584 23.4269 28.7145 23.4374C28.3394 23.5312 27.973 23.6499 27.6052 23.7688C24.8082 24.6669 21.9774 24.6019 19.1974 23.6861C18.3504 23.4099 17.4906 23.2334 16.5977 23.2034C16.5162 23.2002 16.5162 23.2002 16.433 23.197C16.0655 23.1854 15.6994 23.1872 15.332 23.2034ZM15.332 27.0159C15.2899 27.0175 15.2478 27.0191 15.2044 27.0208C14.3292 27.0727 13.4942 27.2708 12.6647 27.544C9.82782 28.4692 6.96326 28.4304 4.13487 27.4986C3.40159 27.2595 2.65118 27.0628 1.875 27.0628C1.875 28.0734 1.875 29.084 1.875 30.1253C11.1975 30.1253 20.52 30.1253 30.125 30.1253C30.125 29.1146 30.125 28.104 30.125 27.0628C29.4701 27.1066 29.4701 27.1066 28.8438 27.219C28.8011 27.2292 28.7584 27.2394 28.7145 27.2499C28.3394 27.3437 27.973 27.4624 27.6052 27.5813C24.8082 28.4794 21.9774 28.4144 19.1974 27.4986C18.3504 27.2224 17.4906 27.0459 16.5977 27.0159C16.5162 27.0127 16.5162 27.0127 16.433 27.0095C16.0655 26.9979 15.6994 26.9997 15.332 27.0159Z" fill="#131313"/>
<path d="M30.7862 0.414904C31.3783 0.849223 31.8456 1.45515 32 2.18712C32.0811 3.06259 32.0102 3.83063 31.4766 4.55821C31.0235 5.08992 30.4023 5.57003 29.6823 5.63667C28.7732 5.66959 28.0295 5.60232 27.3076 4.98717C26.7995 4.51102 26.3838 3.88283 26.3579 3.16783C26.3319 2.23969 26.4691 1.51211 27.125 0.812121C28.0637 -0.179815 29.6555 -0.306332 30.7862 0.414904ZM28.3828 2.31993C28.2772 2.58984 28.2713 2.83879 28.3125 3.12462C28.4477 3.4 28.5873 3.57454 28.875 3.68712C29.1902 3.72989 29.427 3.72299 29.7149 3.58165C29.9248 3.39219 30.0434 3.26578 30.0823 2.97887C30.0989 2.62153 30.0606 2.39946 29.8125 2.12462C29.5727 1.91301 29.3354 1.90506 29.0274 1.91515C28.736 1.95718 28.5718 2.1058 28.3828 2.31993Z" fill="#131313"/>
<path d="M0 5.625C0.873768 5.625 0.873768 5.625 1.25781 5.75781C1.32145 5.77899 1.32145 5.77899 1.38638 5.8006C1.98078 6.00736 2.41399 6.32411 2.86084 6.76514C3.00315 6.90082 3.00315 6.90082 3.25 6.875C3.34676 6.79676 3.34676 6.79676 3.43359 6.6875C3.98282 6.11268 4.72697 5.77402 5.5 5.625C5.7475 5.625 5.995 5.625 6.25 5.625C6.25 6.26437 6.25 6.90375 6.25 7.5625C5.90969 7.62437 5.90969 7.62437 5.5625 7.6875C4.99103 7.92281 4.59656 8.25997 4.3125 8.8125C4.18565 9.11693 4.16808 9.34289 4.125 9.6875C3.465 9.6875 2.805 9.6875 2.125 9.6875C2.08375 9.46062 2.0425 9.23375 2 9C1.76922 8.42733 1.431 8.028 0.875977 7.75049C0.592735 7.65583 0.293823 7.61592 0 7.5625C0 6.92313 0 6.28375 0 5.625Z" fill="#131313"/>
<path d="M8.5 0C9.37377 0 9.37377 0 9.75781 0.132812C9.82145 0.153991 9.82145 0.153991 9.88638 0.175598C10.4808 0.382358 10.914 0.699106 11.3608 1.14014C11.5032 1.27582 11.5032 1.27582 11.75 1.25C11.8468 1.17176 11.8468 1.17176 11.9336 1.0625C12.4828 0.487678 13.227 0.149018 14 0C14.2475 0 14.495 0 14.75 0C14.75 0.639375 14.75 1.27875 14.75 1.9375C14.4097 1.99937 14.4097 1.99937 14.0625 2.0625C13.491 2.29781 13.0966 2.63497 12.8125 3.1875C12.6857 3.49193 12.6681 3.71789 12.625 4.0625C11.965 4.0625 11.305 4.0625 10.625 4.0625C10.5838 3.83562 10.5425 3.60875 10.5 3.375C10.2692 2.80233 9.931 2.403 9.37598 2.12549C9.09273 2.03083 8.79382 1.99092 8.5 1.9375C8.5 1.29813 8.5 0.65875 8.5 0Z" fill="#131313"/>
</g>
<defs>
<clipPath id="clip0_1089_24686">
<rect width="32" height="32" fill="white"/>
</clipPath>
</defs>
</svg>
