<svg width="799" height="728" viewBox="0 0 799 728" fill="none" xmlns="http://www.w3.org/2000/svg">
<path d="M0.750977 498.725C0.712414 487.897 2.8277 477.169 6.97461 467.165C11.1216 457.161 17.2176 448.081 24.9072 440.453L24.9092 440.451L440.741 24.8555C456.196 9.42007 477.151 0.75 499 0.75C520.849 0.75 541.803 9.42104 557.258 24.8564L973.091 440.451L973.093 440.453C980.782 448.081 986.878 457.161 991.025 467.165C995.172 477.169 997.289 487.897 997.25 498.725V997.44C997.25 1008.26 992.948 1018.64 985.29 1026.3C977.632 1033.95 967.246 1038.25 956.416 1038.25H41.584C30.7542 1038.25 20.3677 1033.95 12.71 1026.3C5.0524 1018.64 0.750977 1008.26 0.750977 997.44V498.725Z" stroke="#B0914F" stroke-width="1.5"/>
</svg>
